<svg width="10" height="13" viewBox="0 0 10 13" fill="none" xmlns="http://www.w3.org/2000/svg">
<path d="M0.799951 0H9.19995C9.35908 0 9.51169 0.0632141 9.62422 0.175736C9.73674 0.288258 9.79995 0.44087 9.79995 0.6V12.0858C9.80002 12.1394 9.7857 12.1921 9.75849 12.2384C9.73128 12.2846 9.69217 12.3227 9.64524 12.3486C9.5983 12.3746 9.54526 12.3875 9.49164 12.3861C9.43802 12.3846 9.38577 12.3687 9.34035 12.3402L4.99995 9.618L0.659551 12.3396C0.614172 12.3681 0.561984 12.3839 0.508412 12.3855C0.454841 12.387 0.401843 12.3741 0.354928 12.3482C0.308014 12.3223 0.268895 12.2843 0.241641 12.2381C0.214386 12.192 0.199991 12.1394 0.199951 12.0858V0.6C0.199951 0.44087 0.263165 0.288258 0.375687 0.175736C0.488209 0.0632141 0.640821 0 0.799951 0Z" fill="#375DFB"/>
</svg>
