<svg width="11" height="11" viewBox="0 0 11 11" fill="none" xmlns="http://www.w3.org/2000/svg">
<g clip-path="url(#clip0_509_28475)">
<path d="M5.0154 2.01367C4.91726 2.81448 4.73991 3.6153 4.33263 4.3486C3.79052 5.32447 2.96194 5.89482 1.8595 6.07384C1.78823 6.08548 1.71696 6.09642 1.6749 6.10317C1.97329 6.19233 2.303 6.26729 2.61471 6.38834C3.66761 6.79736 4.33567 7.5749 4.70439 8.62317C4.8731 9.10319 4.97171 9.59881 5.01354 10.1056C5.01914 10.1727 5.03083 10.2395 5.03573 10.276C5.14252 9.36509 5.3423 8.45183 5.86432 7.63915C6.40502 6.79713 7.18477 6.31804 8.1643 6.14601C8.2101 6.13786 8.2559 6.12971 8.30193 6.12319C8.3475 6.11691 8.39353 6.11295 8.46924 6.10457C7.56097 5.95488 6.77422 5.62687 6.15804 4.96248C5.65705 4.42216 5.36427 3.7736 5.20397 3.06427C5.12429 2.71136 5.07499 2.35169 5.01517 2.01367H5.0154Z" fill="#375DFB"/>
<path d="M10.2764 9.84768C9.66603 9.71918 9.28305 9.37045 9.1807 8.7149C9.05896 9.35486 8.71828 9.74688 8.04391 9.8542C8.71804 9.98433 9.10383 10.3524 9.18725 11C9.27183 10.3719 9.6471 9.97456 10.2764 9.84768Z" fill="#375DFB"/>
<path d="M8.08132 2.67269C8.70778 2.79956 9.09076 3.15714 9.1875 3.8064C9.29989 3.18135 9.63614 2.78141 10.2822 2.66617C9.67025 2.5372 9.284 2.19057 9.18165 1.53107C9.06061 2.17102 8.71806 2.56444 8.08132 2.67269Z" fill="#375DFB"/>
<path d="M2.52686 1.15559C1.78777 0.998455 1.48984 0.554749 1.42325 0C1.33679 0.527978 1.087 1.01009 0.310523 1.16304C0.940022 1.29131 1.32791 1.63654 1.42792 2.29559C1.54872 1.65796 1.88871 1.26128 2.52662 1.15559H2.52686Z" fill="#375DFB"/>
</g>
<defs>
<clipPath id="clip0_509_28475">
<rect width="9.97151" height="11" fill="white" transform="matrix(-1 0 0 1 10.2822 0)"/>
</clipPath>
</defs>
</svg>
