<svg width="13" height="13" viewBox="0 0 13 13" fill="none" xmlns="http://www.w3.org/2000/svg">
<path d="M9.5 1.6H11.9C12.0591 1.6 12.2117 1.66322 12.3243 1.77574C12.4368 1.88826 12.5 2.04087 12.5 2.2V11.8C12.5 11.9591 12.4368 12.1117 12.3243 12.2243C12.2117 12.3368 12.0591 12.4 11.9 12.4H1.1C0.94087 12.4 0.788258 12.3368 0.675736 12.2243C0.563214 12.1117 0.5 11.9591 0.5 11.8V2.2C0.5 2.04087 0.563214 1.88826 0.675736 1.77574C0.788258 1.66322 0.94087 1.6 1.1 1.6H3.5V0.400002H4.7V1.6H8.3V0.400002H9.5V1.6ZM11.3 5.2V2.8H9.5V4H8.3V2.8H4.7V4H3.5V2.8H1.7V5.2H11.3ZM11.3 6.4H1.7V11.2H11.3V6.4ZM2.9 7.6H5.9V10H2.9V7.6Z" fill="#375DFB"/>
</svg>
