<svg width="20" height="20" viewBox="0 0 20 20" fill="none" xmlns="http://www.w3.org/2000/svg">
<path d="M10 15.25H11.5V5.49996L16.2955 7.55496C16.4305 7.61283 16.5455 7.70907 16.6263 7.83173C16.7071 7.95439 16.7501 8.09808 16.75 8.24496V15.25H18.25V16.75H1.75V15.25H3.25V5.23746C3.24998 5.09235 3.29206 4.95034 3.37114 4.82867C3.45021 4.707 3.56289 4.61087 3.6955 4.55196L9.47275 1.98396C9.52991 1.95857 9.5925 1.94787 9.65485 1.95285C9.71719 1.95783 9.7773 1.97832 9.8297 2.01246C9.8821 2.0466 9.92513 2.0933 9.95488 2.14832C9.98462 2.20333 10.0001 2.26492 10 2.32746V15.25Z" fill="#375DFB"/>
</svg>
