<svg width="32" height="31" viewBox="0 0 32 31" fill="none" xmlns="http://www.w3.org/2000/svg">
<path opacity="0.4" d="M12.0896 12.4578C10.0828 15.2654 10.4002 19.113 12.8416 21.5545C15.6004 24.3132 20.0681 24.3132 22.8269 21.5545L28.3103 16.0711C31.0691 13.3123 31.0691 8.84449 28.3103 6.0857C25.8689 3.6443 22.0212 3.32691 19.2136 5.33375L19.1355 5.38746C18.4324 5.89039 18.2712 6.86695 18.7742 7.56519C19.2771 8.26344 20.2537 8.42945 20.9519 7.92652L21.03 7.87281C22.5974 6.75465 24.741 6.93043 26.0984 8.29273C27.6365 9.83082 27.6365 12.3211 26.0984 13.8591L20.6199 19.3474C19.0818 20.8855 16.5916 20.8855 15.0535 19.3474C13.6912 17.9851 13.5154 15.8416 14.6336 14.2791L14.6873 14.2009C15.1902 13.4978 15.0242 12.5212 14.3259 12.0232C13.6277 11.5252 12.6462 11.6863 12.1482 12.3845L12.0945 12.4627L12.0896 12.4578Z" fill="#375DFB"/>
<path d="M2.9397 24.9138C0.180908 22.155 0.180908 17.6873 2.9397 14.9285L8.4231 9.44507C11.1819 6.68628 15.6497 6.68628 18.4084 9.44507C20.8499 11.8865 21.1672 15.7341 19.1604 18.5417L19.1067 18.6199C18.6038 19.323 17.6272 19.4841 16.929 18.9812C16.2307 18.4783 16.0647 17.5017 16.5676 16.8035L16.6213 16.7253C17.7395 15.158 17.5637 13.0144 16.2014 11.6521C14.6633 10.114 12.1731 10.114 10.635 11.6521L5.15161 17.1355C3.61353 18.6736 3.61353 21.1638 5.15161 22.7019C6.51392 24.0642 8.65747 24.24 10.22 23.1218L10.2981 23.0681C11.0012 22.5652 11.9778 22.7312 12.4758 23.4294C12.9739 24.1277 12.8127 25.1091 12.1145 25.6072L12.0364 25.6609C9.22876 27.6726 5.3811 27.3503 2.9397 24.9138Z" fill="#375DFB"/>
</svg>
