<svg width="30" height="31" viewBox="0 0 30 31" fill="none" xmlns="http://www.w3.org/2000/svg">
<g clip-path="url(#clip0_1049_6768)">
<path opacity="0.4" d="M3.3335 13.5378C3.4637 13.5905 3.60433 13.6326 3.74495 13.6694C3.88558 13.7063 4.03141 13.7326 4.18245 13.7537C4.39079 13.78 4.60433 13.7958 4.81266 13.7958C5.47933 13.7958 6.10433 13.6536 6.66683 13.4009V22.2215H23.3335V13.4009C23.6147 13.5273 23.9116 13.6273 24.2189 13.6905C24.3752 13.7221 24.5314 13.7484 24.6877 13.7642C24.8439 13.78 25.0106 13.7906 25.1772 13.7906C25.3908 13.7906 25.5991 13.7748 25.8075 13.7484C26.1095 13.7063 26.396 13.6326 26.6668 13.5325V22.2215V25.5917C26.6668 27.4506 25.172 28.962 23.3335 28.962H6.66683C4.82829 28.962 3.3335 27.4506 3.3335 25.5917V22.2215V13.5378Z" fill="#375DFB"/>
<path d="M25.5365 2.68985L28.5209 7.46613C30.0678 9.93589 28.698 13.3641 25.8073 13.7538C25.599 13.7801 25.3959 13.7959 25.1771 13.7959C23.8178 13.7959 22.6146 13.1956 21.7813 12.2687C20.9532 13.1956 19.75 13.7959 18.3855 13.7959C17.0261 13.7959 15.8178 13.1956 14.9896 12.2687C14.1615 13.1956 12.9584 13.7959 11.5938 13.7959C10.2344 13.7959 9.02609 13.1956 8.19796 12.2687C7.36984 13.1956 6.16151 13.7959 4.80213 13.7959C4.58859 13.7959 4.37505 13.7801 4.17192 13.7538C1.29171 13.3641 -0.072869 9.93063 1.4688 7.46613L4.46359 2.68985C4.72921 2.2633 5.20317 2 5.70838 2H24.2917C24.7969 2 25.2709 2.2633 25.5365 2.68985Z" fill="#375DFB"/>
</g>
<defs>
<clipPath id="clip0_1049_6768">
<rect width="30" height="26.962" fill="white" transform="translate(0 2)"/>
</clipPath>
</defs>
</svg>
