<svg width="14" height="14" viewBox="0 0 14 14" fill="none" xmlns="http://www.w3.org/2000/svg">
<path d="M4.62173 3.66832C4.62159 3.92909 4.51788 4.17912 4.3334 4.36342C4.14891 4.54772 3.89878 4.65118 3.63801 4.65105C3.37724 4.65092 3.1272 4.54721 2.94291 4.36272C2.75861 4.17824 2.65514 3.9281 2.65527 3.66734C2.6554 3.40657 2.75912 3.15653 2.9436 2.97223C3.12808 2.78794 3.37822 2.68447 3.63899 2.6846C3.89976 2.68473 4.14979 2.78845 4.33409 2.97293C4.51839 3.15741 4.62186 3.40755 4.62173 3.66832ZM4.65122 5.37913H2.68477V11.5341H4.65122V5.37913ZM7.75822 5.37913H5.8016V11.5341H7.73855V8.30423C7.73855 6.50493 10.0835 6.33778 10.0835 8.30423V11.5341H12.0254V7.63563C12.0254 4.60238 8.55463 4.71545 7.73855 6.20504L7.75822 5.37913Z" fill="#525866"/>
</svg>
