<svg width="16" height="17" viewBox="0 0 16 17" fill="none" xmlns="http://www.w3.org/2000/svg">
<path d="M12.7004 5.58745V3.74995C12.7004 3.55745 12.8579 3.39995 13.0504 3.39995C13.2429 3.39995 13.4004 3.55745 13.4004 3.74995V6.54995C13.4004 6.74245 13.2429 6.89995 13.0504 6.89995H10.2504C10.0579 6.89995 9.90039 6.74245 9.90039 6.54995C9.90039 6.35745 10.0579 6.19995 10.2504 6.19995H12.2279C11.4426 4.54401 9.75383 3.39995 7.80039 3.39995C5.09445 3.39995 2.90039 5.59401 2.90039 8.29995C2.90039 11.0059 5.09445 13.2 7.80039 13.2C9.40383 13.2 10.8257 12.43 11.7204 11.24C11.8363 11.0846 12.0551 11.054 12.2104 11.17C12.3657 11.2859 12.3963 11.5046 12.2804 11.66C11.2588 13.0206 9.63352 13.9 7.80039 13.9C4.70726 13.9 2.20039 11.3931 2.20039 8.29995C2.20039 5.20683 4.70726 2.69995 7.80039 2.69995C9.90914 2.69995 11.7445 3.86589 12.7004 5.58745Z" fill="#375DFB" stroke="#375DFB" stroke-width="0.5"/>
<path d="M8.81697 11.0482C8.95308 11.1843 9.17582 11.1843 9.31194 11.0482C9.44806 10.912 9.44806 10.6893 9.31194 10.5532L7.68162 8.92287L7.68162 6.59339C7.68162 6.40159 7.52384 6.24382 7.33204 6.24382C7.14024 6.24382 6.98246 6.40159 6.98246 6.59339L6.98247 9.06827C6.98247 9.16108 7.01959 9.25079 7.08455 9.31576L8.81697 11.0482Z" fill="#375DFB" stroke="#375DFB" stroke-width="0.5"/>
</svg>
