<svg width="22" height="18" viewBox="0 0 22 18" fill="none" xmlns="http://www.w3.org/2000/svg">
<g clip-path="url(#clip0_453_22686)">
<path d="M3.23103 0.444458C2.01759 0.444458 1.03103 1.40362 1.03103 2.58335V8.74602C1.61541 8.23803 2.38541 7.93057 3.23103 7.93057V2.58335H18.631V7.93057C19.4767 7.93057 20.2467 8.23803 20.831 8.74602V2.58335C20.831 1.40362 19.8445 0.444458 18.631 0.444458H3.23103ZM5.43103 11.1389C5.43103 10.5716 5.19925 10.0276 4.78667 9.62648C4.37409 9.22536 3.81451 9.00001 3.23103 9.00001C2.64755 9.00001 2.08798 9.22536 1.6754 9.62648C1.26282 10.0276 1.03103 10.5716 1.03103 11.1389C1.03103 11.7062 1.26282 12.2502 1.6754 12.6513C2.08798 13.0524 2.64755 13.2778 3.23103 13.2778C3.81451 13.2778 4.37409 13.0524 4.78667 12.6513C5.19925 12.2502 5.43103 11.7062 5.43103 11.1389ZM-0.0689697 16.4861C-0.0689697 17.0777 0.422593 17.5556 1.03103 17.5556H5.43103C6.03947 17.5556 6.53103 17.0777 6.53103 16.4861C6.53103 15.3064 5.54447 14.3472 4.33103 14.3472H2.13103C0.917593 14.3472 -0.0689697 15.3064 -0.0689697 16.4861ZM13.131 11.1389C13.131 10.5716 12.8992 10.0276 12.4867 9.62648C12.0741 9.22536 11.5145 9.00001 10.931 9.00001C10.3476 9.00001 9.78798 9.22536 9.3754 9.62648C8.96282 10.0276 8.73103 10.5716 8.73103 11.1389C8.73103 11.7062 8.96282 12.2502 9.3754 12.6513C9.78798 13.0524 10.3476 13.2778 10.931 13.2778C11.5145 13.2778 12.0741 13.0524 12.4867 12.6513C12.8992 12.2502 13.131 11.7062 13.131 11.1389ZM7.63103 16.4861C7.63103 17.0777 8.12259 17.5556 8.73103 17.5556H13.131C13.7395 17.5556 14.231 17.0777 14.231 16.4861C14.231 15.3064 13.2445 14.3472 12.031 14.3472H9.83103C8.61759 14.3472 7.63103 15.3064 7.63103 16.4861ZM18.631 13.2778C19.2145 13.2778 19.7741 13.0524 20.1867 12.6513C20.5992 12.2502 20.831 11.7062 20.831 11.1389C20.831 10.5716 20.5992 10.0276 20.1867 9.62648C19.7741 9.22536 19.2145 9.00001 18.631 9.00001C18.0476 9.00001 17.488 9.22536 17.0754 9.62648C16.6628 10.0276 16.431 10.5716 16.431 11.1389C16.431 11.7062 16.6628 12.2502 17.0754 12.6513C17.488 13.0524 18.0476 13.2778 18.631 13.2778ZM17.531 14.3472C16.3176 14.3472 15.331 15.3064 15.331 16.4861C15.331 17.0777 15.8226 17.5556 16.431 17.5556H20.831C21.4395 17.5556 21.931 17.0777 21.931 16.4861C21.931 15.3064 20.9445 14.3472 19.731 14.3472H17.531Z" fill="#375DFB"/>
</g>
<defs>
<clipPath id="clip0_453_22686">
<rect width="22" height="17.1111" fill="white" transform="translate(0 0.444458)"/>
</clipPath>
</defs>
</svg>
