<svg width="20" height="20" viewBox="0 0 20 20" fill="none" xmlns="http://www.w3.org/2000/svg">
<path d="M14.773 14.0229L10 18.7959L5.227 14.0229C4.28301 13.0789 3.64014 11.8762 3.3797 10.5668C3.11925 9.25746 3.25293 7.90026 3.76382 6.66687C4.27472 5.43347 5.13988 4.37927 6.24991 3.63757C7.35994 2.89588 8.66498 2.5 10 2.5C11.335 2.5 12.6401 2.89588 13.7501 3.63757C14.8601 4.37927 15.7253 5.43347 16.2362 6.66687C16.7471 7.90026 16.8808 9.25746 16.6203 10.5668C16.3599 11.8762 15.717 13.0789 14.773 14.0229ZM10 12.2499C10.7957 12.2499 11.5587 11.9339 12.1213 11.3713C12.6839 10.8087 13 10.0456 13 9.24994C13 8.45429 12.6839 7.69123 12.1213 7.12862C11.5587 6.56601 10.7957 6.24994 10 6.24994C9.20435 6.24994 8.44129 6.56601 7.87868 7.12862C7.31607 7.69123 7 8.45429 7 9.24994C7 10.0456 7.31607 10.8087 7.87868 11.3713C8.44129 11.9339 9.20435 12.2499 10 12.2499ZM10 10.7499C9.60218 10.7499 9.22065 10.5919 8.93934 10.3106C8.65804 10.0293 8.5 9.64777 8.5 9.24994C8.5 8.85212 8.65804 8.47059 8.93934 8.18928C9.22065 7.90798 9.60218 7.74994 10 7.74994C10.3978 7.74994 10.7794 7.90798 11.0607 8.18928C11.342 8.47059 11.5 8.85212 11.5 9.24994C11.5 9.64777 11.342 10.0293 11.0607 10.3106C10.7794 10.5919 10.3978 10.7499 10 10.7499Z" fill="#375DFB"/>
</svg>
