<svg width="16" height="16" viewBox="0 0 16 16" fill="none" xmlns="http://www.w3.org/2000/svg">
<path d="M8.0001 15.0368L4.1817 11.2184C3.4265 10.4632 2.91221 9.50102 2.70385 8.45352C2.4955 7.40603 2.60244 6.32027 3.01116 5.33356C3.41987 4.34684 4.112 3.50348 5.00003 2.91012C5.88805 2.31676 6.93208 2.00006 8.0001 2.00006C9.06812 2.00006 10.1121 2.31676 11.0002 2.91012C11.8882 3.50348 12.5803 4.34684 12.989 5.33356C13.3978 6.32027 13.5047 7.40603 13.2963 8.45352C13.088 9.50102 12.5737 10.4632 11.8185 11.2184L8.0001 15.0368ZM10.9701 10.37C11.5574 9.78262 11.9574 9.03425 12.1194 8.21954C12.2815 7.40483 12.1983 6.56037 11.8804 5.79295C11.5625 5.02552 11.0241 4.3696 10.3334 3.90812C9.64277 3.44663 8.83076 3.20032 8.0001 3.20032C7.16944 3.20032 6.35743 3.44663 5.66675 3.90812C4.97607 4.3696 4.43775 5.02552 4.11985 5.79295C3.80195 6.56037 3.71875 7.40483 3.88077 8.21954C4.04279 9.03425 4.44276 9.78262 5.0301 10.37L8.0001 13.34L10.9701 10.37ZM8.0001 8.60001C7.68184 8.60001 7.37662 8.47359 7.15157 8.24854C6.92653 8.0235 6.8001 7.71827 6.8001 7.40001C6.8001 7.08175 6.92653 6.77653 7.15157 6.55149C7.37662 6.32644 7.68184 6.20001 8.0001 6.20001C8.31836 6.20001 8.62358 6.32644 8.84863 6.55149C9.07367 6.77653 9.2001 7.08175 9.2001 7.40001C9.2001 7.71827 9.07367 8.0235 8.84863 8.24854C8.62358 8.47359 8.31836 8.60001 8.0001 8.60001Z" fill="#868C98"/>
</svg>
