<svg width="32" height="31" viewBox="0 0 32 31" fill="none" xmlns="http://www.w3.org/2000/svg">
<g clip-path="url(#clip0_1049_6732)">
<path opacity="0.4" d="M10.1709 12.1016C10.166 12.1455 10.1611 12.1943 10.1611 12.2383C10.1563 12.2822 10.1562 12.3311 10.1562 12.375C10.1562 12.8486 10.2979 13.3223 10.5908 13.7373C11.3428 14.792 12.8076 15.0361 13.8623 14.2842L16.6553 12.292C16.8701 12.4873 17.085 12.6826 17.2949 12.8779L24.2383 19.2402C24.5068 19.4844 24.7021 19.7822 24.8291 20.0947C24.8438 20.124 24.8535 20.1533 24.8633 20.1826H24.9951V9.24512H24.9219L21.4551 6.93555C20.6641 6.4082 19.7314 6.125 18.7744 6.125C17.7637 6.125 16.7773 6.44238 15.957 7.02832C15.8057 7.13574 15.6543 7.24316 15.5029 7.35547C14.0479 8.39551 12.5977 9.43066 11.1426 10.4707C11.1035 10.5 11.0645 10.5293 11.0254 10.5586C10.9863 10.5879 10.9521 10.6221 10.918 10.6514C10.8496 10.7148 10.7813 10.7832 10.7227 10.8564C10.6006 10.998 10.498 11.1543 10.415 11.3203C10.332 11.4863 10.2686 11.6572 10.2295 11.833C10.21 11.9209 10.1904 12.0137 10.1807 12.1016H10.1709ZM26.5625 9.25V20.1875C26.5625 21.0518 27.2607 21.75 28.125 21.75H29.6875C30.5518 21.75 31.25 21.0518 31.25 20.1875V10.0312C31.25 9.60156 30.8984 9.25 30.4688 9.25H26.5625ZM29.6875 19.4062C29.6875 19.6135 29.6052 19.8122 29.4587 19.9587C29.3122 20.1052 29.1135 20.1875 28.9062 20.1875C28.699 20.1875 28.5003 20.1052 28.3538 19.9587C28.2073 19.8122 28.125 19.6135 28.125 19.4062C28.125 19.199 28.2073 19.0003 28.3538 18.8538C28.5003 18.7073 28.699 18.625 28.9062 18.625C29.1135 18.625 29.3122 18.7073 29.4587 18.8538C29.6052 19.0003 29.6875 19.199 29.6875 19.4062Z" fill="#375DFB"/>
<path d="M7.62695 20.1875H6.25V9.25L9.76562 6.90625C10.5273 6.39844 11.4258 6.125 12.3438 6.125C13.4521 6.125 14.5264 6.52051 15.3662 7.24316L15.498 7.35547L11.1377 10.4707C10.083 11.2227 9.83887 12.6875 10.5908 13.7422C11.3428 14.7969 12.8076 15.041 13.8623 14.2891L16.6553 12.2969L17.2949 12.8828L24.2383 19.2402C24.5068 19.4844 24.707 19.7822 24.8291 20.0947C25.1514 20.9053 25.0098 21.8623 24.3799 22.5508C23.5059 23.5029 22.0215 23.5713 21.0693 22.6924L20.6885 22.3457C20.6445 22.8389 20.4443 23.3271 20.083 23.7227C19.209 24.6748 17.7246 24.7432 16.7725 23.8643L15.9424 23.1025C15.8496 23.4639 15.6689 23.8105 15.4004 24.1084C14.5264 25.0654 13.0469 25.1338 12.0898 24.2598L7.62695 20.1875ZM0 10.0312C0 9.60156 0.351562 9.25 0.78125 9.25H4.6875V20.1875C4.6875 21.0518 3.98926 21.75 3.125 21.75H1.5625C0.698242 21.75 0 21.0518 0 20.1875V10.0312ZM3.125 19.4062C3.125 19.199 3.04269 19.0003 2.89618 18.8538C2.74966 18.7073 2.55095 18.625 2.34375 18.625C2.13655 18.625 1.93784 18.7073 1.79132 18.8538C1.64481 19.0003 1.5625 19.199 1.5625 19.4062C1.5625 19.6135 1.64481 19.8122 1.79132 19.9587C1.93784 20.1052 2.13655 20.1875 2.34375 20.1875C2.55095 20.1875 2.74966 20.1052 2.89618 19.9587C3.04269 19.8122 3.125 19.6135 3.125 19.4062Z" fill="#375DFB"/>
</g>
<defs>
<clipPath id="clip0_1049_6732">
<rect width="31.25" height="25" fill="white" transform="translate(0 3)"/>
</clipPath>
</defs>
</svg>
