<svg width="28" height="28" viewBox="0 0 28 28" fill="none" xmlns="http://www.w3.org/2000/svg">
<path d="M8.17775 21.3498L3.5 25.0248V5.5998C3.5 5.32133 3.61062 5.05426 3.80754 4.85734C4.00445 4.66043 4.27152 4.5498 4.55 4.5498H23.45C23.7285 4.5498 23.9955 4.66043 24.1925 4.85734C24.3894 5.05426 24.5 5.32133 24.5 5.5998V20.2998C24.5 20.5783 24.3894 20.8454 24.1925 21.0423C23.9955 21.2392 23.7285 21.3498 23.45 21.3498H8.17775ZM7.45115 19.2498H22.4V6.6498H5.6V20.7041L7.45115 19.2498ZM9.8 11.8998H18.2V13.9998H9.8V11.8998Z" fill="white"/>
</svg>
