<svg width="6" height="9" viewBox="0 0 6 9" fill="none" xmlns="http://www.w3.org/2000/svg">
<path d="M1.51637 5.54082C1.55738 5.90488 1.88105 6.20332 2.23401 6.20332H3.51989C3.87285 6.20332 4.19652 5.90488 4.23753 5.54082L4.40888 4.03145C4.44989 3.66738 4.44989 3.07207 4.40888 2.70645L4.23753 1.19707C4.19505 0.833008 3.87139 0.536133 3.51843 0.536133H2.23254C1.87958 0.536133 1.55592 0.83457 1.51491 1.19863L1.34502 2.70645C1.30401 3.07051 1.30401 3.66738 1.34502 4.03145L1.51637 5.54082ZM5.37402 3.20332H4.75012C4.75598 3.50801 4.74573 3.83145 4.7179 4.07207L4.54655 5.58145C4.4865 6.11738 4.03542 6.53613 3.51843 6.53613H2.23254C1.71702 6.53613 1.26593 6.11582 1.20442 5.58145L1.03307 4.07207C1.00524 3.83145 0.99499 3.50801 1.00085 3.20332H0.376946C0.371088 3.53613 0.382804 3.88457 0.41356 4.15176L0.584914 5.66113C0.683039 6.5252 1.40653 7.20176 2.23254 7.20176H2.56353V7.86895H1.62622V8.53613H4.12622V7.86895H3.1889V7.20176H3.51989C4.34737 7.20176 5.07086 6.52363 5.16752 5.65957L5.33887 4.14863C5.36817 3.88301 5.37988 3.53457 5.37402 3.20332Z" fill="#375DFB"/>
</svg>
