<svg width="149" height="148" viewBox="0 0 149 148" fill="none" xmlns="http://www.w3.org/2000/svg">
<rect x="1" width="148" height="148" rx="74" fill="#F6F8FA"/>
<path d="M137 122.81C137 122.81 130.994 121.02 129.19 127C130.994 121.02 125 119.19 125 119.19C125 119.19 131.006 120.98 132.81 115C131.006 120.98 137 122.81 137 122.81Z" fill="white" stroke="#868C98" stroke-linecap="round" stroke-linejoin="round"/>
<path d="M12.1499 41.0001C12.1499 41.0001 7.0205 47.0177 13 52.1499C7.02039 47.0176 1.85024 53 1.85024 53C1.85024 53 6.97961 46.9824 1 41.8501C6.97961 46.9824 12.1499 41.0001 12.1499 41.0001Z" fill="white" stroke="#868C98" stroke-linecap="round" stroke-linejoin="round"/>
<g clip-path="url(#clip0_1859_7269)">
<path d="M117.901 71.6572C115.842 62.9912 110.031 56.4004 102.893 54.0596C108.355 50.8721 110.197 43.8828 107.01 38.4209C103.822 32.959 96.8332 31.1162 91.3712 34.3037C87.1711 36.7607 84.9796 41.5918 85.9093 46.373C83.3361 40.6123 76.5627 38.0391 70.8019 40.6123C68.2453 41.7578 66.1867 43.7998 65.0412 46.373C66.2531 40.1807 62.2189 34.1709 56.0265 32.9424C49.8341 31.7139 43.841 35.7812 42.6291 41.9736C41.6828 46.7549 43.8908 51.6025 48.091 54.0596C40.9523 56.4004 35.1418 62.9912 33.0832 71.6572C32.8507 72.6533 33.0666 73.6992 33.6974 74.4961C38.4953 80.7715 45.9494 84.457 53.8351 84.4238C54.4328 84.4238 55.0138 84.4072 55.6115 84.3574C51.0128 95.3311 56.1925 107.965 67.1828 112.563C78.173 117.162 90.7902 111.982 95.3888 100.992C97.6134 95.6631 97.6134 89.6699 95.3888 84.3574C95.9699 84.3906 96.5675 84.4238 97.1652 84.4238C105.068 84.457 112.522 80.7715 117.319 74.4961C117.917 73.6992 118.15 72.6533 117.901 71.6572ZM97.1486 35.25C102.079 35.25 106.08 39.251 106.08 44.1816C106.08 49.1123 102.079 53.1133 97.1486 53.1133C92.2179 53.1133 88.2169 49.1123 88.2169 44.1816C88.2336 39.251 92.2179 35.2666 97.1486 35.25ZM86.9386 51.0547C86.9386 50.3076 86.8722 49.5771 86.7228 48.8467C87.7023 51.0215 89.3459 52.8311 91.4044 54.043C88.964 54.8564 86.7062 56.1182 84.7472 57.7617C86.1584 55.8193 86.9386 53.4785 86.9386 51.0547ZM93.6623 79.8584C93.5128 80.041 93.3634 80.2402 93.214 80.4229C89.8937 75.625 84.7804 72.3877 79.0363 71.4248C78.2062 71.292 77.3595 71.1924 76.5294 71.1592C76.1974 71.1426 75.8488 71.1426 75.5168 71.1426C75.1847 71.1426 74.8361 71.1426 74.5041 71.1592C73.6574 71.1924 72.8273 71.292 71.9972 71.4248C66.2531 72.3877 61.1398 75.625 57.8195 80.4229C57.6701 80.2402 57.5041 80.041 57.3712 79.8584C57.2052 79.6426 57.1388 79.3769 57.2052 79.1113C58.8654 72.1055 63.1984 66.627 68.6437 64.0703C69.424 63.7051 70.2209 63.4062 71.0343 63.1572C73.9728 62.2939 77.0939 62.2939 80.0324 63.1572C80.8459 63.4062 81.6593 63.7051 82.423 64.0703C84.0998 64.8672 85.6437 65.8965 87.005 67.1416C90.2423 70.0635 92.6994 74.2139 93.8615 79.1113C93.8781 79.3769 93.8283 79.6426 93.6623 79.8584ZM68.9591 60.418C69.2082 60.6006 69.4738 60.7666 69.756 60.9326C69.6564 60.9658 69.5734 60.999 69.4738 61.0322C69.2912 60.8164 69.1252 60.6172 68.9591 60.418ZM81.2609 60.9326C81.5265 60.7666 81.7921 60.6006 82.0578 60.418C81.8918 60.6172 81.7091 60.8164 81.5431 61.0156C81.4435 60.999 81.3439 60.9658 81.2609 60.9326ZM75.5002 42.123C80.4308 42.123 84.4318 46.124 84.4318 51.0547C84.4318 55.9854 80.4308 59.9863 75.5002 59.9863C70.5695 59.9863 66.5685 55.9854 66.5685 51.0547C66.5685 46.124 70.5695 42.123 75.5002 42.123ZM66.2697 57.7783C64.3107 56.1348 62.0363 54.873 59.6125 54.0596C61.6711 52.8477 63.3146 51.0381 64.2941 48.8633C64.1447 49.5938 64.0783 50.3242 64.0783 51.0547C64.0617 53.4785 64.8253 55.8359 66.2697 57.7783ZM44.9201 44.1816C44.9201 39.251 48.9211 35.25 53.8517 35.25C58.7824 35.25 62.7834 39.251 62.7834 44.1816C62.7834 49.1123 58.7824 53.1133 53.8517 53.1133C48.9211 53.1133 44.9201 49.1123 44.9201 44.1816ZM53.8517 81.9336C46.7296 81.9668 40.006 78.6465 35.6896 72.9853C35.5236 72.7695 35.4572 72.5039 35.5236 72.2383C37.8478 62.46 45.3683 55.6367 53.8517 55.6367C58.0851 55.6367 62.0861 57.3467 65.3234 60.2686C65.9377 60.8164 66.5187 61.4141 67.05 62.0449C61.173 65.0166 56.5246 70.9766 54.7316 78.5303C54.4992 79.5264 54.715 80.5723 55.3459 81.3691C55.4787 81.5352 55.5949 81.6846 55.7277 81.8506C55.1134 81.917 54.4826 81.9336 53.8517 81.9336ZM75.5002 111.75C64.9748 111.75 56.4582 103.233 56.4416 92.708C56.4416 89.9023 57.0558 87.1133 58.2677 84.5732C58.3507 84.374 58.4503 84.1914 58.55 84.0088C58.8488 83.4277 59.1808 82.8633 59.5294 82.332C59.8283 81.8672 60.1603 81.4189 60.4923 80.9707C63.132 77.584 66.8507 75.1934 71.0343 74.1807C72.1632 73.915 73.3087 73.749 74.4709 73.6826C74.8195 73.666 75.1515 73.6494 75.5002 73.6494C75.8488 73.6494 76.1808 73.666 76.5294 73.6826C77.6916 73.749 78.8371 73.915 79.966 74.1807C84.1496 75.1934 87.8517 77.584 90.508 80.9707C90.8566 81.4189 91.172 81.8672 91.4709 82.332C91.8195 82.8799 92.1515 83.4443 92.4503 84.0088C92.55 84.1914 92.633 84.3906 92.7326 84.5732C97.215 94.0859 93.1476 105.441 83.6349 109.924C81.0949 111.119 78.3058 111.75 75.5002 111.75ZM115.311 72.9853C110.994 78.6465 104.271 81.9668 97.1486 81.9336C96.5177 81.9336 95.8869 81.917 95.256 81.8506C95.3888 81.6846 95.505 81.5352 95.6378 81.3691C96.0861 80.7715 96.3351 80.0576 96.3351 79.3105C96.3351 79.0449 96.3019 78.7793 96.2355 78.5303C94.4425 70.9766 89.8107 65 83.9171 62.0449C87.3869 58.0439 92.0851 55.6367 97.132 55.6367C105.599 55.6367 113.136 62.46 115.46 72.2383C115.543 72.5039 115.477 72.7695 115.311 72.9853Z" fill="#868C98"/>
<path d="M84.7971 100.229L77.26 92.6914L84.7971 85.1543C85.262 84.6563 85.2454 83.8594 84.7307 83.3779C84.2493 82.9297 83.5022 82.9297 83.0208 83.3779L75.5002 90.9316L67.9631 83.3945C67.4485 82.9297 66.6682 82.9629 66.1868 83.4609C65.7385 83.9424 65.7385 84.6895 66.1868 85.1709L73.7239 92.708L66.2034 100.229C65.7219 100.71 65.7219 101.507 66.2034 102.005C66.6848 102.503 67.4817 102.486 67.9797 102.005L75.5002 94.4678L83.0374 102.005C83.552 102.47 84.3489 102.42 84.8137 101.905C85.2288 101.424 85.2288 100.693 84.7971 100.229Z" fill="#868C98"/>
</g>
<defs>
<clipPath id="clip0_1859_7269">
<rect width="85" height="85" fill="white" transform="translate(33 31)"/>
</clipPath>
</defs>
</svg>
