<svg width="149" height="148" viewBox="0 0 149 148" fill="none" xmlns="http://www.w3.org/2000/svg">
<rect x="1" width="148" height="148" rx="74" fill="#F6F8FA"/>
<path d="M137 122.81C137 122.81 130.994 121.02 129.19 127C130.994 121.02 125 119.19 125 119.19C125 119.19 131.006 120.98 132.81 115C131.006 120.98 137 122.81 137 122.81Z" fill="white" stroke="#868C98" stroke-linecap="round" stroke-linejoin="round"/>
<path d="M12.1499 41.0001C12.1499 41.0001 7.0205 47.0177 13 52.1499C7.02039 47.0176 1.85024 53 1.85024 53C1.85024 53 6.97961 46.9824 1 41.8501C6.97961 46.9824 12.1499 41.0001 12.1499 41.0001Z" fill="white" stroke="#868C98" stroke-linecap="round" stroke-linejoin="round"/>
<path d="M79.833 59.4053L81.9746 57.2637C82.5557 56.6826 82.8711 55.9189 82.8711 55.0889C82.8711 54.2588 82.5557 53.4951 81.9746 52.9141C81.3936 52.333 80.6299 52.0176 79.7998 52.0176C78.9697 52.0176 78.2061 52.333 77.625 52.9141L75.5 55.0723L73.3584 52.9307C72.7773 52.3496 72.0137 52.0342 71.1836 52.0342C70.3535 52.0342 69.5898 52.3496 69.0088 52.9307C68.4277 53.5117 68.1123 54.2754 68.1123 55.1055C68.1123 55.9355 68.4277 56.6992 69.0088 57.2803L71.1504 59.4219L69.0254 61.5469C68.4443 62.1279 68.1289 62.8916 68.1289 63.7217C68.1289 64.5518 68.4443 65.3154 69.0254 65.8965C69.6064 66.4775 70.3701 66.793 71.2002 66.793C72.0303 66.793 72.7939 66.4775 73.375 65.8965L75.5166 63.7549L77.6582 65.8965C78.2393 66.4775 79.0029 66.793 79.833 66.793C80.6631 66.793 81.4268 66.4775 82.0078 65.8965C82.5889 65.3154 82.9043 64.5518 82.9043 63.7217C82.9043 62.8916 82.5889 62.1279 82.0078 61.5469L79.833 59.4053ZM80.7959 64.7012C80.248 65.249 79.3516 65.249 78.8037 64.7012L75.4834 61.3809L72.1631 64.7012C71.6152 65.249 70.7187 65.249 70.1709 64.7012C69.623 64.1533 69.623 63.2568 70.1709 62.709L73.4912 59.3887L70.1709 56.0684C69.623 55.5205 69.623 54.624 70.1709 54.0762C70.7187 53.5283 71.6152 53.5283 72.1631 54.0762L75.4834 57.3965L78.8037 54.0762C79.3516 53.5283 80.248 53.5283 80.7959 54.0762C81.3437 54.624 81.3437 55.5205 80.7959 56.0684L77.4756 59.3887L80.7959 62.709C81.3437 63.2734 81.3437 64.1533 80.7959 64.7012ZM75.5 43.6836C66.834 43.6836 59.7783 50.7393 59.7783 59.4053C59.7783 68.0713 66.834 75.127 75.5 75.127C84.166 75.127 91.2217 68.0713 91.2217 59.4053C91.2217 50.7393 84.166 43.6836 75.5 43.6836ZM75.5 73.4668C67.7305 73.4668 61.4385 67.1748 61.4385 59.4053C61.4385 51.6357 67.7305 45.3438 75.5 45.3438C83.2695 45.3438 89.5615 51.6357 89.5615 59.4053C89.5615 67.1748 83.2695 73.4668 75.5 73.4668ZM116.041 67.2412L109.998 61.2148V50.4736C109.998 44.9121 105.466 40.3799 99.9043 40.3799H89.0967L82.6221 33.9385C80.7295 32.0459 78.1895 31 75.5 31C72.8105 31 70.2871 32.0459 68.3779 33.9385L61.9199 40.3799H51.1787C45.6172 40.3799 41.085 44.9121 41.085 50.4736V61.1484L34.9756 67.2246C34.6602 67.54 34.4941 67.9551 34.4941 68.4033V105.89C34.4941 111.451 39.0264 115.983 44.5879 115.983H106.445C112.007 115.983 116.539 111.451 116.539 105.89V68.4199C116.522 67.9717 116.34 67.5566 116.041 67.2412ZM113.684 67.2412L109.998 70.9268V63.5557L113.684 67.2412ZM69.54 35.1172C72.8271 31.8301 78.1562 31.8301 81.4434 35.1172L86.7393 40.3799H64.2607L69.54 35.1172ZM51.1621 42.0566H99.9043C104.569 42.0566 108.338 45.8418 108.338 50.4902V72.6035L91.9355 89.0059L82.6387 79.709C80.7295 77.7998 78.1895 76.7539 75.5 76.7539C72.8105 76.7539 70.2705 77.7998 68.3613 79.709L59.0146 89.0557L42.7285 72.7695V50.4902C42.7285 45.8252 46.5137 42.0566 51.1621 42.0566ZM41.0684 71.1094L37.3164 67.3408C37.2998 67.3242 37.2832 67.3076 37.2666 67.291L41.085 63.4893V71.1094H41.0684ZM36.1377 68.5195L57.8525 90.2344L37.5322 110.538C36.6523 109.21 36.1377 107.616 36.1377 105.89V68.5195ZM106.429 114.34H44.5713C42.2305 114.34 40.1055 113.377 38.5781 111.85L69.5234 80.9043C72.8105 77.6172 78.1562 77.6172 81.46 80.9043L112.422 111.85C110.895 113.377 108.77 114.34 106.429 114.34ZM114.862 105.906C114.862 107.616 114.348 109.21 113.468 110.555L93.0977 90.1846L114.862 68.4199V105.906Z" fill="#868C98"/>
</svg>
