<svg width="149" height="148" viewBox="0 0 149 148" fill="none" xmlns="http://www.w3.org/2000/svg">
<rect x="1" width="148" height="148" rx="74" fill="#F6F8FA"/>
<path d="M137 122.81C137 122.81 130.994 121.02 129.19 127C130.994 121.02 125 119.19 125 119.19C125 119.19 131.006 120.98 132.81 115C131.006 120.98 137 122.81 137 122.81Z" fill="white" stroke="#868C98" stroke-linecap="round" stroke-linejoin="round"/>
<path d="M12.1499 41.0001C12.1499 41.0001 7.0205 47.0177 13 52.1499C7.02039 47.0176 1.85024 53 1.85024 53C1.85024 53 6.97961 46.9824 1 41.8501C6.97961 46.9824 12.1499 41.0001 12.1499 41.0001Z" fill="white" stroke="#868C98" stroke-linecap="round" stroke-linejoin="round"/>
<path d="M41.7834 36.2745L25.5291 98.7656C24.6522 102.137 26.6742 105.58 30.0454 106.457L108.296 126.811C111.668 127.688 115.111 125.666 115.988 122.295L132.242 59.8034C133.119 56.4323 131.097 52.9886 127.726 52.1117L49.4751 31.7582C46.1039 30.8813 42.6603 32.9034 41.7834 36.2745Z" fill="#E2E4E9" stroke="#868C98" stroke-linecap="round" stroke-linejoin="round"/>
<path d="M59.9192 24.5336C59.9317 25.2659 59.8444 26.0362 59.6412 26.8171C59.1488 28.7228 58.0701 30.2363 56.8532 31.1238C56.2457 31.5693 55.6113 31.8593 55.0003 31.9984C54.3868 32.1368 53.8003 32.1336 53.2118 31.9819C51.8602 31.6303 50.4795 32.441 50.128 33.7926C49.7764 35.1442 50.5871 36.5249 51.9387 36.8764C53.3415 37.2427 54.7808 37.2376 56.1257 36.929C58.1485 36.465 59.9591 35.3488 61.4067 33.8198C62.8548 32.2877 63.9528 30.3278 64.5356 28.0903C64.8537 26.8675 64.996 25.6412 64.9758 24.4476C64.9521 23.0512 63.8008 21.9385 62.4045 21.9623C61.0082 21.986 59.8955 23.1372 59.9192 24.5336Z" fill="#868C98"/>
<path d="M87.0204 31.988C87.0003 32.5974 86.9116 33.2286 86.7456 33.8669C86.2532 35.7726 85.1745 37.2861 83.9576 38.1735C83.3502 38.6191 82.7158 38.9091 82.1048 39.0482C81.4912 39.1865 80.9047 39.1834 80.3163 39.0317C78.9647 38.6802 77.584 39.4908 77.2324 40.8424C76.8809 42.194 77.6916 43.5747 79.0432 43.9263C80.446 44.2926 81.8853 44.2874 83.2301 43.9788C85.253 43.5148 87.0636 42.3986 88.5112 40.8697C89.9593 39.3376 91.0573 37.3777 91.6402 35.1401C91.9002 34.1406 92.0427 33.1386 92.0751 32.1543C92.121 30.7585 91.0267 29.5898 89.6309 29.5439C88.2351 29.498 87.0663 30.5922 87.0204 31.988Z" fill="#868C98"/>
<path d="M114.105 38.1564C114.172 39.0275 114.097 39.9645 113.849 40.917C113.357 42.8227 112.278 44.3362 111.061 45.2236C110.454 45.6692 109.819 45.9592 109.208 46.0983C108.595 46.2366 108.008 46.2334 107.42 46.0818C106.068 45.7303 104.688 46.5409 104.336 47.8925C103.984 49.2441 104.795 50.6248 106.147 50.9764C107.549 51.3427 108.989 51.3375 110.334 51.0289C112.357 50.5649 114.167 49.4487 115.615 47.9198C117.063 46.3877 118.161 44.4278 118.744 42.1902C119.132 40.6985 119.258 39.2021 119.147 37.7655C119.039 36.3731 117.823 35.3319 116.43 35.4398C115.038 35.5478 113.997 36.764 114.105 38.1564Z" fill="#868C98"/>
<path d="M125.623 50.4965L109.369 112.988C108.492 116.36 105.049 118.381 101.677 117.504L23.4216 97.1491C20.054 96.2731 18.0328 92.8308 18.9099 89.4586L35.1642 26.9674C36.0414 23.5953 39.4838 21.574 42.8513 22.4499L121.107 42.8047C124.479 43.6818 126.5 47.1243 125.623 50.4965Z" fill="white" stroke="#868C98" stroke-linecap="round" stroke-linejoin="round"/>
<path d="M125.624 50.4964L122.901 60.963L32.4424 37.4341L35.1648 26.9674C36.042 23.5953 39.4844 21.574 42.8519 22.4499L121.107 42.8047C124.48 43.6818 126.501 47.1242 125.624 50.4964Z" fill="#CDD0D5" stroke="#868C98" stroke-linecap="round" stroke-linejoin="round"/>
<path d="M53.2122 31.9818C52.6244 31.8276 52.1107 31.5446 51.6424 31.1248C50.9441 30.4987 50.3633 29.5383 50.0622 28.3491C49.7601 27.1628 49.7419 25.7673 50.1143 24.339C50.6067 22.4333 51.6854 20.9198 52.9022 20.0323C53.5097 19.5868 54.1441 19.2968 54.7551 19.1577C55.3686 19.0194 55.9551 19.0225 56.5436 19.1742C57.0117 19.2966 57.4303 19.5011 57.8197 19.7902C58.401 20.2225 58.9164 20.8582 59.2937 21.6725C59.6706 22.4845 59.9021 23.4679 59.9196 24.5334C59.9433 25.9298 61.0945 27.0425 62.4909 27.0188C63.8872 26.9951 65 25.8439 64.9762 24.4475C64.9351 22.1337 64.2914 19.935 63.0821 18.1148C62.477 17.2063 61.7269 16.3941 60.8404 15.734C59.9551 15.0739 58.9316 14.569 57.8166 14.2797C56.4139 13.9134 54.9746 13.9185 53.6297 14.2271C51.6068 14.6911 49.7962 15.8073 48.3486 17.3363C46.9005 18.8684 45.8025 20.8283 45.2196 23.0658C44.4466 26.0501 44.7052 29.0482 45.8517 31.5627C46.4266 32.8187 47.2305 33.9568 48.2571 34.8822C49.2812 35.8069 50.5356 36.5127 51.9391 36.8764C53.2906 37.2279 54.6713 36.4173 55.0229 35.0657C55.3745 33.7141 54.5638 32.3334 53.2122 31.9818Z" fill="#868C98"/>
<path d="M80.3157 39.0316C79.7279 38.8773 79.2141 38.5943 78.7459 38.1745C78.0476 37.5485 77.4667 36.588 77.1657 35.3988C76.8636 34.2125 76.8454 32.817 77.2177 31.3887C77.7101 29.4831 78.7889 27.9695 80.0057 27.0821C80.6132 26.6365 81.2476 26.3466 81.8586 26.2075C82.4721 26.0691 83.0586 26.0723 83.6471 26.224C84.1371 26.3522 84.5734 26.5703 84.9779 26.8815C85.5816 27.3465 86.1121 28.0365 86.4831 28.9166C86.854 29.7942 87.0578 30.8527 87.0199 31.988C86.974 33.3838 88.0683 34.5526 89.4641 34.5985C90.86 34.6443 92.0286 33.55 92.0745 32.1542C92.1528 29.7095 91.5621 27.3676 90.3528 25.4239C89.7475 24.4537 88.9831 23.5843 88.068 22.878C87.1545 22.1717 86.0877 21.6324 84.9202 21.3295C83.5174 20.9632 82.0781 20.9683 80.7332 21.2769C78.7103 21.7409 76.8997 22.8571 75.4521 24.3861C74.004 25.9182 72.906 27.8781 72.3231 30.1156C71.5502 33.0999 71.8088 36.098 72.9552 38.6125C73.5301 39.8685 74.334 41.0066 75.3606 41.932C76.3847 42.8568 77.6391 43.5626 79.0426 43.9262C80.3941 44.2777 81.7748 43.4671 82.1264 42.1155C82.478 40.7639 81.6673 39.3832 80.3157 39.0316Z" fill="#868C98"/>
<path d="M107.42 46.0819C106.832 45.9276 106.319 45.6446 105.85 45.2248C105.152 44.5988 104.571 43.6384 104.27 42.4491C103.968 41.2628 103.95 39.8673 104.322 38.439C104.815 36.5334 105.893 35.0198 107.11 34.1324C107.718 33.6868 108.352 33.3969 108.963 33.2578C109.576 33.1194 110.163 33.1226 110.751 33.2743C111.193 33.3897 111.59 33.5784 111.961 33.842C112.515 34.2363 113.011 34.8096 113.391 35.547C113.771 36.2823 114.03 37.1764 114.105 38.1565C114.213 39.5489 115.429 40.5902 116.822 40.4822C118.214 40.3743 119.255 39.158 119.147 37.7656C118.979 35.612 118.281 33.5837 117.079 31.9098C116.477 31.0743 115.747 30.3295 114.896 29.7234C114.047 29.1174 113.076 28.6528 112.025 28.3798C110.622 28.0135 109.183 28.0186 107.838 28.3272C105.815 28.7912 104.004 29.9074 102.557 31.4364C101.108 32.9685 100.01 34.9284 99.4276 37.1659C98.6546 40.1502 98.9133 43.1483 100.06 45.6627C100.635 46.9188 101.439 48.0569 102.465 48.9822C103.489 49.907 104.744 50.6128 106.147 50.9765C107.499 51.328 108.879 50.5173 109.231 49.1657C109.583 47.8141 108.772 46.4335 107.42 46.0819Z" fill="#868C98"/>
<path d="M74.1184 134.316L32.283 123.326C32.1666 123.295 32.0588 123.259 31.951 123.224C31.9424 123.229 31.9355 123.227 31.9304 123.218C31.7967 123.198 31.6666 123.164 31.5365 123.129C27.1529 121.978 24.537 117.498 25.6886 113.114C26.3868 110.457 28.3121 108.451 30.6986 107.533C32.2378 106.942 33.9776 106.813 35.7037 107.267L77.9867 112.4C72.6335 111.901 67.5616 115.321 66.1528 120.684C64.5874 126.643 68.1527 132.748 74.1184 134.316Z" fill="#CDD0D5" stroke="#868C98" stroke-linecap="round" stroke-linejoin="round"/>
<g clip-path="url(#clip0_1797_22482)">
<path d="M65.8314 62.5284L81.2174 66.651C81.5089 66.7291 81.7574 66.9198 81.9083 67.1811C82.0591 67.4425 82.1 67.753 82.0219 68.0445L76.3848 89.0826C76.3586 89.1809 76.3065 89.2704 76.234 89.3417C76.1614 89.413 76.0711 89.4636 75.9724 89.4881C75.8737 89.5127 75.7702 89.5103 75.6727 89.4813C75.5752 89.4522 75.4873 89.3976 75.4181 89.323L68.804 82.2066L59.5181 85.0615C59.421 85.0914 59.3176 85.0948 59.2187 85.0713C59.1199 85.0478 59.0291 84.9982 58.9559 84.9277C58.8827 84.8572 58.8297 84.7684 58.8024 84.6705C58.7751 84.5726 58.7746 84.4692 58.8008 84.371L64.4379 63.3329C64.516 63.0414 64.7067 62.7929 64.9681 62.642C65.2294 62.4911 65.5399 62.4503 65.8314 62.5284ZM79.5294 68.5545L66.3415 65.0208L61.7971 81.9806L69.4986 79.6141L74.9851 85.5143L79.5294 68.5545Z" fill="#868C98"/>
</g>
<defs>
<clipPath id="clip0_1797_22482">
<rect width="30.3405" height="30.3405" fill="white" transform="translate(59.8525 57) rotate(15)"/>
</clipPath>
</defs>
</svg>
