<svg width="30" height="31" viewBox="0 0 30 31" fill="none" xmlns="http://www.w3.org/2000/svg">
<path opacity="0.4" d="M3.9707 12.3486V25.7415C3.9707 27.0463 5.02933 28.1049 6.33415 28.1049H23.6661C24.9709 28.1049 26.0295 27.0463 26.0295 25.7415V12.3486H3.9707ZM7.12196 16.2877C7.12196 15.8544 7.47648 15.4999 7.90978 15.4999H12.6367C13.07 15.4999 13.4245 15.8544 13.4245 16.2877V21.0146C13.4245 21.4479 13.07 21.8024 12.6367 21.8024H7.90978C7.47648 21.8024 7.12196 21.4479 7.12196 21.0146V16.2877Z" fill="#375DFB"/>
<path d="M8.69759 4.47065C8.69759 3.59913 9.4017 2.89502 10.2732 2.89502C11.1447 2.89502 11.8489 3.59913 11.8489 4.47065V6.04628H18.1514V4.47065C18.1514 3.59913 18.8555 2.89502 19.727 2.89502C20.5985 2.89502 21.3026 3.59913 21.3026 4.47065V6.04628H23.6661C24.9709 6.04628 26.0295 7.10491 26.0295 8.40973V12.3488H3.9707V8.40973C3.9707 7.10491 5.02933 6.04628 6.33415 6.04628H8.69759V4.47065Z" fill="#375DFB"/>
</svg>
