<svg width="96" height="35" viewBox="0 0 96 35" fill="none" xmlns="http://www.w3.org/2000/svg">
<path d="M0.568726 27.1836C0.979288 27.0972 1.72838 27.0251 2.46307 27.0251C3.41385 27.0251 4.01168 27.1548 4.48707 27.4789C4.92644 27.7454 5.22176 28.2064 5.22176 28.8187C5.22176 29.4741 4.8112 30.0647 4.04049 30.3457V30.3745C4.78959 30.5689 5.47386 31.1524 5.47386 32.1248C5.47386 32.7586 5.20015 33.2556 4.79679 33.6013C4.29259 34.0335 3.45706 34.2568 2.15335 34.2568C1.44027 34.2568 0.900057 34.2064 0.561523 34.1632V27.1836H0.568726ZM1.85803 29.9855H2.5207C3.42825 29.9855 3.92525 29.5677 3.92525 28.9627C3.92525 28.2856 3.42105 27.9831 2.59993 27.9831C2.21818 27.9831 2.00209 28.0047 1.85803 28.0335V29.9855ZM1.85803 33.2484C2.0309 33.2772 2.24699 33.2772 2.5423 33.2772C3.37783 33.2772 4.12693 32.9675 4.12693 32.0959C4.12693 31.2244 3.39944 30.9219 2.49909 30.9219H1.85803V33.2412V33.2484Z" fill="#040404"/>
<path d="M10.0333 27.0754V31.2171C10.0333 32.6072 10.6168 33.2483 11.4883 33.2483C12.4247 33.2483 12.9865 32.6072 12.9865 31.2171V27.0754H14.283V31.1378C14.283 33.3275 13.1522 34.2999 11.4451 34.2999C9.73801 34.2999 8.73682 33.3851 8.73682 31.145V27.0754H10.0333Z" fill="#040404"/>
<path d="M17.8555 32.7727C18.2661 33.0175 18.9071 33.2264 19.577 33.2264C20.3981 33.2264 20.8663 32.8375 20.8663 32.254C20.8663 31.7138 20.5061 31.3969 19.613 31.0728C18.4317 30.655 17.6826 30.0284 17.6826 29.0056C17.6826 27.8315 18.655 26.96 20.2036 26.96C20.9743 26.96 21.5289 27.1256 21.9035 27.3201L21.5938 28.3645C21.3273 28.2277 20.8375 28.026 20.1676 28.026C19.3465 28.026 19.0007 28.4582 19.0007 28.8831C19.0007 29.4305 19.4113 29.6826 20.3621 30.05C21.5938 30.511 22.1844 31.1376 22.1844 32.1604C22.1844 33.3057 21.3201 34.2997 19.4977 34.2997C18.7414 34.2997 17.9563 34.0908 17.5674 33.8459L17.8627 32.7727H17.8555Z" fill="#040404"/>
<path d="M26.7511 27.0754V34.1846H25.4546V27.0754H26.7511Z" fill="#040404"/>
<path d="M30.3379 34.1846V27.0754H31.8289L33.6656 30.1222C34.1266 30.9146 34.5516 31.7357 34.8757 32.5064H34.8973C34.8037 31.5556 34.782 30.6408 34.782 29.5532V27.0754H35.9849V34.1846H34.638L32.7797 31.0514C32.3259 30.2735 31.8649 29.4092 31.5192 28.6024L31.4759 28.6168C31.5264 29.5316 31.548 30.4752 31.548 31.642V34.1846H30.3451H30.3379Z" fill="#040404"/>
<path d="M43.5551 31.0298H40.8756V33.1186H43.872V34.1846H39.5791V27.0754H43.7135V28.1415H40.8756V29.9782H43.5551V31.0298Z" fill="#040404"/>
<path d="M47.0918 32.7727C47.5024 33.0175 48.1434 33.2264 48.8133 33.2264C49.6344 33.2264 50.1026 32.8375 50.1026 32.254C50.1026 31.7138 49.7425 31.3969 48.8493 31.0728C47.668 30.655 46.919 30.0284 46.919 29.0056C46.919 27.8315 47.8913 26.96 49.4399 26.96C50.2107 26.96 50.7653 27.1256 51.1398 27.3201L50.8301 28.3645C50.5636 28.2277 50.0738 28.026 49.4039 28.026C48.5828 28.026 48.2371 28.4582 48.2371 28.8831C48.2371 29.4305 48.6476 29.6826 49.5984 30.05C50.8301 30.511 51.4207 31.1376 51.4207 32.1604C51.4207 33.3057 50.5564 34.2997 48.7341 34.2997C47.9778 34.2997 47.1927 34.0908 46.8037 33.8459L47.099 32.7727H47.0918Z" fill="#040404"/>
<path d="M54.669 32.7727C55.0795 33.0175 55.7206 33.2264 56.3905 33.2264C57.2116 33.2264 57.6798 32.8375 57.6798 32.254C57.6798 31.7138 57.3196 31.3969 56.4265 31.0728C55.2452 30.655 54.4961 30.0284 54.4961 29.0056C54.4961 27.8315 55.4685 26.96 57.0171 26.96C57.7878 26.96 58.3424 27.1256 58.717 27.3201L58.4072 28.3645C58.1407 28.2277 57.6509 28.026 56.9811 28.026C56.16 28.026 55.8142 28.4582 55.8142 28.8831C55.8142 29.4305 56.2248 29.6826 57.1756 30.05C58.4072 30.511 58.9979 31.1376 58.9979 32.1604C58.9979 33.3057 58.1335 34.2997 56.3112 34.2997C55.5549 34.2997 54.7698 34.0908 54.3809 33.8459L54.6762 32.7727H54.669Z" fill="#040404"/>
<path d="M71.6534 33.9827C71.3436 34.134 70.6738 34.2997 69.8094 34.2997C67.5549 34.2997 66.1792 32.8879 66.1792 30.7126C66.1792 28.3717 67.8142 26.96 69.9895 26.96C70.8466 26.96 71.4445 27.14 71.711 27.2769L71.4373 28.3069C71.0987 28.1556 70.6234 28.0332 70.0471 28.0332C68.5994 28.0332 67.5621 28.9407 67.5621 30.6478C67.5621 32.218 68.4697 33.212 70.0399 33.212C70.5585 33.212 71.1059 33.104 71.4517 32.9599L71.6606 33.9827H71.6534Z" fill="#040404"/>
<path d="M74.8657 27.0754H76.1622V33.097H79.0794V34.1846H74.8657V27.0754Z" fill="#040404"/>
<path d="M83.1134 27.0754V31.2171C83.1134 32.6072 83.6968 33.2483 84.5684 33.2483C85.5048 33.2483 86.0666 32.6072 86.0666 31.2171V27.0754H87.3631V31.1378C87.3631 33.3275 86.2322 34.2999 84.5252 34.2999C82.8181 34.2999 81.8169 33.3851 81.8169 31.145V27.0754H83.1134Z" fill="#040404"/>
<path d="M90.9496 27.1834C91.3601 27.0969 92.1092 27.0249 92.8439 27.0249C93.7947 27.0249 94.3925 27.1546 94.8679 27.4787C95.3073 27.7452 95.6026 28.2062 95.6026 28.8184C95.6026 29.4739 95.1921 30.0645 94.4214 30.3454V30.3742C95.1704 30.5687 95.8547 31.1521 95.8547 32.1245C95.8547 32.7584 95.581 33.2554 95.1777 33.6011C94.6735 34.0333 93.8379 34.2566 92.5342 34.2566C91.8211 34.2566 91.2809 34.2061 90.9424 34.1629V27.1834H90.9496ZM92.2389 29.9853H92.9016C93.8091 29.9853 94.3061 29.5675 94.3061 28.9625C94.3061 28.2854 93.8019 27.9829 92.9808 27.9829C92.599 27.9829 92.3829 28.0045 92.2389 28.0333V29.9853ZM92.2389 33.2482C92.4118 33.277 92.6278 33.277 92.9232 33.277C93.7587 33.277 94.5078 32.9672 94.5078 32.0957C94.5078 31.2242 93.7803 30.9216 92.8799 30.9216H92.2389V33.241V33.2482Z" fill="#040404"/>
<path fill-rule="evenodd" clip-rule="evenodd" d="M32.852 0.950684C39.8028 0.950684 45.4282 6.34561 45.4282 12.9938C45.4282 19.6421 39.8028 25.037 32.852 25.037C25.9013 25.037 20.2759 19.6493 20.2759 12.9938C20.2759 6.33841 25.9013 0.950684 32.852 0.950684Z" fill="#DF1E26"/>
<path d="M83.1783 23.1424C83.3152 23.056 83.452 22.9768 83.5889 22.8903C83.5961 22.8903 83.6033 22.8759 83.6177 22.8759C84.5108 22.2853 85.3248 21.5866 86.0306 20.8087C86.0306 20.8087 86.0378 20.8015 86.0451 20.7943C86.1819 20.643 86.3188 20.4846 86.4484 20.3189C86.4484 20.3189 86.4484 20.3189 86.4556 20.3117C87.1039 19.5122 87.6513 18.6407 88.0763 17.7115C88.0907 17.6827 88.1051 17.6539 88.1195 17.6251C88.1843 17.4882 88.2347 17.3513 88.2923 17.2145C88.3211 17.1425 88.35 17.0704 88.3788 16.9912C88.422 16.8688 88.4652 16.7463 88.5084 16.6311C88.5228 16.5806 88.5444 16.5302 88.5588 16.4798C88.494 16.5518 88.422 16.6239 88.35 16.6887C88.0907 16.9336 87.8025 17.1569 87.5072 17.3513C87.2047 17.5458 86.8734 17.7187 86.5276 17.8555C86.1891 17.9924 85.829 18.1004 85.4544 18.1725H85.4112C85.2888 18.2013 85.1591 18.2229 85.0367 18.2373C84.8206 18.2661 84.5685 18.2805 84.302 18.2805H82.9046V7.3466H84.302C84.5541 7.3466 84.799 7.36101 85.0367 7.38982C85.2815 7.41863 85.512 7.46185 85.7281 7.51947C85.9802 7.5771 86.2467 7.66353 86.5204 7.77877C87.2191 8.06689 87.8386 8.47025 88.35 8.96004C88.4292 9.03207 88.5012 9.1041 88.5732 9.18333C88.5588 9.14011 88.5444 9.1041 88.53 9.06088C87.7305 6.71275 86.2035 4.63834 84.1651 3.13294C84.1291 3.10413 84.0931 3.08252 84.0571 3.05371C83.913 2.95287 83.7762 2.85203 83.6249 2.7584C83.5745 2.72238 83.5169 2.68637 83.4664 2.65756C83.3296 2.57112 83.1855 2.47748 83.0415 2.39825C82.991 2.36944 82.9406 2.34063 82.8902 2.31182C82.5589 2.12455 82.2203 1.95168 81.8674 1.79321C81.853 1.79321 81.8458 1.77881 81.8314 1.77881H77.0703V23.8771H81.8314C81.8818 23.8555 81.925 23.8339 81.9754 23.8123C82.1267 23.7403 82.278 23.6682 82.422 23.5962C82.4652 23.5746 82.5013 23.553 82.5445 23.5314C82.6957 23.4522 82.8398 23.3729 82.991 23.2865C83.0559 23.2505 83.1279 23.2073 83.1927 23.164L83.1783 23.1424Z" fill="#040404"/>
<path d="M95.4306 15.7523C95.7043 14.8087 95.8412 13.822 95.8412 12.8136C95.8412 11.8052 95.7043 10.8184 95.4306 9.8748C95.1569 8.93843 94.7679 8.05248 94.2637 7.23856C93.7595 6.42464 93.1617 5.67555 92.4702 5.00568C91.7716 4.33582 90.9864 3.75239 90.1365 3.2698C89.2866 2.78721 88.3574 2.41266 87.3778 2.15336C86.6431 1.95888 85.8796 1.83643 85.1089 1.78601H84.9216C84.7128 1.7644 84.5111 1.7644 84.3166 1.7644H83.4595C87.0609 3.87484 89.4306 7.46185 89.8628 11.4882C89.9708 11.906 90.0285 12.3526 90.0285 12.8064C90.0285 13.2601 89.978 13.6995 89.87 14.1173L89.8484 14.2397C89.3946 18.2013 87.0177 21.7667 83.4595 23.8483H84.3166C85.3682 23.8483 86.3982 23.7187 87.385 23.4522C88.3574 23.1929 89.2866 22.8183 90.1437 22.3357C91.0008 21.8531 91.786 21.2697 92.4774 20.5998C92.888 20.2037 93.2769 19.7715 93.6299 19.3033V19.2745L93.7307 19.1737C93.9252 18.9144 94.0981 18.6551 94.2709 18.3742C94.7751 17.5602 95.1641 16.6743 95.4378 15.7379L95.4306 15.7523Z" fill="#040404"/>
<path d="M66.5253 4.20641C66.5253 4.20641 66.5253 4.20641 66.5253 4.19921C66.9935 3.47172 67.6057 2.83067 68.326 2.32647C68.3476 2.31206 68.362 2.30486 68.3836 2.29046C68.4989 2.21122 68.6213 2.13199 68.7438 2.05996C68.7798 2.03836 68.8158 2.01675 68.8518 1.99514C68.9599 1.93031 69.0679 1.87269 69.1831 1.81507C69.212 1.80066 69.248 1.77905 69.2768 1.76465H66.2588V4.66019C66.338 4.50893 66.4317 4.35767 66.5253 4.21361V4.20641Z" fill="#040404"/>
<path d="M71.7977 21.4357C71.7257 21.551 71.6393 21.6662 71.5601 21.7742C71.5384 21.8031 71.5168 21.8319 71.4952 21.8607C71.4088 21.9687 71.3224 22.0768 71.2359 22.1776C71.2143 22.2064 71.1927 22.2352 71.1639 22.264C71.0487 22.3937 70.9262 22.5161 70.8038 22.6386C70.6669 22.7754 70.5156 22.8979 70.3716 23.0203C70.3356 23.0491 70.3068 23.0708 70.2707 23.0996C70.1483 23.1932 70.0258 23.2868 69.8962 23.3733C69.8674 23.3949 69.8314 23.4165 69.8026 23.4381C69.6657 23.5245 69.5289 23.611 69.392 23.6902C69.3632 23.7046 69.3416 23.719 69.3128 23.7334C69.2335 23.7766 69.1543 23.8271 69.0679 23.8631H72.0859V20.9675C72.0859 20.9675 72.0715 20.9891 72.0715 20.9963C72.0066 21.1188 71.9274 21.2412 71.8554 21.3637C71.841 21.3925 71.8266 21.4141 71.805 21.4429L71.7977 21.4357Z" fill="#040404"/>
<path d="M71.7113 1.80823C71.4736 1.83704 71.2504 1.87306 71.0415 1.92348L71.0055 1.95949H70.8902C68.7078 2.5069 67.0079 4.14195 66.4533 6.23798L66.4245 6.35322C66.3164 6.79259 66.2588 7.25358 66.2588 7.71456V23.8489C66.2588 23.8489 66.3236 23.8489 66.3596 23.8489H66.4317C67.8578 23.7337 69.2264 23.1214 70.2636 22.1274C71.0991 21.3279 71.6753 20.3339 71.9274 19.2391V19.1959C71.9923 18.9582 72.0355 18.7205 72.0571 18.4756C72.0787 18.2811 72.0859 18.1011 72.0859 17.921V1.78662C71.9562 1.79382 71.8338 1.80823 71.7113 1.82264V1.80823Z" fill="#040404"/>
<path d="M53.9852 18.3961C53.9996 18.4898 54.0212 18.5834 54.0429 18.677C54.0645 18.7851 54.0861 18.8859 54.1149 18.9868C54.1365 19.0804 54.1653 19.1668 54.1941 19.2605C54.2229 19.3613 54.2589 19.4622 54.2949 19.563C54.331 19.6494 54.3598 19.7359 54.3958 19.8223C54.439 19.9159 54.4822 20.0168 54.5254 20.1104C54.5687 20.1968 54.6119 20.2761 54.6551 20.3553C54.7055 20.4489 54.7559 20.5426 54.8136 20.629C54.864 20.7082 54.9072 20.7875 54.9648 20.8595C55.0224 20.9459 55.0873 21.0324 55.1521 21.1188C55.2097 21.1908 55.2601 21.2629 55.3178 21.3349C55.3826 21.4141 55.4546 21.5006 55.5266 21.5798C55.5843 21.6446 55.6491 21.7166 55.7139 21.7815C55.7859 21.8607 55.8652 21.9327 55.9444 22.0048C56.0092 22.0696 56.074 22.1272 56.1461 22.192C56.2253 22.2641 56.3117 22.3289 56.3982 22.3937C56.4702 22.4513 56.5422 22.509 56.6143 22.5594C56.7007 22.6242 56.7943 22.6818 56.888 22.7394C56.9672 22.7899 57.0392 22.8403 57.1185 22.8835C57.2121 22.9411 57.3129 22.9915 57.4138 23.042C57.493 23.0852 57.5722 23.1284 57.6515 23.1644C57.7523 23.2148 57.8604 23.258 57.9684 23.3013C58.0476 23.3373 58.1341 23.3733 58.2133 23.4021C58.3213 23.4453 58.4366 23.4813 58.5446 23.5174C58.6311 23.5462 58.7103 23.575 58.7967 23.5966C58.9192 23.6326 59.0416 23.6542 59.1569 23.683C59.2361 23.6974 59.3153 23.719 59.4018 23.7406C59.5386 23.7694 59.6827 23.7839 59.8195 23.7983C59.8916 23.8055 59.9564 23.8199 60.0284 23.8271C60.2373 23.8487 60.4534 23.8559 60.6695 23.8559H63.9035V18.2737H53.978C53.978 18.3097 53.9852 18.3529 53.9924 18.3889L53.9852 18.3961Z" fill="#040404"/>
<path d="M53.1859 18.2808H53.1499L53.1138 17.9134V1.76465H47.2939V23.863H57.3635C55.1378 22.8113 53.51 20.7441 53.1931 18.2808H53.1859Z" fill="#040404"/>
<path d="M11.9709 1.91579C11.9349 1.93019 11.8917 1.9446 11.8557 1.959C11.7116 2.00942 11.5676 2.05984 11.4235 2.11747C11.3587 2.14628 11.2867 2.17509 11.2218 2.2039C11.1138 2.25432 11.0058 2.29754 10.8977 2.34796C10.8257 2.38397 10.7537 2.41999 10.6816 2.4632C10.5808 2.51362 10.4872 2.56404 10.3935 2.62166C10.3215 2.66488 10.2495 2.7081 10.1846 2.75132C10.0982 2.80894 10.0046 2.86656 9.91814 2.92418C9.84611 2.9746 9.78128 3.01782 9.71645 3.06824C9.63002 3.13307 9.55079 3.19789 9.47156 3.26272C9.40673 3.31314 9.34191 3.37076 9.28429 3.42118C9.20505 3.49321 9.12582 3.55803 9.05379 3.63006C8.99617 3.68769 8.93855 3.73811 8.88093 3.79573C8.8089 3.87496 8.73687 3.94699 8.66484 4.02622C8.61442 4.08384 8.5568 4.14146 8.50638 4.19909C8.43435 4.28552 8.36232 4.37196 8.29029 4.46559C8.24708 4.52321 8.20386 4.57363 8.16064 4.63126C8.08141 4.7393 8.00218 4.85454 7.93015 4.96979C7.90854 5.0058 7.87973 5.04902 7.85092 5.08504C7.75728 5.2435 7.66365 5.40196 7.57721 5.56042C7.5556 5.60364 7.53399 5.65406 7.51239 5.70448C7.45476 5.81973 7.39714 5.94217 7.34672 6.06462C7.31791 6.12945 7.2963 6.19427 7.26749 6.2591C7.22427 6.36714 7.18826 6.47518 7.15224 6.58323C7.13064 6.65525 7.10903 6.72728 7.08742 6.80652C7.05861 6.91456 7.02259 7.0154 7.00098 7.12344C6.97938 7.20267 6.96497 7.2819 6.95056 7.35393C6.93616 7.41155 6.92896 7.47638 6.91455 7.534C7.0442 7.49079 7.19546 7.46918 7.35392 7.46918H18.1798V1.75732H12.5256C12.3383 1.80054 12.151 1.85096 11.9709 1.90858V1.91579Z" fill="#040404"/>
<path d="M12.0792 18.9937C12.0792 18.9937 12.0864 18.9577 12.0936 18.9361C12.1296 18.8064 12.1584 18.6768 12.18 18.5399C12.18 18.5111 12.1944 18.4823 12.1944 18.4463C12.0432 18.4967 11.8919 18.5183 11.719 18.5183H1.21729V24.223H6.59781C6.79228 24.1725 6.98676 24.1221 7.17403 24.0573C7.19564 24.0573 7.21005 24.0429 7.23166 24.0357C7.39732 23.9781 7.55578 23.9204 7.70704 23.8556C7.79348 23.8196 7.87271 23.7836 7.95914 23.7476C8.03837 23.7116 8.11761 23.6755 8.19684 23.6395C8.33369 23.5747 8.46334 23.5027 8.6002 23.4235C8.6146 23.4162 8.62901 23.409 8.63621 23.4018C10.3289 22.4223 11.575 20.8232 12.0792 18.9793V18.9937Z" fill="#040404"/>
<path d="M18.7561 15.1186C18.6768 14.8665 18.5904 14.6504 18.504 14.4487C18.1222 13.5988 17.5964 12.8425 16.9338 12.2086C16.2711 11.5748 15.486 11.0706 14.5928 10.7032C13.6997 10.3359 12.7345 10.1558 11.7261 10.1558H7.34678C7.1451 10.1558 6.96502 10.1198 6.79936 10.055C6.63369 9.99017 6.48964 9.89653 6.35999 9.77408C6.25194 9.66604 6.15831 9.54359 6.10068 9.41394C6.08628 9.39233 6.07187 9.36352 6.05747 9.3203C5.99264 9.17625 5.95663 8.99618 5.95663 8.8089C5.95663 8.62163 5.99264 8.44876 6.06467 8.2903C6.06467 8.2903 6.06467 8.28309 6.06467 8.27589C6.26635 5.46678 7.96622 3.03223 10.48 1.77173H7.34678C6.93621 1.77173 6.52565 1.80054 6.1367 1.86536L6.07187 1.87977C5.52446 1.9662 4.99145 2.12467 4.48004 2.33355C3.6013 2.70089 2.81619 3.20509 2.15353 3.84615C1.49087 4.4872 0.957856 5.22909 0.576106 6.07182C0.187152 6.92896 -0.00732422 7.85092 -0.00732422 8.8161C-0.00732422 9.54359 0.100718 10.2423 0.316804 10.8977C0.388832 11.1282 0.475266 11.3515 0.576106 11.5604C0.957856 12.4103 1.49087 13.1594 2.15353 13.8005C2.81619 14.4343 3.6013 14.9457 4.48004 15.3131C5.17872 15.6084 5.92061 15.7813 6.69852 15.8461H6.74174C6.94342 15.8605 7.13069 15.8677 7.34678 15.8677H11.7261C11.9278 15.8677 12.1006 15.8965 12.2663 15.9685C12.4464 16.0406 12.5904 16.1342 12.7129 16.2566C12.8353 16.3791 12.9362 16.5159 13.0082 16.6816C13.0802 16.8545 13.1162 17.0201 13.1162 17.2074C13.1162 17.3731 13.0874 17.5243 13.037 17.6684C12.8497 20.5135 11.1499 22.9697 8.62168 24.2518H11.7261C12.7417 24.2518 13.7069 24.0645 14.5928 23.69C15.486 23.3154 16.2711 22.8112 16.9266 22.1774C17.438 21.6876 17.8701 21.1258 18.2231 20.4991L18.2447 20.4559C18.3383 20.2902 18.4247 20.1174 18.504 19.9445C18.8857 19.0946 19.0802 18.1726 19.0802 17.2074C19.0802 16.4943 18.9722 15.7957 18.7561 15.133V15.1186Z" fill="#040404"/>
</svg>
