<svg width="169" height="32" viewBox="0 0 169 32" fill="none" xmlns="http://www.w3.org/2000/svg">
<g clip-path="url(#clip0_2222_9983)">
<path d="M1.23215 31.4527C1.14748 30.6758 1.14871 30.6498 1.90831 30.6855C2.24455 30.7012 2.33291 30.4895 2.43537 30.2922C2.55195 30.0665 2.60472 29.8094 2.69553 29.5698C2.7213 29.5014 2.80904 29.4518 2.82438 29.384C2.85199 29.2618 2.89187 29.1136 2.84708 29.0083C2.61454 28.4577 2.34886 27.9204 2.11079 27.3716C2.00158 27.1199 1.94451 26.8464 1.83591 26.5941C1.65981 26.1857 1.45672 25.7887 1.27572 25.3821C1.22786 25.2751 1.24872 25.1335 1.18797 25.0391C1.06281 24.8461 0.858484 24.8194 0.632075 24.8279C0.215457 24.8436 0.214844 24.8315 0.214844 24.4274C0.214844 24.2985 0.214844 24.169 0.214844 24.0214H2.86856V24.8085C2.69246 24.8249 2.5133 24.8418 2.25253 24.8666C2.6354 25.8517 3.00723 26.8071 3.41157 27.8478C3.52508 27.5725 3.6073 27.3607 3.69934 27.1538C3.81592 26.8924 3.94784 26.637 4.05889 26.3738C4.14786 26.1627 4.21352 25.9418 4.29328 25.7264C4.34605 25.5836 4.39759 25.4396 4.46385 25.3023C4.59332 25.0336 4.49453 24.8225 4.21352 24.84C3.92943 24.8576 3.85212 24.7438 3.88034 24.4897C3.8963 24.3426 3.88341 24.1926 3.88341 24.0026C4.181 24.0026 4.44299 24.0026 4.70499 24.0026C5.17499 24.0026 5.6456 24.0123 6.11499 23.9984C6.33219 23.9923 6.41625 24.071 6.39662 24.2773C6.39109 24.3372 6.38925 24.3989 6.39723 24.4582C6.4365 24.7438 6.32606 24.8672 6.02418 24.8364C5.72659 24.8061 5.56645 24.9344 5.50509 25.2478C5.46091 25.4711 5.29709 25.6696 5.20444 25.8868C5.10136 26.1276 5.02282 26.3781 4.92465 26.6213C4.73321 27.0969 4.53135 27.5682 4.34421 28.0456C4.25401 28.2756 4.19204 28.5158 4.11043 28.7493C4.04049 28.9502 3.9687 29.1511 3.88403 29.3459C3.70916 29.7501 3.5122 30.1458 3.35083 30.5554C3.23609 30.8465 3.16369 31.1538 3.07226 31.4546H1.23154L1.23215 31.4527Z" fill="#040404"/>
<path d="M116.686 12.6711C116.785 12.8671 116.883 13.1013 117.016 13.3149C117.255 13.7009 117.508 14.0797 117.768 14.453C117.986 14.7664 118.228 15.0623 118.445 15.3763C118.637 15.6528 118.805 15.9445 118.988 16.227C119.141 16.4648 119.299 16.6996 119.456 16.9355C119.709 17.3161 119.959 17.6991 120.217 18.0767C120.377 18.3109 120.553 18.5335 120.715 18.7659C120.834 18.9359 120.941 19.1138 121.08 19.3292C120.923 19.3546 120.855 19.3752 120.786 19.3752C119.499 19.3788 118.21 19.3988 116.924 19.3727C116.366 19.3612 115.887 19.0968 115.519 18.6769C115.246 18.3659 114.979 18.0477 114.738 17.7124C114.498 17.3778 114.305 17.0106 114.073 16.6705C113.759 16.2107 113.419 15.7678 113.105 15.3073C112.876 14.9697 112.678 14.6109 112.454 14.2702C112.263 13.981 112.057 13.7027 111.851 13.4238C111.82 13.3826 111.756 13.3415 111.708 13.3409C110.944 13.3354 110.18 13.3372 109.382 13.3372V13.7233C109.382 15.4574 109.382 17.1915 109.382 18.9256C109.382 19.3625 109.38 19.3637 108.951 19.3643C108.144 19.3649 107.336 19.3576 106.528 19.3679C106.188 19.3721 105.915 19.3382 105.691 19.0133C105.508 18.7465 105.166 18.5892 104.959 18.332C104.829 18.1693 104.762 17.9127 104.762 17.6979C104.75 13.8164 104.753 9.93497 104.753 6.0535C104.753 4.52088 104.753 2.98886 104.753 1.45624C104.753 1.03632 104.871 0.92136 105.295 0.92136C108.035 0.92136 110.775 0.911074 113.515 0.929226C114.121 0.933461 114.739 0.985497 115.33 1.11195C115.82 1.21663 116.284 1.45321 116.751 1.65046C117.022 1.76542 117.294 1.89612 117.537 2.06009C117.825 2.25371 118.097 2.47637 118.35 2.71295C118.531 2.88237 118.689 3.08385 118.826 3.29139C119.028 3.59755 119.218 3.91339 119.382 4.24073C119.526 4.52935 119.626 4.83853 119.746 5.13925C119.753 5.1574 119.76 5.17737 119.761 5.19673C119.812 6.03353 120.101 6.85279 119.953 7.70411C119.891 8.06715 119.869 8.44289 119.757 8.7902C119.609 9.25368 119.373 9.68993 119.207 10.1486C119.023 10.655 118.688 11.0628 118.342 11.4525C118.095 11.7296 117.762 11.9335 117.457 12.1574C117.235 12.3213 116.997 12.4653 116.685 12.6717L116.686 12.6711ZM109.399 9.32265C109.504 9.33112 109.594 9.34504 109.684 9.34504C110.848 9.3408 112.012 9.32507 113.175 9.33233C113.643 9.33536 114.057 9.2083 114.421 8.93118C114.924 8.54878 115.196 8.01088 115.272 7.41428C115.36 6.73904 115.206 6.09948 114.703 5.57913C114.32 5.18221 113.878 4.90267 113.309 4.89662C112.074 4.88452 110.838 4.88694 109.603 4.88573C109.536 4.88573 109.468 4.90449 109.399 4.91477V9.32205V9.32265Z" fill="#040404"/>
<path d="M66.9523 9.36559C66.9523 6.70453 66.9523 4.04346 66.9523 1.3824C66.9523 1.01149 67.0376 0.921945 67.4149 0.92134C69.8784 0.919525 72.3419 0.908029 74.8048 0.928601C75.5147 0.934651 76.2271 1.00968 76.9308 1.10709C77.3057 1.15913 77.6622 1.33157 78.0291 1.4429C78.3108 1.52882 78.6047 1.58328 78.8771 1.69158C79.1943 1.81744 79.5036 1.96991 79.7987 2.14115C80.0576 2.2912 80.284 2.4945 80.5393 2.65242C81.0823 2.98884 81.4879 3.45353 81.8536 3.96057C82.0389 4.21712 82.2407 4.46277 82.4076 4.7296C82.5174 4.90507 82.5782 5.11019 82.6604 5.30199C82.7273 5.45749 82.7942 5.6136 82.8611 5.76971C82.9789 6.04319 83.0961 6.31668 83.2132 6.59017C83.2249 6.6174 83.236 6.64584 83.2427 6.67488C83.309 6.95865 83.4071 7.24001 83.4329 7.52741C83.5366 8.67582 83.7863 9.81636 83.6605 10.9787C83.5955 11.5759 83.5391 12.1755 83.4292 12.7654C83.3396 13.2471 83.2188 13.7323 83.0353 14.1861C82.8298 14.6956 82.5524 15.179 82.2794 15.6582C82.0837 16.0019 81.8781 16.3498 81.6161 16.6445C81.2253 17.0844 80.8381 17.5345 80.2791 17.8026C80.0098 17.9321 79.7962 18.1699 79.5392 18.3296C79.3698 18.4349 79.1692 18.4917 78.9802 18.5644C78.6562 18.689 78.331 18.8094 78.0064 18.9316C77.9874 18.9389 77.9715 18.9558 77.9531 18.9595C77.5407 19.0333 77.1296 19.1186 76.7149 19.1767C74.155 19.5361 71.5786 19.2826 69.012 19.3733C68.6101 19.3878 68.3893 19.2154 68.1604 18.9449C67.8168 18.5383 67.437 18.1614 67.0903 17.7566C67.0075 17.6604 66.9566 17.5055 66.9566 17.3778C66.9486 15.0495 66.951 12.7213 66.951 10.3924V9.36438L66.9523 9.36559ZM71.5995 10.1159C71.5995 11.7592 71.605 13.4026 71.594 15.0459C71.5921 15.3146 71.675 15.3962 71.9431 15.3841C72.3922 15.3642 72.8438 15.4017 73.2923 15.3739C74.3054 15.3115 75.3435 15.5663 76.3295 15.1694C76.6658 15.0344 77.0069 14.8844 77.299 14.6768C77.788 14.3295 78.0696 13.7989 78.3445 13.2894C78.536 12.9355 78.6697 12.5373 78.7519 12.1434C78.8612 11.6207 78.9213 11.084 78.9544 10.5503C78.9888 9.99486 78.9704 9.44062 78.8115 8.89062C78.7139 8.5542 78.7489 8.19843 78.6366 7.84023C78.4746 7.32411 78.2727 6.84248 77.9721 6.40442C77.7794 6.12306 77.6107 5.8163 77.2689 5.64143C77.037 5.52284 76.8578 5.31651 76.5829 5.24512C76.2166 5.15012 75.8651 4.92625 75.5006 4.91173C74.3268 4.86453 73.15 4.8966 71.9744 4.87724C71.6823 4.8724 71.5903 4.94924 71.5927 5.24512C71.6069 6.86789 71.5995 8.49128 71.5995 10.1147V10.1159Z" fill="#040404"/>
<path d="M102.204 19.346C102.097 19.3521 101.998 19.363 101.899 19.363C100.62 19.3642 99.3424 19.3642 98.0643 19.363C97.7225 19.363 97.6207 19.2268 97.5514 18.8922C97.4814 18.5546 97.3366 18.2321 97.2231 17.9035C97.2065 17.8563 97.1716 17.814 97.1605 17.7662C97.0826 17.4249 97.0267 17.0776 96.9273 16.743C96.8396 16.4496 96.6881 16.1755 96.5936 15.8844C96.4764 15.5238 96.3886 15.1535 96.2782 14.7518C96.1401 14.7445 95.9794 14.7288 95.8192 14.7288C94.2037 14.727 92.5881 14.7276 90.9732 14.7276C90.6302 14.7276 90.4916 14.8649 90.4093 15.2025C90.3038 15.6346 90.1633 16.0587 90.0443 16.4877C89.9627 16.7812 89.8866 17.0764 89.8166 17.3723C89.7301 17.7372 89.6577 18.105 89.5687 18.4693C89.5166 18.6829 89.473 18.9079 89.3693 19.0973C89.3043 19.2153 89.1343 19.3496 89.0098 19.3515C87.7016 19.3696 86.3929 19.3611 85.0841 19.3642C84.9068 19.3642 84.8313 19.2879 84.873 19.1233C84.9301 18.8983 85.0037 18.6774 85.0694 18.4541C85.081 18.4154 85.0896 18.3761 85.0982 18.3368C85.1719 17.9858 85.224 17.6288 85.3253 17.2858C85.4234 16.9536 85.5817 16.6396 85.6959 16.3116C85.775 16.0835 85.8278 15.8463 85.8867 15.6116C85.9763 15.257 86.0487 14.8982 86.1511 14.5479C86.2536 14.1975 86.388 13.8563 86.5009 13.509C86.5763 13.2778 86.6463 13.0449 86.7058 12.8095C86.7948 12.4574 86.8598 12.0998 86.9574 11.7501C87.042 11.4451 87.1568 11.148 87.2592 10.8473C87.2752 10.8001 87.3065 10.7565 87.3175 10.7081C87.404 10.3463 87.4679 9.97723 87.5758 9.62206C87.7464 9.06177 87.9464 8.51056 88.1342 7.95511C88.144 7.92667 88.1551 7.89823 88.1612 7.86919C88.2348 7.51886 88.2858 7.16187 88.3876 6.81941C88.4858 6.48844 88.6545 6.17743 88.7576 5.84707C88.8558 5.53304 88.8975 5.20268 88.9852 4.88563C89.0822 4.53772 89.203 4.19586 89.3147 3.85157C89.3301 3.80438 89.3607 3.76082 89.3718 3.71302C89.4522 3.35845 89.5135 2.99904 89.6123 2.64932C89.697 2.35102 89.8289 2.06604 89.9283 1.77077C89.9725 1.64007 89.9964 1.4997 90.0111 1.36235C90.0504 0.996285 90.1897 0.860752 90.5584 0.862567C91.8261 0.869222 93.095 0.849255 94.3608 0.897055C95.0161 0.921863 95.6125 1.17659 96.1211 1.62131C96.5052 1.95712 96.7641 2.35768 96.9623 2.81631C97.1329 3.21081 97.344 3.58837 97.5213 3.97985C97.6078 4.17044 97.6649 4.37495 97.7244 4.57644C97.8097 4.86566 97.8753 5.16093 97.9667 5.44833C98.0704 5.77325 98.1944 6.09212 98.3091 6.41401C98.3257 6.46121 98.341 6.50901 98.3539 6.55681C98.5036 7.11589 98.6466 7.67738 98.8043 8.23465C98.9258 8.66303 99.0571 9.0896 99.2025 9.51072C99.3056 9.80841 99.4479 10.0922 99.5571 10.3875C99.6338 10.5944 99.6884 10.8098 99.7467 11.0234C99.8382 11.3556 99.9136 11.6926 100.015 12.0211C100.115 12.346 100.242 12.6625 100.353 12.9838C100.429 13.2052 100.504 13.4279 100.568 13.653C100.657 13.9743 100.732 14.2992 100.82 14.6211C100.903 14.9206 100.994 15.2183 101.087 15.5154C101.2 15.8754 101.32 16.2336 101.433 16.5936C101.527 16.8937 101.614 17.1956 101.707 17.4957C101.819 17.8557 101.935 18.2139 102.046 18.574C102.111 18.7851 102.171 18.9981 102.227 19.2117C102.237 19.2456 102.215 19.2867 102.204 19.343V19.346ZM95.1725 11.3471C95.0467 10.8987 94.9437 10.5073 94.8265 10.1194C94.7252 9.78361 94.6019 9.45506 94.5007 9.11925C94.4062 8.80462 94.3338 8.48333 94.2417 8.16748C94.1251 7.76875 93.9981 7.37304 93.8773 6.97491C93.8625 6.92711 93.8681 6.87326 93.8527 6.82667C93.722 6.43277 93.5926 6.03888 93.4521 5.64861C93.4306 5.58931 93.357 5.50763 93.3079 5.50763C93.2355 5.50763 93.1177 5.55785 93.0999 5.61231C93.0078 5.89366 92.9354 6.18167 92.8679 6.46968C92.7833 6.82909 92.7102 7.19091 92.6311 7.55153C92.6268 7.57089 92.6176 7.58904 92.6108 7.6078C92.4918 7.93756 92.3544 8.26248 92.2587 8.59889C92.1605 8.94257 92.1034 9.29774 92.0286 9.64747C92.0243 9.66683 92.0218 9.6874 92.0157 9.70616C91.8838 10.1333 91.7494 10.5593 91.6199 10.9871C91.5242 11.3041 91.688 11.3556 91.9703 11.3507C92.8379 11.3368 93.7055 11.3459 94.5731 11.3459C94.7436 11.3459 94.9148 11.3459 95.1719 11.3459L95.1725 11.3471Z" fill="#040404"/>
<path d="M12.847 4.90758C12.4494 4.98744 12.0555 4.93178 11.6714 4.76478C11.6266 4.74542 11.5806 4.72364 11.5333 4.71517C10.1337 4.47254 8.72375 4.40174 7.30578 4.46528C7.07078 4.47556 6.83455 4.47496 6.60139 4.50037C5.94978 4.57116 5.32638 4.78717 4.97849 5.33778C4.80484 5.61308 4.58702 5.97975 4.84964 6.43475C5.13311 6.92606 5.49144 7.1693 6.0142 7.34658C6.49034 7.50813 6.96647 7.64185 7.44874 7.77436C7.70951 7.84636 7.96783 7.8748 8.22614 7.93168C8.64153 8.02304 9.04833 8.15253 9.45881 8.26507C9.52754 8.28382 9.59932 8.29169 9.66743 8.31287C10.0755 8.43751 10.4872 8.55066 10.8884 8.69345C11.2572 8.82475 11.6456 8.94274 11.969 9.15088C12.3684 9.40803 12.731 9.73113 13.0691 10.0657C13.3495 10.3435 13.5882 10.6684 13.8127 10.9939C13.9398 11.1778 14.0392 11.3981 14.0852 11.6159C14.1821 12.0751 14.2582 12.5416 14.3005 13.0094C14.3349 13.3893 14.303 13.7748 14.3067 14.1578C14.3116 14.7289 14.1152 15.2499 13.9502 15.7872C13.7992 16.2779 13.536 16.7063 13.2384 17.0832C12.8955 17.5177 12.5058 17.9491 11.9745 18.2099C11.5057 18.4398 11.0682 18.7333 10.5945 18.9511C10.3209 19.0769 10.0037 19.1138 9.70363 19.1798C9.14589 19.302 8.58631 19.417 8.02673 19.5325C7.92794 19.5531 7.82609 19.5731 7.72608 19.5731C6.39707 19.5749 5.06745 19.5973 3.73968 19.5616C3.10463 19.5446 2.4708 19.4224 1.83882 19.3341C1.56148 19.2954 1.29028 19.2167 1.01417 19.1647C0.640507 19.0939 0.484045 18.8863 0.423301 18.5166C0.345991 18.0447 0.194438 17.5848 0.112218 17.1135C0.0502473 16.7583 0.0428843 16.3935 0.0195685 16.0323C0.00545624 15.8114 -0.00558812 15.5887 0.00422909 15.3679C0.0122056 15.1961 0.0864482 15.1095 0.252727 15.265C0.287087 15.2971 0.334333 15.328 0.379124 15.3346C0.892073 15.4139 1.40441 15.5052 1.92043 15.5609C2.78925 15.6541 3.67709 15.6462 4.52505 15.8271C5.19876 15.9705 5.85897 15.9645 6.51856 15.9264C7.14318 15.8901 7.76228 15.7267 8.37831 15.596C8.63233 15.5422 8.89555 15.4647 9.11337 15.3322C9.29744 15.2203 9.45391 15.0321 9.56742 14.8451C9.97422 14.1735 9.86009 13.6162 9.28149 13.0965C8.92991 12.7813 8.52741 12.6173 8.07029 12.5217C7.66901 12.4382 7.28001 12.2966 6.88487 12.181C6.86523 12.1756 6.84498 12.1726 6.82474 12.1695C6.32099 12.0885 5.81234 12.0273 5.31411 11.9202C4.93369 11.8386 4.56555 11.7006 4.19311 11.585C3.95934 11.5124 3.72372 11.4435 3.49486 11.3581C3.11567 11.2172 2.6966 11.1264 2.37508 10.9019C1.9511 10.6061 1.59155 10.214 1.23138 9.83823C1.02154 9.6192 0.851577 9.35963 0.687752 9.10308C0.586512 8.94455 0.499998 8.76424 0.461343 8.58273C0.368079 8.14163 0.275429 7.69631 0.241069 7.24796C0.204255 6.76693 0.232479 6.28107 0.235547 5.79702C0.238615 5.29058 0.433118 4.83073 0.579763 4.35515C0.790219 3.67264 1.18413 3.11175 1.68113 2.6271C1.99099 2.32517 2.37693 2.09343 2.74937 1.86169C3.07149 1.66142 3.4151 1.492 3.76177 1.33408C3.99063 1.23001 4.2379 1.15982 4.48272 1.09508C4.76128 1.02126 5.04414 0.950469 5.32945 0.914165C6.85725 0.71873 8.38874 0.575935 9.93127 0.704208C10.4976 0.751403 11.0645 0.813725 11.6235 0.911745C12.15 1.00432 12.6666 1.14953 13.1851 1.28144C13.2366 1.29475 13.3096 1.3728 13.3084 1.41939C13.2881 2.13337 13.2943 2.85157 13.2157 3.5601C13.1673 3.99635 12.9869 4.41869 12.8482 4.90758H12.847Z" fill="#040404"/>
<path d="M55.7196 15.3787V4.88512C55.5988 4.88512 55.4902 4.88512 55.3822 4.88512C54.4005 4.88512 53.4187 4.87484 52.437 4.89118C52.1351 4.89602 52.0517 4.78468 52.0541 4.50636C52.0646 3.4475 52.0658 2.38864 52.0529 1.33038C52.0492 1.04479 52.2358 0.986102 52.4395 0.925596C52.5051 0.906234 52.5818 0.920755 52.653 0.920755C56.324 0.920755 59.995 0.920755 63.6661 0.920755C64.0845 0.920755 64.1189 0.953428 64.1121 1.37213C64.1035 1.88643 64.1134 2.40195 64.0716 2.91383C64.0287 3.44871 63.9581 3.98419 63.8489 4.50878C63.809 4.70058 63.6955 4.90388 63.3807 4.8942C62.5125 4.86758 61.6425 4.88512 60.7737 4.88512C60.6638 4.88512 60.554 4.88512 60.4252 4.88512V15.3793C60.5509 15.3793 60.6608 15.3793 60.77 15.3793C61.772 15.3793 62.7745 15.3878 63.7765 15.3733C64.0268 15.3696 64.1134 15.4798 64.1097 15.6873C64.0968 16.4031 64.114 17.1225 64.0416 17.8329C63.9771 18.4664 63.6483 18.9395 63.0083 19.2197C62.7181 19.3461 62.4542 19.3618 62.1702 19.3618C59.3477 19.3655 56.5253 19.351 53.7034 19.377C53.2304 19.3812 52.9659 19.1337 52.6683 18.8736C52.5567 18.7761 52.4481 18.6751 52.3376 18.5771C52.167 18.4264 52.04 18.2788 52.0498 18.0144C52.075 17.3095 52.0584 16.6028 52.0584 15.8973C52.0584 15.4755 52.1535 15.3799 52.572 15.3793C53.5028 15.3793 54.433 15.3793 55.3638 15.3793H55.7196V15.3787Z" fill="#040404"/>
<path d="M126.074 4.90148H122.468C122.451 4.73871 122.424 4.60379 122.423 4.46886C122.419 3.43057 122.42 2.39168 122.422 1.35339C122.422 0.95526 122.46 0.920166 122.859 0.920166C126.54 0.920166 130.22 0.920166 133.901 0.920166C134.398 0.920166 134.503 1.00608 134.469 1.498C134.411 2.34932 134.335 3.19944 134.237 4.04713C134.207 4.31275 134.082 4.56809 133.982 4.88454C133.785 4.88454 133.542 4.88454 133.3 4.88454C132.523 4.88454 131.746 4.89059 130.969 4.88151C130.71 4.87848 130.621 4.95956 130.622 5.22882C130.631 8.49555 130.632 11.7623 130.62 15.029C130.619 15.3267 130.736 15.3836 130.995 15.3818C131.997 15.3739 132.999 15.3781 134.001 15.3787C134.36 15.3787 134.496 15.4961 134.47 15.8434C134.408 16.6941 134.356 17.5479 134.231 18.3901C134.199 18.6031 133.924 18.7955 133.732 18.9649C133.601 19.0811 133.421 19.1471 133.258 19.2233C133.135 19.2802 133.004 19.357 132.877 19.357C129.83 19.3643 126.782 19.3649 123.736 19.354C123.591 19.354 123.427 19.2578 123.305 19.1652C123.068 18.9861 122.843 18.7877 122.637 18.5753C122.538 18.4748 122.434 18.326 122.431 18.1971C122.413 17.3809 122.422 16.5641 122.421 15.7472C122.421 15.4828 122.514 15.363 122.821 15.3697C123.802 15.3908 124.783 15.3769 125.765 15.3775C125.968 15.3775 126.101 15.3527 126.1 15.0835C126.09 11.7665 126.094 8.44896 126.093 5.13201C126.093 5.0721 126.083 5.0122 126.073 4.90027L126.074 4.90148Z" fill="#040404"/>
<path d="M160.279 7.91532C160.432 7.94255 160.54 7.89838 160.613 7.68056C160.685 7.46274 160.862 7.28061 160.978 7.07429C161.132 6.8008 161.262 6.51521 161.416 6.24172C161.677 5.77885 161.958 5.32687 162.211 4.86036C162.44 4.43803 162.63 3.99573 162.858 3.5734C163.027 3.26239 163.237 2.97438 163.416 2.66822C163.57 2.40321 163.705 2.12669 163.852 1.85744C163.991 1.6021 164.116 1.33588 164.286 1.10172C164.357 1.00491 164.527 0.929273 164.653 0.928063C165.993 0.915962 167.332 0.918382 168.672 0.924433C168.75 0.924433 168.872 0.970418 168.893 1.02487C168.919 1.09204 168.871 1.19611 168.835 1.27537C168.746 1.47201 168.65 1.66684 168.547 1.85744C168.396 2.13637 168.24 2.4141 168.078 2.68698C167.985 2.8443 167.86 2.98467 167.774 3.14501C167.477 3.70167 167.204 4.26982 166.899 4.82225C166.599 5.36559 166.264 5.89079 165.959 6.43232C165.782 6.74816 165.645 7.08578 165.473 7.40465C165.269 7.78524 165.049 8.15735 164.832 8.53128C164.727 8.71159 164.611 8.88584 164.506 9.06676C164.171 9.65125 163.832 10.2339 163.508 10.8245C163.331 11.1488 163.19 11.4925 163.019 11.8198C162.924 12.0007 162.769 12.155 162.697 12.3426C162.627 12.5247 162.603 12.7328 162.602 12.9301C162.595 14.8862 162.598 16.8424 162.598 18.7992C162.598 19.3292 162.561 19.3637 162.02 19.3637C160.782 19.3637 159.545 19.3516 158.308 19.3722C157.983 19.3776 157.914 19.2669 157.916 18.9777C157.933 16.981 157.929 14.9843 157.952 12.9882C157.956 12.6657 157.865 12.4043 157.707 12.1368C157.495 11.7774 157.318 11.3962 157.109 11.0344C156.878 10.6339 156.615 10.2515 156.388 9.8491C156.207 9.52782 156.067 9.18474 155.896 8.85862C155.735 8.55366 155.557 8.25839 155.388 7.95828C155.215 7.65212 155.045 7.34536 154.872 7.0398C154.649 6.6459 154.422 6.25322 154.201 5.85811C154.085 5.64997 153.984 5.43396 153.863 5.22824C153.749 5.03523 153.609 4.85734 153.497 4.66432C153.341 4.39386 153.203 4.1119 153.05 3.83902C152.787 3.3707 152.518 2.90541 152.253 2.43769C152.051 2.0795 151.85 1.7207 151.651 1.36068C151.521 1.12773 151.647 0.922013 151.921 0.921408C153.282 0.919592 154.641 0.919592 156.002 0.921408C156.287 0.921408 156.583 1.15557 156.702 1.40001C156.882 1.77152 157.098 2.12609 157.291 2.49094C157.449 2.78561 157.587 3.08935 157.75 3.38038C157.927 3.69683 158.13 3.99875 158.308 4.3146C158.463 4.5899 158.594 4.87852 158.748 5.15442C158.936 5.49144 159.149 5.81455 159.329 6.1558C159.5 6.48375 159.63 6.83287 159.802 7.16021C159.935 7.41312 160.107 7.64668 160.278 7.91593L160.279 7.91532Z" fill="#040404"/>
<path d="M140.816 4.90203H135.927C135.915 4.75924 135.897 4.64307 135.897 4.5275C135.895 3.44867 135.902 2.36985 135.892 1.29163C135.889 1.00362 135.992 0.913461 136.287 0.914066C140.816 0.922537 145.345 0.926773 149.874 0.912856C150.642 0.910436 150.587 1.21236 150.544 1.72243C150.502 2.2095 150.454 2.69598 150.394 3.18124C150.334 3.66105 150.274 4.14207 150.178 4.61584C150.138 4.8143 149.959 4.89054 149.734 4.88933C148.425 4.88025 147.117 4.88449 145.808 4.88509C145.483 4.88509 145.32 5.04563 145.32 5.36672C145.32 9.84297 145.32 14.3186 145.32 18.7949C145.32 18.8959 145.314 18.997 145.32 19.0974C145.335 19.308 145.238 19.3703 145.03 19.3679C144.089 19.3588 143.148 19.3642 142.208 19.3642C141.76 19.3642 141.312 19.3642 140.816 19.3642V4.90203Z" fill="#040404"/>
<path d="M37.3776 9.39891C37.3776 6.72695 37.3776 4.05499 37.3776 1.38364C37.3776 1.03634 37.4887 0.922586 37.8458 0.921981C39.0828 0.919561 40.3204 0.919561 41.5573 0.921981C41.896 0.922586 42.0273 1.05631 42.0273 1.38909C42.0273 5.90588 42.0273 10.4227 42.0273 14.9395C42.0273 15.2323 42.1756 15.3789 42.4722 15.3793C44.8645 15.3793 47.2568 15.3854 49.6498 15.3721C49.9541 15.3703 50.0412 15.4737 50.0339 15.7496C50.0148 16.4751 50.0308 17.2024 49.9915 17.9267C49.9707 18.3078 49.8872 18.6915 49.7841 19.0605C49.7332 19.2433 49.5743 19.3709 49.3307 19.3685C48.3594 19.3576 47.3881 19.3643 46.4168 19.3643C44.1264 19.3643 41.8365 19.3522 39.546 19.3752C39.1337 19.3794 38.8478 19.2542 38.5931 18.9619C38.2379 18.5535 37.8587 18.165 37.5126 17.7494C37.4243 17.6429 37.3838 17.468 37.3832 17.324C37.3758 14.6823 37.3776 12.0406 37.3776 9.39951V9.39891Z" fill="#040404"/>
<path d="M44.9119 24.0128H46.7379C46.76 24.2022 46.7809 24.3843 46.8023 24.5725C47.268 24.3444 47.6276 23.9662 48.1767 23.9832C48.3338 23.988 48.5062 23.8204 48.6504 23.8464C49.1063 23.9287 49.5444 24.0679 49.834 24.4817C49.888 24.5586 50.0929 24.6221 50.1647 24.5816C50.4286 24.4333 50.6611 24.2318 50.9157 24.0655C50.9857 24.0201 51.0925 24.034 51.1802 24.0116C51.3612 23.9656 51.5404 23.913 51.7201 23.8652C51.7692 23.8525 51.8324 23.8222 51.868 23.8404C52.2895 24.0564 52.8608 23.9481 53.1295 24.5259C53.2418 24.7679 53.2756 24.9845 53.2792 25.2157C53.2934 26.1227 53.2848 27.0303 53.2854 27.9379C53.2854 28.2555 53.432 28.3977 53.7646 28.4038C53.9272 28.4068 54.0898 28.4038 54.2757 28.4038V29.2291C53.6713 29.2291 53.0725 29.2303 52.4736 29.2291C52.281 29.2291 52.2828 29.0953 52.2834 28.9562C52.2859 28.1496 52.2859 27.3431 52.2834 26.5365C52.2822 26.214 52.2724 25.8915 52.2662 25.5696C52.254 24.9186 51.7741 24.5973 51.1599 24.8617C50.8188 25.0087 50.501 25.2145 50.188 25.4172C50.1034 25.4716 50.0291 25.6102 50.0279 25.7112C50.0144 26.4772 50.0279 27.2438 50.0162 28.0099C50.0119 28.2737 50.1911 28.3354 50.3776 28.3995C50.4415 28.4213 50.5194 28.4038 50.5912 28.4044C50.8673 28.4068 51.0057 28.5395 51.0066 28.8025C51.0074 29.0921 50.8615 29.2377 50.5691 29.2393C50.1396 29.2406 49.7101 29.2285 49.2812 29.2442C49.0535 29.252 48.9824 29.1819 48.9848 28.9538C48.9959 27.8247 48.9946 26.6957 48.9848 25.5666C48.983 25.396 48.9554 25.1969 48.8633 25.062C48.6885 24.8061 48.2271 24.7086 47.9117 24.8557C47.5724 25.0142 47.2478 25.2066 46.933 25.4087C46.8477 25.4631 46.776 25.6047 46.7741 25.7076C46.7606 26.4736 46.7717 27.2396 46.7637 28.0062C46.7612 28.2761 46.9293 28.3572 47.149 28.4031C47.1686 28.4074 47.1895 28.4031 47.2104 28.4044C47.7528 28.4189 47.8589 28.5465 47.7344 29.0717C47.7184 29.1383 47.5994 29.226 47.5276 29.2272C46.6692 29.2381 45.8102 29.2399 44.9524 29.2248C44.8806 29.2236 44.8094 29.0869 44.7413 29.0094C44.7309 28.9979 44.7401 28.9701 44.7395 28.9501C44.7309 28.5867 44.9095 28.4048 45.2751 28.4044C45.5783 28.4044 45.73 28.2531 45.7304 27.9506C45.7304 27.0127 45.7261 26.0755 45.7335 25.1376C45.7353 24.9083 45.658 24.8236 45.415 24.826C44.8352 24.8315 44.834 24.82 44.8745 24.2367C44.8794 24.1677 44.8978 24.0999 44.9137 24.0116L44.9119 24.0128Z" fill="#040404"/>
<path d="M86.749 29.2369V28.8697C86.749 27.7709 86.7386 26.6721 86.7521 25.5733C86.7619 24.7794 86.1612 24.6923 85.6348 24.8714C85.2881 24.9894 84.9782 25.2205 84.6622 25.4166C84.588 25.4625 84.5119 25.5739 84.5113 25.6562C84.4996 26.4524 84.5064 27.2487 84.5021 28.0456C84.5009 28.2936 84.6899 28.342 84.8653 28.4007C84.9298 28.4225 85.0071 28.4044 85.0789 28.405C85.3525 28.4078 85.4896 28.5421 85.49 28.8079C85.4906 29.2375 85.4906 29.2393 85.047 29.24C84.3315 29.2412 83.6155 29.2418 82.9001 29.2387C82.77 29.2387 82.6405 29.217 82.527 29.2073C82.5043 29.1625 82.489 29.1456 82.4877 29.128C82.4429 28.4261 82.4429 28.4177 83.1682 28.4098C83.3823 28.4074 83.4701 28.3239 83.4707 28.1297C83.4719 27.1113 83.4701 26.093 83.4707 25.0753C83.4707 24.8998 83.3952 24.82 83.2105 24.8309C83.0301 24.8411 82.8485 24.8333 82.6491 24.8333V24.0237H84.4794C84.4972 24.1998 84.5162 24.3819 84.5359 24.5773C85.0218 24.3335 85.409 23.9517 85.9802 23.9795C86.1054 23.9856 86.2324 23.8561 86.3649 23.8416C86.795 23.795 87.4405 24.1962 87.6405 24.6548C87.8608 24.5495 88.1032 24.4769 88.2903 24.3341C88.5572 24.1302 88.8204 23.9705 89.172 23.9916C89.2438 23.9959 89.3193 23.9426 89.3935 23.916C89.4678 23.8894 89.5641 23.8192 89.6126 23.8428C90.0353 24.0527 90.6041 23.9481 90.8729 24.5199C90.9913 24.7728 91.0238 25.0033 91.0275 25.2465C91.0428 26.1336 91.033 27.0206 91.0342 27.9082C91.0342 28.2779 91.1637 28.4013 91.5466 28.4044C91.6981 28.4056 91.8497 28.4044 92.0202 28.4044V29.2127H90.0243C90.0243 29.079 90.0243 28.9719 90.0243 28.8648C90.0194 27.766 89.9856 26.6666 90.0188 25.569C90.0421 24.7988 89.4279 24.6917 88.9297 24.8611C88.5634 24.9858 88.2357 25.2266 87.8989 25.4287C87.8363 25.4662 87.7768 25.566 87.7761 25.6374C87.7669 26.444 87.7547 27.2511 87.7841 28.0564C87.7884 28.1756 88.0026 28.29 88.1259 28.3989C88.1492 28.4195 88.205 28.4038 88.2461 28.4038C88.8922 28.4074 88.7444 28.4177 88.7726 28.9622C88.783 29.1643 88.6977 29.2357 88.5124 29.2357C87.9412 29.2357 87.3693 29.2357 86.7478 29.2357L86.749 29.2369Z" fill="#040404"/>
<path d="M122.255 28.4049C122.452 28.4049 122.633 28.4103 122.814 28.4037C123.096 28.3934 123.249 28.2342 123.25 27.9571C123.251 26.2738 123.245 24.5912 123.256 22.9079C123.258 22.6653 123.171 22.5781 122.943 22.5914C122.923 22.5926 122.902 22.5926 122.882 22.5908C122.681 22.5751 122.338 22.612 122.307 22.5327C122.22 22.3016 122.247 22.0245 122.254 21.7655C122.255 21.7123 122.363 21.6185 122.422 21.6173C123.014 21.6058 123.605 21.6106 124.273 21.6106V26.4451C124.939 25.8963 125.523 25.4159 126.172 24.8804C125.996 24.8513 125.877 24.8066 125.764 24.8181C125.505 24.8447 125.454 24.7255 125.459 24.5016C125.472 23.9044 125.426 24.0073 125.969 24.0037C126.755 23.9982 127.539 24.0024 128.344 24.0024V24.7872C128.28 24.7957 128.208 24.8241 128.146 24.8102C127.639 24.6989 127.292 24.979 126.946 25.2707C126.653 25.5181 126.357 25.7626 126.067 26.0137C125.886 26.1698 125.713 26.335 125.52 26.5116C126.135 27.0864 126.717 27.6498 127.324 28.184C127.465 28.3081 127.69 28.3528 127.885 28.4C128.019 28.4327 128.168 28.4061 128.336 28.4061V29.235C127.9 29.235 127.45 29.2768 127.015 29.2151C126.832 29.189 126.673 28.9519 126.517 28.7982C125.999 28.2893 125.484 27.7774 124.976 27.2595C124.784 27.0635 124.612 26.8481 124.432 26.6417C124.399 26.6599 124.366 26.6786 124.333 26.6968C124.312 26.7894 124.275 26.8813 124.273 26.9739C124.266 27.3466 124.269 27.7193 124.27 28.0927C124.271 28.3087 124.357 28.4152 124.603 28.4121C125.131 28.4055 125.256 28.5779 125.124 29.0983C125.109 29.1545 125.022 29.2332 124.968 29.2332C124.07 29.2417 123.173 29.2393 122.256 29.2393V28.4061L122.255 28.4049Z" fill="#040404"/>
<path d="M31.2609 29.2376V28.405C31.4499 28.405 31.6211 28.4086 31.7922 28.4044C32.1009 28.3965 32.2567 28.2465 32.2567 27.9554C32.2573 26.2722 32.2518 24.5889 32.2629 22.9056C32.2647 22.6599 32.172 22.5904 31.9475 22.5885C31.7266 22.5861 31.3449 22.6146 31.3149 22.5311C31.2185 22.263 31.2517 21.949 31.2339 21.6301H33.2667V24.4116C33.2973 24.4298 33.3286 24.4473 33.3593 24.4654C33.5532 24.3499 33.7643 24.2555 33.9367 24.1145C34.3324 23.7908 35.262 23.766 35.7449 23.9584C36.437 24.2337 36.5438 24.7535 36.5407 25.373C36.537 26.2401 36.5389 27.1065 36.5407 27.9736C36.5413 28.3881 36.5591 28.399 36.9659 28.408C37.1021 28.4111 37.3463 28.4292 37.3549 28.4746C37.3973 28.6979 37.3831 28.9326 37.3709 29.1625C37.369 29.191 37.2574 29.2352 37.196 29.2358C36.6548 29.2418 36.1137 29.2394 35.5338 29.2394C35.5277 29.1184 35.5179 29.0125 35.5179 28.9066C35.5166 27.8181 35.5179 26.7296 35.5166 25.6411C35.5166 24.9059 34.8601 24.5205 34.1833 24.8702C33.9128 25.01 33.6569 25.1812 33.4102 25.3597C33.3378 25.4124 33.2838 25.5382 33.2826 25.6314C33.2728 26.4373 33.2808 27.2439 33.2746 28.0504C33.2728 28.3197 33.3826 28.4274 33.6612 28.4117C33.8115 28.4032 34.0784 28.431 34.0968 28.4958C34.1545 28.7009 34.1257 28.9314 34.114 29.1511C34.1122 29.1819 34.0226 29.2333 33.9735 29.2333C33.0758 29.2382 32.1788 29.237 31.2615 29.237L31.2609 29.2376Z" fill="#040404"/>
<path d="M136.715 26.847H132.267C132.14 27.3631 132.443 27.7056 132.718 28.0057C133.291 28.6301 134.075 28.4958 134.791 28.3911C135.143 28.3397 135.454 28.0474 135.716 27.7649C135.771 27.7044 135.911 27.6445 135.968 27.6723C136.222 27.7939 136.461 27.9476 136.724 28.1001C136.487 28.3476 136.292 28.5696 136.076 28.7699C135.966 28.8721 135.829 28.9599 135.687 29.0107C135.399 29.1148 135.103 29.1977 134.805 29.2733C134.557 29.3368 134.302 29.4191 134.05 29.4191C133.541 29.4191 133.07 29.2473 132.587 29.0821C132.083 28.9097 131.751 28.5599 131.483 28.1975C130.998 27.544 130.867 26.7381 131.057 25.9588C131.14 25.6218 131.329 25.2672 131.54 24.9368C131.807 24.5181 132.191 24.2604 132.564 24.0728C133.172 23.7666 133.896 23.6765 134.568 23.8689C135.12 24.0268 135.654 24.2912 136.011 24.788C136.245 25.1129 136.506 25.4166 136.545 25.845C136.565 26.0731 136.663 26.2934 136.712 26.5203C136.732 26.6134 136.715 26.7145 136.715 26.8464L136.715 26.847ZM133.879 26.1784C134.307 26.1784 134.737 26.1881 135.165 26.1724C135.278 26.1681 135.459 26.1088 135.483 26.035C135.524 25.9104 135.473 25.7518 135.443 25.6115C135.432 25.5637 135.348 25.5364 135.325 25.4868C135.059 24.9175 134.506 24.7741 133.972 24.6397C133.801 24.5968 133.586 24.739 133.387 24.7771C132.823 24.886 132.573 25.3416 132.289 25.75C132.14 25.9636 132.267 26.1724 132.53 26.176C132.979 26.182 133.429 26.1778 133.879 26.1784Z" fill="#040404"/>
<path d="M100.477 26.8471H95.9768C95.7743 27.2471 96.0485 27.5381 96.2148 27.7898C96.3854 28.0482 96.7008 28.223 96.975 28.4015C97.072 28.465 97.2334 28.4378 97.3659 28.4415C97.6009 28.4475 97.8359 28.4415 98.0715 28.4475C98.6409 28.4608 99.0152 28.1111 99.3987 27.7698C99.4631 27.7124 99.5932 27.6458 99.6484 27.6724C99.9024 27.7952 100.141 27.9501 100.401 28.1032C100.164 28.3525 99.9687 28.5746 99.7539 28.7767C99.6521 28.8729 99.5226 28.9509 99.3913 29.0036C99.1539 29.0998 98.9109 29.1935 98.6605 29.2462C98.2807 29.3261 97.8868 29.441 97.5107 29.4096C97.0996 29.3751 96.7075 29.1597 96.2958 29.0798C95.7626 28.9757 95.5288 28.5183 95.1595 28.2224C95.0699 28.1504 95.0435 27.9998 94.9914 27.8842C94.6821 27.1956 94.5434 26.5083 94.8373 25.7628C94.9582 25.4555 95.1006 25.1777 95.2626 24.8928C95.4466 24.5678 95.7368 24.4051 96.0148 24.2242C96.6228 23.8291 97.3174 23.7238 98.0206 23.84C98.7421 23.9591 99.3508 24.3113 99.7926 24.9109C100.018 25.2165 100.191 25.5305 100.233 25.922C100.264 26.2136 100.381 26.4962 100.477 26.8489V26.8471ZM97.5573 26.1785C98.0071 26.1785 98.4562 26.1725 98.906 26.1815C99.0999 26.1858 99.241 26.0847 99.1968 25.9262C99.1287 25.6848 99.017 25.4313 98.8514 25.2461C98.6384 25.0077 98.3133 24.903 98.0335 24.7482C97.5187 24.4632 97.1119 24.6907 96.7468 24.897C96.4308 25.0761 96.2105 25.4385 95.9829 25.7453C95.8166 25.9692 95.9516 26.1743 96.2406 26.1773C96.6799 26.1821 97.1192 26.1785 97.5586 26.1785H97.5573Z" fill="#040404"/>
<path d="M75.3567 26.8501C75.2027 27.2628 75.4383 27.5508 75.6255 27.8025C75.8071 28.0469 76.101 28.2121 76.3538 28.4009C76.4029 28.4378 76.4912 28.4299 76.5612 28.4318C76.8471 28.439 77.133 28.4402 77.4189 28.4475C78.0055 28.462 78.4123 28.1407 78.7897 27.7523C78.843 27.6972 78.9694 27.6428 79.0228 27.6682C79.2799 27.7916 79.5235 27.9423 79.8395 28.122C79.4499 28.4481 79.1333 28.7518 78.7749 28.9975C78.5786 29.1324 78.3178 29.1935 78.0773 29.2431C77.6889 29.3236 77.2864 29.441 76.9017 29.4077C76.4918 29.372 76.0844 29.2431 75.6813 29.0949C75.1929 28.9158 74.9211 28.5443 74.5768 28.2321C74.4627 28.1286 74.3897 27.9683 74.3296 27.8212C74.0817 27.2168 73.9614 26.576 74.14 25.9498C74.2842 25.4452 74.4799 24.9278 74.9303 24.5775C75.2548 24.3246 75.5825 24.1116 75.9942 23.9652C76.4924 23.7885 76.9765 23.7691 77.4496 23.8496C77.9509 23.9355 78.4565 24.1068 78.8117 24.5315C78.9633 24.713 79.1572 24.8613 79.3044 25.0452C79.4143 25.1826 79.5112 25.3453 79.5585 25.5123C79.656 25.8554 79.7198 26.2075 79.7904 26.5573C79.8352 26.7793 79.7395 26.8556 79.5069 26.8538C78.2399 26.8447 76.9722 26.8495 75.7052 26.8495C75.5935 26.8495 75.4819 26.8495 75.3561 26.8495L75.3567 26.8501ZM76.9563 26.1785C77.3846 26.1785 77.8135 26.1882 78.2411 26.1725C78.3552 26.1682 78.5375 26.1095 78.5626 26.0351C78.6044 25.9117 78.5528 25.7525 78.5221 25.6122C78.5111 25.5613 78.4393 25.5269 78.4086 25.4766C77.9939 24.8002 77.2177 24.5503 76.4501 24.7742C75.8948 24.9363 75.6267 25.3526 75.361 25.7822C75.2242 26.0036 75.3457 26.1737 75.6095 26.1767C76.058 26.1821 76.5072 26.1785 76.9557 26.1785H76.9563Z" fill="#040404"/>
<path d="M107.341 29.1976C107.341 29.099 107.341 28.9913 107.341 28.8836C107.341 27.7751 107.343 26.6667 107.339 25.5582C107.337 24.909 106.825 24.5846 106.224 24.8666C105.884 25.0263 105.561 25.2224 105.24 25.4172C105.175 25.4571 105.113 25.5636 105.113 25.6399C105.103 26.4658 105.108 27.2923 105.103 28.1182C105.102 28.3372 105.196 28.4353 105.42 28.405C105.46 28.3996 105.502 28.4044 105.543 28.4044C106.118 28.405 106.108 28.4044 106.101 28.9647C106.099 29.1638 106.021 29.2376 105.835 29.2376C105.007 29.2376 104.179 29.2376 103.352 29.2376C103.168 29.2376 103.061 29.1728 103.087 28.9683C103.099 28.8788 103.1 28.7856 103.087 28.6966C103.054 28.4595 103.182 28.3965 103.39 28.4032C103.522 28.4074 103.657 28.3929 103.788 28.4056C104.009 28.4268 104.08 28.313 104.079 28.1212C104.079 27.1035 104.077 26.0858 104.079 25.0681C104.079 24.8854 103.997 24.8212 103.817 24.8291C103.586 24.8388 103.354 24.8315 103.106 24.8315V24.0286H105.079C105.102 24.2028 105.126 24.3844 105.151 24.5731C105.611 24.3226 105.98 23.9566 106.528 23.9868C106.59 23.9905 106.655 23.9402 106.72 23.9166C106.794 23.8894 106.874 23.8325 106.942 23.844C107.19 23.887 107.46 23.9064 107.671 24.0237C107.88 24.1405 108.056 24.3142 108.206 24.5465C108.395 24.8388 108.358 25.1129 108.365 25.393C108.385 26.2492 108.371 27.1059 108.373 27.9621C108.373 28.2531 108.51 28.3923 108.803 28.4038C108.854 28.4056 108.905 28.4038 108.956 28.4038C109.224 28.4066 109.359 28.5434 109.359 28.814C109.359 29.2358 109.359 29.2376 108.94 29.2388C108.449 29.2394 107.959 29.2364 107.468 29.2333C107.439 29.2333 107.41 29.217 107.341 29.1964L107.341 29.1976Z" fill="#040404"/>
<path d="M8.59666 26.5694C8.55555 25.0308 9.84161 23.7783 11.4878 23.8061C12.9721 23.8315 14.3477 25.0901 14.2857 26.6965C14.2268 28.2249 13.0512 29.406 11.4167 29.409C9.90603 29.4114 8.57089 28.2818 8.59666 26.5694ZM13.0825 26.6033C13.1114 26.5973 13.1396 26.5912 13.1684 26.5852C13.0782 26.2869 13.0077 25.9807 12.8941 25.6915C12.6904 25.1724 12.2315 24.9448 11.7277 24.8317C11.1915 24.7107 10.6951 24.891 10.3018 25.2431C10.0643 25.4561 9.77473 25.6848 9.80725 26.0769C9.81154 26.1296 9.76491 26.1846 9.75387 26.2403C9.72073 26.4091 9.63913 26.5918 9.67594 26.7455C9.74221 27.0214 9.88088 27.2804 9.99009 27.5466C10.2128 28.0881 10.7258 28.2685 11.216 28.3985C11.7609 28.5438 12.2376 28.2461 12.6328 27.9103C13.0212 27.5805 13.1574 27.1164 13.0825 26.6033Z" fill="#040404"/>
<path d="M56.9513 26.5384C56.9225 25.0354 58.1864 23.7721 59.8664 23.8053C61.3212 23.8338 62.7066 25.0935 62.6391 26.7042C62.5753 28.2199 61.4175 29.4064 59.7719 29.4082C58.2508 29.41 56.9182 28.2798 56.9513 26.5378V26.5384ZM61.4684 26.5777C61.4476 26.3478 61.4997 26.0725 61.3899 25.8964C61.1598 25.5304 60.9334 25.177 60.4708 24.9634C59.8584 24.6809 59.3197 24.7952 58.846 25.0917C58.5067 25.3041 58.114 25.6151 58.1551 26.1354C58.1576 26.1627 58.1349 26.1911 58.1287 26.2201C58.0907 26.3956 57.9931 26.585 58.0293 26.7447C58.0944 27.0303 58.2238 27.3056 58.3551 27.5724C58.6159 28.1037 59.1264 28.3034 59.659 28.4044C59.8787 28.4462 60.1419 28.3415 60.3664 28.2556C60.5941 28.1684 60.8328 28.0565 61.0052 27.8931C61.3746 27.5416 61.5181 27.089 61.4697 26.5783L61.4684 26.5777Z" fill="#040404"/>
<path d="M17.1685 24.8067V24.0074C17.7158 24.0074 18.2447 24.0093 18.7736 24.0068C18.9908 24.0056 18.9779 24.1527 18.9779 24.2973C18.9779 25.315 18.9779 26.3327 18.9779 27.3498C18.9779 27.4708 18.9761 27.5918 18.9791 27.7122C18.9938 28.3306 19.3687 28.6204 19.9572 28.4044C20.3136 28.2737 20.7155 28.1775 20.9665 27.855C21.0745 27.7165 21.1954 27.541 21.2009 27.3789C21.2266 26.6848 21.2144 25.989 21.2107 25.2938C21.2095 24.9931 21.064 24.8412 20.7867 24.8328C20.3854 24.8202 20.1917 24.6174 20.2057 24.2241C20.2075 24.1654 20.2173 24.1067 20.2253 24.0256H22.2317C22.2384 24.1629 22.2489 24.2815 22.2489 24.4001C22.2501 25.5691 22.2489 26.7375 22.2495 27.9065C22.2495 28.2368 22.4194 28.4032 22.7594 28.4056C22.8508 28.4063 22.9422 28.4056 23.0612 28.4056V29.2152H21.2549C21.1469 28.7409 21.0745 28.733 20.5916 29.0047C20.1854 29.2334 19.7295 29.2939 19.262 29.2915C18.9104 29.2896 18.5637 29.2297 18.3189 28.9956C18.1514 28.8352 18.0072 28.5696 17.9968 28.3451C17.9544 27.3897 17.9649 26.4319 17.9594 25.4753C17.9563 24.9229 17.8968 24.8582 17.3433 24.8309C17.2936 24.8285 17.2445 24.8182 17.1685 24.8073V24.8067Z" fill="#040404"/>
<path d="M163.682 29.2165C163.66 29.0144 163.641 28.8347 163.615 28.5939C162.97 29.2631 162.222 29.3992 161.427 29.2371C160.999 29.1493 160.642 28.8989 160.378 28.5044C160.086 28.0687 160.081 27.6101 160.212 27.1696C160.339 26.7436 160.626 26.4187 161.08 26.196C161.567 25.957 162.045 26.0145 162.533 26.0224C162.709 26.0254 162.881 26.1501 163.06 26.1803C163.23 26.2087 163.408 26.1858 163.582 26.1858C163.58 26.0121 163.59 25.8372 163.57 25.6654C163.557 25.5541 163.476 25.4488 163.469 25.3381C163.452 25.044 163.281 24.8927 163.023 24.7983C162.895 24.7518 162.778 24.6568 162.649 24.6428C162.146 24.589 161.713 24.7475 161.364 25.1142C161.238 25.2473 160.621 25.2709 160.442 25.1414C160.363 25.0845 160.295 25.0125 160.167 24.8976C160.517 24.6144 160.834 24.3228 161.188 24.0856C161.383 23.9549 161.636 23.8696 161.872 23.8466C162.276 23.8073 162.698 23.7728 163.093 23.8454C163.632 23.9452 164.145 24.1818 164.402 24.7015C164.512 24.9242 164.51 25.2122 164.515 25.4718C164.528 26.2674 164.519 27.0637 164.52 27.8594C164.52 28.2877 164.639 28.4045 165.074 28.4051C165.196 28.4051 165.317 28.4051 165.488 28.4051V29.2165H163.682ZM161.063 27.7335C161.104 27.811 161.166 27.8969 161.197 27.9925C161.276 28.2405 161.419 28.3821 161.691 28.4529C161.965 28.5243 162.201 28.5237 162.483 28.4632C162.838 28.3864 163.153 28.2581 163.397 28.0215C163.538 27.8848 163.716 27.6984 163.591 27.4279C163.423 27.0649 163.094 26.9257 162.752 26.8489C162.427 26.7757 162.094 26.6952 161.739 26.8217C161.469 26.9179 161.287 27.0492 161.201 27.3142C161.156 27.454 161.109 27.5931 161.063 27.7341V27.7335Z" fill="#040404"/>
<path d="M152.028 29.2206H150.221C150.202 29.024 150.185 28.8419 150.167 28.6549C149.864 28.8437 149.615 29.0542 149.327 29.1619C149.06 29.2618 148.75 29.2708 148.458 29.2866C147.691 29.3271 147.11 28.958 146.8 28.3148C146.607 27.9149 146.592 27.4224 146.838 26.9637C146.972 26.7139 147.121 26.5015 147.352 26.3472C147.486 26.257 147.645 26.2026 147.782 26.116C148.035 25.9557 149.281 25.986 149.543 26.1221C149.693 26.2008 149.895 26.1826 150.074 26.2074C150.087 26.0344 150.122 25.8589 150.106 25.6883C150.093 25.534 150.054 25.367 149.975 25.2363C149.878 25.0778 149.74 24.9362 149.594 24.817C149.492 24.7329 149.352 24.6627 149.222 24.6476C148.712 24.5883 148.254 24.7008 147.912 25.1135C147.785 25.2671 147.177 25.2738 146.971 25.1195C146.907 25.0717 146.848 25.0179 146.765 24.9483C147.113 24.4975 147.492 24.1544 148.077 23.9657C148.515 23.8241 148.93 23.8095 149.356 23.8259C150.02 23.8519 150.57 24.1387 150.954 24.6887C151.001 24.7553 151 24.8624 151.001 24.9513C151.013 25.9279 151.021 26.905 151.029 27.8816C151.032 28.2428 151.191 28.4026 151.555 28.4056C151.637 28.4062 151.719 28.4117 151.8 28.4056C151.973 28.3917 152.039 28.4655 152.03 28.6349C152.02 28.8231 152.028 29.0125 152.028 29.2218V29.2206ZM150.243 27.616C150.07 27.3921 149.973 27.1525 149.796 27.0618C149.513 26.9159 149.17 26.8881 148.865 26.775C148.557 26.6594 148.312 26.8506 148.045 26.9093C147.927 26.9347 147.799 27.118 147.763 27.2524C147.701 27.4841 147.575 27.7031 147.725 27.9845C147.86 28.2374 148.401 28.6591 148.686 28.5738C149.021 28.4734 149.371 28.3893 149.67 28.2205C149.886 28.0988 150.028 27.8508 150.242 27.616H150.243Z" fill="#040404"/>
<path d="M65.3297 24.0026C66.1691 24.0026 66.9956 23.9989 67.8215 24.0104C67.8834 24.011 67.954 24.1163 68.0012 24.1853C68.0252 24.2204 68.0068 24.2833 68.0074 24.3335C68.0102 24.6377 67.8591 24.8069 67.5539 24.8412C67.5049 24.8466 67.457 24.8624 67.3435 24.8872C67.7196 25.8613 68.0871 26.8131 68.4841 27.8423C68.9437 26.8385 69.3106 25.8825 69.6524 24.8636C69.3732 24.84 69.1848 24.8236 68.9854 24.8067V24.0213H71.4667C71.4667 24.2367 71.479 24.4539 71.4587 24.6687C71.4532 24.7268 71.3557 24.8079 71.2882 24.8218C71.1605 24.8484 71.0219 24.8218 70.8918 24.8424C70.809 24.8557 70.6912 24.8944 70.6623 24.9555C70.5586 25.177 70.4924 25.4154 70.4003 25.6429C70.2923 25.9085 70.1696 26.1681 70.0573 26.4319C69.9868 26.5989 69.9174 26.7665 69.8591 26.9377C69.7634 27.2154 69.6886 27.5004 69.5836 27.7745C69.4916 28.0135 69.3658 28.2398 69.2621 28.4752C69.1683 28.6888 69.0965 28.9126 68.9897 29.119C68.9504 29.1946 68.8443 29.2581 68.7559 29.2817C68.651 29.3096 68.5326 29.2896 68.4203 29.289C68.0466 29.289 67.8761 29.1383 67.7693 28.7983C67.673 28.4909 67.5282 28.1993 67.4098 27.8986C67.33 27.6971 67.2564 27.4938 67.1833 27.2905C67.0312 26.8645 66.8876 26.4355 66.7287 26.012C66.598 25.6628 66.4538 25.3192 66.3084 24.9761C66.2881 24.9289 66.2292 24.8847 66.1783 24.8678C66.1028 24.8424 66.0188 24.8363 65.9378 24.8333C65.4518 24.816 65.2494 24.5388 65.3303 24.002L65.3297 24.0026Z" fill="#040404"/>
<path d="M154.536 21.6114C155.147 21.6114 155.748 21.6071 156.348 21.6186C156.405 21.6198 156.486 21.7148 156.507 21.7808C156.536 21.8733 156.522 21.9798 156.522 22.0809C156.522 24.0165 156.522 25.9515 156.522 27.8871C156.522 28.2291 156.691 28.4022 157.031 28.4062C157.112 28.4074 157.193 28.4129 157.301 28.4177V29.2152H154.513V28.4056C154.685 28.4056 154.855 28.408 155.024 28.4056C155.355 28.4002 155.483 28.2779 155.483 27.9609C155.484 26.2776 155.477 24.5943 155.49 22.911C155.492 22.643 155.381 22.594 155.151 22.5891C154.429 22.5734 154.426 22.5649 154.492 21.8413C154.498 21.7735 154.517 21.7064 154.536 21.612V21.6114Z" fill="#040404"/>
<path d="M139.431 24.0039C139.998 24.0039 140.548 23.9978 141.097 24.0129C141.153 24.0148 141.245 24.1388 141.251 24.2114C141.271 24.4401 141.258 24.6719 141.33 24.949C141.479 24.8062 141.642 24.6749 141.775 24.5182C142.046 24.1987 142.347 23.9694 142.803 23.9875C142.958 23.9936 143.123 23.9167 143.274 23.8538C143.486 23.7649 143.661 23.8417 143.704 24.0644C143.709 24.094 143.71 24.1243 143.712 24.1545C143.766 24.8056 143.657 24.9453 142.993 24.9859C142.592 25.0107 142.202 25.0409 141.952 25.4004C141.824 25.5849 141.654 25.79 141.641 25.9939C141.597 26.6867 141.616 27.3837 141.607 28.079C141.603 28.3192 141.7 28.4372 141.956 28.4069C142.057 28.3948 142.161 28.4051 142.262 28.4051C142.542 28.4055 142.682 28.5418 142.683 28.8141C142.683 29.0981 142.539 29.2403 142.252 29.2407C141.424 29.2407 140.596 29.2431 139.768 29.2395C139.404 29.2377 139.419 29.231 139.4 28.7935C139.388 28.517 139.457 28.3676 139.766 28.4033C139.878 28.416 139.991 28.4063 140.103 28.4051C140.384 28.4009 140.557 28.2435 140.558 27.9743C140.562 27.077 140.562 26.1803 140.558 25.283C140.556 24.9659 140.414 24.8395 140.091 24.8322C139.328 24.8146 139.377 24.9526 139.431 24.0039Z" fill="#040404"/>
<path d="M25.9425 24.7945V24.0073H26.5303C26.5469 23.8688 26.5923 23.7453 26.5702 23.6352C26.488 23.2238 26.7352 22.9987 27.023 22.7857C27.1316 22.7052 27.2329 22.6157 27.3378 22.531C27.393 22.4868 27.4495 22.4444 27.5053 22.4009C27.5421 22.4759 27.6059 22.5503 27.6102 22.6272C27.6243 22.8886 27.6176 23.1512 27.6182 23.4131C27.62 23.9468 27.6752 24.0019 28.2097 24.0025C28.3293 24.0025 28.449 24.0025 28.5858 24.0025V24.8332C28.4115 24.8332 28.2416 24.8441 28.0735 24.8308C27.7685 24.806 27.6292 24.9766 27.6249 25.2362C27.6114 26.093 27.6102 26.9497 27.6268 27.8059C27.6311 28.0201 27.7133 28.2543 27.9685 28.3075C28.1452 28.3444 28.3367 28.3148 28.5637 28.3148V29.2387C28.1232 29.2387 27.6636 29.2823 27.22 29.2199C27.0034 29.1897 26.8267 28.9924 26.7395 28.7093C26.4027 27.6153 26.65 26.5038 26.5812 25.4032C26.5481 24.8713 26.5751 24.8695 26.0548 24.8266C26.026 24.8242 25.9977 24.8108 25.9419 24.7951L25.9425 24.7945Z" fill="#040404"/>
<path d="M112.046 24.8024V24.017C112.237 24.0079 112.425 23.9988 112.636 23.9886C112.647 23.8682 112.683 23.7562 112.664 23.654C112.582 23.2195 112.824 22.9799 113.16 22.7766C113.271 22.7095 113.352 22.5957 113.45 22.508C113.496 22.4668 113.553 22.436 113.604 22.4009C113.641 22.4644 113.706 22.5267 113.709 22.5915C113.721 22.8831 113.715 23.176 113.717 23.4682C113.719 23.902 113.817 24.0019 114.24 24.0019C114.381 24.0019 114.521 24.0019 114.679 24.0019V24.8332C114.498 24.8332 114.319 24.8393 114.141 24.832C113.851 24.8205 113.727 24.9984 113.723 25.2368C113.709 26.0936 113.705 26.9509 113.722 27.8077C113.732 28.2839 114.159 28.4945 114.657 28.2579V29.2381C114.219 29.2381 113.764 29.2659 113.317 29.2224C113.171 29.2084 112.989 29.0336 112.92 28.8878C112.798 28.6282 112.689 28.3365 112.68 28.0558C112.651 27.1288 112.67 26.2007 112.669 25.2731C112.669 24.8526 112.667 24.8532 112.239 24.8308C112.18 24.8278 112.12 24.8139 112.047 24.8024H112.046Z" fill="#040404"/>
<path d="M25.8045 20.8713C31.5765 20.8713 36.2556 16.2572 36.2556 10.5653C36.2556 4.87344 31.5765 0.259277 25.8045 0.259277C20.0326 0.259277 15.3535 4.87344 15.3535 10.5653C15.3535 16.2572 20.0326 20.8713 25.8045 20.8713Z" fill="#DF1E26"/>
</g>
<defs>
<clipPath id="clip0_2222_9983">
<rect width="168.901" height="31.1934" fill="white" transform="translate(0 0.259277)"/>
</clipPath>
</defs>
</svg>
