<svg width="10" height="11" viewBox="0 0 10 11" fill="none" xmlns="http://www.w3.org/2000/svg">
<path d="M8.375 2.20898C8.47446 2.20898 8.56984 2.24729 8.64017 2.31549C8.71049 2.38368 8.75 2.47617 8.75 2.5726V4.57252C8.50136 4.57252 8.2629 4.66829 8.08709 4.83877C7.91127 5.00925 7.8125 5.24047 7.8125 5.48157C7.8125 5.72266 7.91127 5.95388 8.08709 6.12436C8.2629 6.29485 8.50136 6.39062 8.75 6.39062V8.39053C8.75 8.48697 8.71049 8.57946 8.64017 8.64765C8.56984 8.71584 8.47446 8.75415 8.375 8.75415H1.625C1.52554 8.75415 1.43016 8.71584 1.35983 8.64765C1.28951 8.57946 1.25 8.48697 1.25 8.39053V6.39062C1.49864 6.39062 1.7371 6.29485 1.91291 6.12436C2.08873 5.95388 2.1875 5.72266 2.1875 5.48157C2.1875 5.24047 2.08873 5.00925 1.91291 4.83877C1.7371 4.66829 1.49864 4.57252 1.25 4.57252V2.5726C1.25 2.47617 1.28951 2.38368 1.35983 2.31549C1.43016 2.24729 1.52554 2.20898 1.625 2.20898H8.375ZM8 2.93623H2V4.01545L2.0585 4.0449C2.31287 4.17946 2.52722 4.37526 2.68091 4.61345C2.8346 4.85164 2.92245 5.12419 2.936 5.40484L2.9375 5.48157C2.93755 5.77546 2.85594 6.06394 2.70127 6.31668C2.54659 6.56942 2.32456 6.7771 2.0585 6.91787L2 6.94769V8.02691H8V6.94732L7.9415 6.91823C7.68713 6.78368 7.47278 6.58788 7.31909 6.34969C7.1654 6.1115 7.07755 5.83895 7.064 5.55829L7.0625 5.48157C7.0625 4.86196 7.41763 4.32271 7.9415 4.04527L8 4.01509V2.93623ZM6.5 4.39071V6.57243H3.5V4.39071H6.5Z" fill="#375DFB"/>
</svg>
