<svg width="16" height="17" viewBox="0 0 16 17" fill="none" xmlns="http://www.w3.org/2000/svg">
<path d="M8 14.5C4.6862 14.5 2 11.8138 2 8.5C2 5.1862 4.6862 2.5 8 2.5C11.3138 2.5 14 5.1862 14 8.5C14 11.8138 11.3138 14.5 8 14.5ZM8 13.3C9.27304 13.3 10.4939 12.7943 11.3941 11.8941C12.2943 10.9939 12.8 9.77304 12.8 8.5C12.8 7.22696 12.2943 6.00606 11.3941 5.10589C10.4939 4.20571 9.27304 3.7 8 3.7C6.72696 3.7 5.50606 4.20571 4.60589 5.10589C3.70571 6.00606 3.2 7.22696 3.2 8.5C3.2 9.77304 3.70571 10.9939 4.60589 11.8941C5.50606 12.7943 6.72696 13.3 8 13.3ZM8.6 8.5H11V9.7H7.4V5.5H8.6V8.5Z" fill="#525866"/>
</svg>
