<svg width="20" height="20" viewBox="0 0 20 20" fill="none" xmlns="http://www.w3.org/2000/svg">
<path d="M14.3807 12.7442L14.5127 12.877L14.6462 12.7442C14.8029 12.5875 14.989 12.4632 15.1937 12.3784C15.3985 12.2936 15.6179 12.25 15.8395 12.25C16.0611 12.25 16.2805 12.2936 16.4853 12.3784C16.69 12.4632 16.876 12.5875 17.0327 12.7442C17.1894 12.9009 17.3138 13.087 17.3986 13.2917C17.4834 13.4965 17.527 13.7159 17.527 13.9375C17.527 14.1591 17.4834 14.3785 17.3986 14.5833C17.3138 14.788 17.1894 14.974 17.0327 15.1307L14.5127 17.65L11.9942 15.1307C11.6778 14.8143 11.5 14.3851 11.5 13.9375C11.5 13.4899 11.6778 13.0607 11.9942 12.7442C12.3107 12.4278 12.7399 12.25 13.1875 12.25C13.6351 12.25 14.0643 12.4278 14.3807 12.7442ZM10 11.5V17.5H4C4.00002 15.9412 4.6067 14.4436 5.6916 13.3242C6.7765 12.2049 8.25444 11.5517 9.8125 11.503L10 11.5ZM10 1.75C12.4862 1.75 14.5 3.76375 14.5 6.25C14.5 8.73625 12.4862 10.75 10 10.75C7.51375 10.75 5.5 8.73625 5.5 6.25C5.5 3.76375 7.51375 1.75 10 1.75Z" fill="#375DFB"/>
</svg>
