<svg width="30" height="31" viewBox="0 0 30 31" fill="none" xmlns="http://www.w3.org/2000/svg">
<path opacity="0.4" d="M2.5 9.8182C2.5 8.25127 3.74566 6.97729 5.27778 6.97729H16.3889C17.921 6.97729 19.1667 8.25127 19.1667 9.8182V12.8455V18.1545V21.1818C19.1667 22.7488 17.921 24.0227 16.3889 24.0227H5.27778C3.74566 24.0227 2.5 22.7488 2.5 21.1818V9.8182Z" fill="#AE3691"/>
<path d="M27.4998 9.81894C27.4998 9.29515 27.2177 8.81575 26.7663 8.56717C26.3149 8.31859 25.7681 8.34522 25.3384 8.63819L19.1665 12.8463V18.1552L25.3384 22.3633C25.7637 22.6519 26.3106 22.6829 26.7663 22.4344C27.2221 22.1858 27.4998 21.7064 27.4998 21.1826V9.81894Z" fill="#AE3691"/>
</svg>
