<svg width="210" height="148" viewBox="0 0 210 148" fill="none" xmlns="http://www.w3.org/2000/svg">
<path d="M101.582 62.482C101.798 61.6557 101.434 61.4983 100.794 60.2097C100.331 59.3047 100.351 58.8521 99.6908 58.3603C99.031 57.8684 98.1151 57.8488 97.4454 57.4848C97.0023 57.2389 96.7462 56.0584 96.0076 55.7141C93.7918 54.7304 93.2501 55.301 92.1964 55.5666C90.8669 55.901 91.2116 54.7894 89.242 54.8288C88.7299 54.8485 88.2128 54.9075 87.7056 55.0059C86.6617 55.1731 86.0216 56.1371 85.2239 56.3535C84.4262 56.5699 83.9437 55.5961 81.2847 57.3963C80.6446 57.8291 80.4968 58.8128 80.1817 59.3637C79.4431 60.731 77.7098 61.3311 78.1234 63.5346C78.3303 64.5773 78.9113 65.0593 79.1969 65.9545C79.2658 66.2004 78.9999 66.7612 78.9605 67.0661C78.8768 67.6268 78.9655 68.2023 79.2067 68.7187C77.5523 70.6173 79.0492 72.6536 81.1764 74.0209C81.2601 74.2275 81.329 74.439 81.3832 74.6603C81.3733 74.7046 81.3733 74.7489 81.3832 74.798C81.3832 76.5786 81.2059 77.6213 82.1513 79.1854C82.4763 79.7067 82.8702 80.8478 83.2838 81.4381C83.8747 82.3037 84.3967 82.2939 85.1648 83.3268C85.0417 83.7252 84.9383 84.1334 84.8497 84.5466C84.894 84.3597 84.9383 84.1679 84.9876 83.9809C85.1353 84.1482 85.2879 84.3056 85.4603 84.458H85.4652C85.4997 84.2957 85.544 84.1334 85.5883 83.976C86.2432 84.399 86.9523 84.7286 87.6958 84.9597C89.6063 85.7861 90.9555 85.5008 92.9448 85.0581C93.3634 84.8958 93.7573 84.6745 94.1069 84.399C94.491 84.2466 94.8849 84.1383 95.2887 84.0646C95.3379 84.3007 95.3773 84.5318 95.4019 84.7728C95.8106 84.64 96.2144 84.4925 96.6182 84.3105C96.628 84.3056 96.6379 84.3007 96.6477 84.2957C96.4705 84.2957 96.303 84.3105 96.1553 84.3302C96.0765 84.3302 96.0568 84.399 95.9288 84.5466C95.722 83.3858 95.6728 84.0154 96.1455 83.4153C96.4606 83.0218 96.5492 82.5595 96.8939 82.2841C97.2386 82.0086 97.3863 81.4971 97.7113 81.1331C98.1742 80.5626 98.4795 79.8838 98.5977 79.1657C98.7355 78.182 99.5135 77.1983 99.3264 76.126C99.1984 75.3096 99.159 74.0799 99.0999 74.0012C99.2181 73.2733 99.1688 73.3225 99.7499 72.7519C100.863 71.6895 101.887 70.6173 101.434 69.063C101.326 68.5958 101.089 68.1629 100.754 67.8236C101.326 67.5088 101.276 66.3873 101.138 65.807C100.971 65.0495 100.154 64.961 100.488 64.3117C100.951 63.7609 101.321 63.146 101.582 62.482ZM101.01 69.2106C101.365 70.5189 100.39 71.4338 99.415 72.3388C98.6666 73.0372 98.7257 73.0667 98.5189 74.1783C98.3121 75.2899 98.0166 76.854 97.0712 77.5229C96.6773 77.7344 96.308 78 95.9781 78.3099C95.6826 78.664 95.5841 79.1165 95.1705 79.1362C94.5993 79.1362 94.3236 78.9001 93.516 79.3526C92.7085 79.8051 92.5312 80.1986 91.832 80.1396C91.1328 80.0806 91.0442 79.8838 90.6404 79.992C90.2366 80.1002 90.2071 80.356 89.4291 80.1888C89.0401 80.0609 88.6264 80.0166 88.2178 80.0609C87.9715 80.0609 87.6663 80.2281 87.5284 80.1199C86.9079 79.6084 86.5436 78.7722 85.7459 78.3296C85.2141 78.0443 84.3868 78.0246 83.9338 77.7295C83.2494 76.8589 82.6486 75.9293 82.1316 74.9554C82.0381 74.5374 81.9051 74.1291 81.7377 73.7356C81.5013 73.4209 77.2864 71.178 80.0143 68.7974C80.418 68.4433 80.7726 68.8663 81.2847 68.9351C81.393 69.0188 81.5112 69.0827 81.6392 69.1319C82.0627 69.2499 82.3089 68.8368 82.4074 68.3843C82.5551 67.617 82.4074 66.4169 82.5551 65.8857C82.7717 65.2856 83.0426 64.7052 83.3528 64.1543C83.4217 64.0264 83.9043 63.3379 84.0028 63.3379C84.2588 63.3379 83.8255 64.3216 84.4853 64.5577C85.1451 64.7937 85.6966 64.4003 86.1693 63.7707C86.6421 63.1411 86.7602 63.0526 87.3117 63.3575C87.8632 63.6625 88.1291 63.8986 88.6708 63.7805C89.0844 63.6477 89.4488 63.4018 89.7245 63.0723C90.0298 62.7968 90.1874 62.6591 90.7093 63.0034C91.0245 63.2542 91.3544 63.4805 91.6941 63.692C92.3933 63.9576 92.8464 62.964 93.0532 63.0132C93.6244 63.1411 93.7622 63.9969 94.7372 63.81C94.9932 63.81 95.2887 63.6526 95.466 63.6035C95.7023 63.7608 95.9781 64.0658 96.2243 64.2429C96.4705 64.4199 96.8053 64.3609 96.9235 64.8724C96.953 65.3692 97.017 65.866 97.1204 66.3578C97.2583 66.6923 97.1204 67.6858 97.5242 68.2564C98.1348 69.0532 99.1393 68.3646 100.242 68.0203C100.666 68.281 100.946 68.7187 101.01 69.2106ZM96.6477 84.2957C96.8644 84.2908 97.0958 84.3007 97.3075 84.3351C97.0909 84.2957 96.8644 84.2859 96.6477 84.2957ZM101.582 62.482C101.798 61.6557 101.434 61.4983 100.794 60.2097C100.331 59.3047 100.351 58.8521 99.6908 58.3603C99.031 57.8684 98.1151 57.8488 97.4454 57.4848C97.0023 57.2389 96.7462 56.0584 96.0076 55.7141C93.7918 54.7304 93.2501 55.301 92.1964 55.5666C90.8669 55.901 91.2116 54.7894 89.242 54.8288C88.7299 54.8485 88.2128 54.9075 87.7056 55.0059C86.6617 55.1731 86.0216 56.1371 85.2239 56.3535C84.4262 56.5699 83.9437 55.5961 81.2847 57.3963C80.6446 57.8291 80.4968 58.8128 80.1817 59.3637C79.4431 60.731 77.7098 61.3311 78.1234 63.5346C78.3303 64.5773 78.9113 65.0593 79.1969 65.9545C79.2658 66.2004 78.9999 66.7612 78.9605 67.0661C78.8768 67.6268 78.9655 68.2023 79.2067 68.7187C77.5523 70.6173 79.0492 72.6536 81.1764 74.0209C81.2601 74.2275 81.329 74.439 81.3832 74.6603C81.3733 74.7046 81.3733 74.7489 81.3832 74.798C81.3832 76.5786 81.2059 77.6213 82.1513 79.1854C82.4763 79.7067 82.8702 80.8478 83.2838 81.4381C83.8747 82.3037 84.3967 82.2939 85.1648 83.3268C85.0417 83.7252 84.9383 84.1334 84.8497 84.5466C84.894 84.3597 84.9383 84.1679 84.9876 83.9809C85.1353 84.1482 85.2879 84.3056 85.4603 84.458H85.4652C85.4997 84.2957 85.544 84.1334 85.5883 83.976C86.2432 84.399 86.9523 84.7286 87.6958 84.9597C89.6063 85.7861 90.9555 85.5008 92.9448 85.0581C93.3634 84.8958 93.7573 84.6745 94.1069 84.399C94.491 84.2466 94.8849 84.1383 95.2887 84.0646C95.3379 84.3007 95.3773 84.5318 95.4019 84.7728C95.8106 84.64 96.2144 84.4925 96.6182 84.3105C96.628 84.3056 96.6379 84.3007 96.6477 84.2957C96.4705 84.2957 96.303 84.3105 96.1553 84.3302C96.0765 84.3302 96.0568 84.399 95.9288 84.5466C95.722 83.3858 95.6728 84.0154 96.1455 83.4153C96.4606 83.0218 96.5492 82.5595 96.8939 82.2841C97.2386 82.0086 97.3863 81.4971 97.7113 81.1331C98.1742 80.5626 98.4795 79.8838 98.5977 79.1657C98.7355 78.182 99.5135 77.1983 99.3264 76.126C99.1984 75.3096 99.159 74.0799 99.0999 74.0012C99.2181 73.2733 99.1688 73.3225 99.7499 72.7519C100.863 71.6895 101.887 70.6173 101.434 69.063C101.326 68.5958 101.089 68.1629 100.754 67.8236C101.326 67.5088 101.276 66.3873 101.138 65.807C100.971 65.0495 100.154 64.961 100.488 64.3117C100.951 63.7609 101.321 63.146 101.582 62.482ZM101.01 69.2106C101.365 70.5189 100.39 71.4338 99.415 72.3388C98.6666 73.0372 98.7257 73.0667 98.5189 74.1783C98.3121 75.2899 98.0166 76.854 97.0712 77.5229C96.6773 77.7344 96.308 78 95.9781 78.3099C95.6826 78.664 95.5841 79.1165 95.1705 79.1362C94.5993 79.1362 94.3236 78.9001 93.516 79.3526C92.7085 79.8051 92.5312 80.1986 91.832 80.1396C91.1328 80.0806 91.0442 79.8838 90.6404 79.992C90.2366 80.1002 90.2071 80.356 89.4291 80.1888C89.0401 80.0609 88.6264 80.0166 88.2178 80.0609C87.9715 80.0609 87.6663 80.2281 87.5284 80.1199C86.9079 79.6084 86.5436 78.7722 85.7459 78.3296C85.2141 78.0443 84.3868 78.0246 83.9338 77.7295C83.2494 76.8589 82.6486 75.9293 82.1316 74.9554C82.0381 74.5374 81.9051 74.1291 81.7377 73.7356C81.5013 73.4209 77.2864 71.178 80.0143 68.7974C80.418 68.4433 80.7726 68.8663 81.2847 68.9351C81.393 69.0188 81.5112 69.0827 81.6392 69.1319C82.0627 69.2499 82.3089 68.8368 82.4074 68.3843C82.5551 67.617 82.4074 66.4169 82.5551 65.8857C82.7717 65.2856 83.0426 64.7052 83.3528 64.1543C83.4217 64.0264 83.9043 63.3379 84.0028 63.3379C84.2588 63.3379 83.8255 64.3216 84.4853 64.5577C85.1451 64.7937 85.6966 64.4003 86.1693 63.7707C86.6421 63.1411 86.7602 63.0526 87.3117 63.3575C87.8632 63.6625 88.1291 63.8986 88.6708 63.7805C89.0844 63.6477 89.4488 63.4018 89.7245 63.0723C90.0298 62.7968 90.1874 62.6591 90.7093 63.0034C91.0245 63.2542 91.3544 63.4805 91.6941 63.692C92.3933 63.9576 92.8464 62.964 93.0532 63.0132C93.6244 63.1411 93.7622 63.9969 94.7372 63.81C94.9932 63.81 95.2887 63.6526 95.466 63.6035C95.7023 63.7608 95.9781 64.0658 96.2243 64.2429C96.4705 64.4199 96.8053 64.3609 96.9235 64.8724C96.953 65.3692 97.017 65.866 97.1204 66.3578C97.2583 66.6923 97.1204 67.6858 97.5242 68.2564C98.1348 69.0532 99.1393 68.3646 100.242 68.0203C100.666 68.281 100.946 68.7187 101.01 69.2106ZM96.6477 84.2957C96.8644 84.2908 97.0958 84.3007 97.3075 84.3351C97.0909 84.2957 96.8644 84.2859 96.6477 84.2957ZM101.582 62.482C101.798 61.6557 101.434 61.4983 100.794 60.2097C100.331 59.3047 100.351 58.8521 99.6908 58.3603C99.031 57.8684 98.1151 57.8488 97.4454 57.4848C97.0023 57.2389 96.7462 56.0584 96.0076 55.7141C93.7918 54.7304 93.2501 55.301 92.1964 55.5666C90.8669 55.901 91.2116 54.7894 89.242 54.8288C88.7299 54.8485 88.2128 54.9075 87.7056 55.0059C86.6617 55.1731 86.0216 56.1371 85.2239 56.3535C84.4262 56.5699 83.9437 55.5961 81.2847 57.3963C80.6446 57.8291 80.4968 58.8128 80.1817 59.3637C79.4431 60.731 77.7098 61.3311 78.1234 63.5346C78.3303 64.5773 78.9113 65.0593 79.1969 65.9545C79.2658 66.2004 78.9999 66.7612 78.9605 67.0661C78.8768 67.6268 78.9655 68.2023 79.2067 68.7187C77.5523 70.6173 79.0492 72.6536 81.1764 74.0209C81.2601 74.2275 81.329 74.439 81.3832 74.6603C81.3733 74.7046 81.3733 74.7489 81.3832 74.798C81.3832 76.5786 81.2059 77.6213 82.1513 79.1854C82.4763 79.7067 82.8702 80.8478 83.2838 81.4381C83.8747 82.3037 84.3967 82.2939 85.1648 83.3268C85.0417 83.7252 84.9383 84.1334 84.8497 84.5466C84.894 84.3597 84.9383 84.1679 84.9876 83.9809C85.1353 84.1482 85.2879 84.3056 85.4603 84.458H85.4652C85.4997 84.2957 85.544 84.1334 85.5883 83.976C86.2432 84.399 86.9523 84.7286 87.6958 84.9597C89.6063 85.7861 90.9555 85.5008 92.9448 85.0581C93.3634 84.8958 93.7573 84.6745 94.1069 84.399C94.491 84.2466 94.8849 84.1383 95.2887 84.0646C95.3379 84.3007 95.3773 84.5318 95.4019 84.7728C95.8106 84.64 96.2144 84.4925 96.6182 84.3105C96.628 84.3056 96.6379 84.3007 96.6477 84.2957C96.4705 84.2957 96.303 84.3105 96.1553 84.3302C96.0765 84.3302 96.0568 84.399 95.9288 84.5466C95.722 83.3858 95.6728 84.0154 96.1455 83.4153C96.4606 83.0218 96.5492 82.5595 96.8939 82.2841C97.2386 82.0086 97.3863 81.4971 97.7113 81.1331C98.1742 80.5626 98.4795 79.8838 98.5977 79.1657C98.7355 78.182 99.5135 77.1983 99.3264 76.126C99.1984 75.3096 99.159 74.0799 99.0999 74.0012C99.2181 73.2733 99.1688 73.3225 99.7499 72.7519C100.863 71.6895 101.887 70.6173 101.434 69.063C101.326 68.5958 101.089 68.1629 100.754 67.8236C101.326 67.5088 101.276 66.3873 101.138 65.807C100.971 65.0495 100.154 64.961 100.488 64.3117C100.951 63.7609 101.321 63.146 101.582 62.482ZM101.01 69.2106C101.365 70.5189 100.39 71.4338 99.415 72.3388C98.6666 73.0372 98.7257 73.0667 98.5189 74.1783C98.3121 75.2899 98.0166 76.854 97.0712 77.5229C96.6773 77.7344 96.308 78 95.9781 78.3099C95.6826 78.664 95.5841 79.1165 95.1705 79.1362C94.5993 79.1362 94.3236 78.9001 93.516 79.3526C92.7085 79.8051 92.5312 80.1986 91.832 80.1396C91.1328 80.0806 91.0442 79.8838 90.6404 79.992C90.2366 80.1002 90.2071 80.356 89.4291 80.1888C89.0401 80.0609 88.6264 80.0166 88.2178 80.0609C87.9715 80.0609 87.6663 80.2281 87.5284 80.1199C86.9079 79.6084 86.5436 78.7722 85.7459 78.3296C85.2141 78.0443 84.3868 78.0246 83.9338 77.7295C83.2494 76.8589 82.6486 75.9293 82.1316 74.9554C82.0381 74.5374 81.9051 74.1291 81.7377 73.7356C81.5013 73.4209 77.2864 71.178 80.0143 68.7974C80.418 68.4433 80.7726 68.8663 81.2847 68.9351C81.393 69.0188 81.5112 69.0827 81.6392 69.1319C82.0627 69.2499 82.3089 68.8368 82.4074 68.3843C82.5551 67.617 82.4074 66.4169 82.5551 65.8857C82.7717 65.2856 83.0426 64.7052 83.3528 64.1543C83.4217 64.0264 83.9043 63.3379 84.0028 63.3379C84.2588 63.3379 83.8255 64.3216 84.4853 64.5577C85.1451 64.7937 85.6966 64.4003 86.1693 63.7707C86.6421 63.1411 86.7602 63.0526 87.3117 63.3575C87.8632 63.6625 88.1291 63.8986 88.6708 63.7805C89.0844 63.6477 89.4488 63.4018 89.7245 63.0723C90.0298 62.7968 90.1874 62.6591 90.7093 63.0034C91.0245 63.2542 91.3544 63.4805 91.6941 63.692C92.3933 63.9576 92.8464 62.964 93.0532 63.0132C93.6244 63.1411 93.7622 63.9969 94.7372 63.81C94.9932 63.81 95.2887 63.6526 95.466 63.6035C95.7023 63.7608 95.9781 64.0658 96.2243 64.2429C96.4705 64.4199 96.8053 64.3609 96.9235 64.8724C96.953 65.3692 97.017 65.866 97.1204 66.3578C97.2583 66.6923 97.1204 67.6858 97.5242 68.2564C98.1348 69.0532 99.1393 68.3646 100.242 68.0203C100.666 68.281 100.946 68.7187 101.01 69.2106ZM96.6477 84.2957C96.8644 84.2908 97.0958 84.3007 97.3075 84.3351C97.0909 84.2957 96.8644 84.2859 96.6477 84.2957ZM119.81 74.5718C119.466 63.4657 115.95 53.8451 105.875 48.9954C101.951 47.087 97.7015 45.9459 93.3486 45.6311C58.3484 42.3455 46.7769 83.012 68.8859 99.2628C70.6438 100.552 72.4559 101.653 74.2975 102.578C87.8534 109.4 103.069 106.621 112.03 96.902C117.038 91.4719 120.091 83.8727 119.81 74.5718ZM98.6469 47.1755C101.045 47.7018 103.369 48.5281 105.56 49.6348C71.3184 40.265 53.3062 75.2702 68.0045 95.451C68.2212 95.751 68.4428 96.0461 68.6742 96.3363C68.7825 96.4691 68.8908 96.6068 68.9992 96.7396C69.2503 97.0397 69.5113 97.3446 69.7772 97.6397C69.9003 97.7775 70.0234 97.9102 70.1514 98.043C71.0574 99.012 72.0619 99.9367 73.1501 100.807C73.3816 100.989 73.6229 101.171 73.8641 101.348C74.1054 101.535 74.3565 101.712 74.6077 101.889C74.5092 101.84 74.4107 101.791 74.3122 101.737C43.9899 86.3664 59.6385 39.0452 98.6469 47.1755ZM84.4853 64.5577C85.1451 64.7937 85.6966 64.4003 86.1693 63.7707C86.6421 63.1411 86.7602 63.0526 87.3117 63.3575C87.8632 63.6625 88.1291 63.8986 88.6708 63.7805C89.0844 63.6477 89.4488 63.4018 89.7245 63.0723C90.0298 62.7968 90.1874 62.6591 90.7093 63.0034C91.0245 63.2542 91.3544 63.4805 91.6941 63.692C92.3933 63.9576 92.8464 62.964 93.0532 63.0132C93.6244 63.1411 93.7622 63.9969 94.7372 63.81C94.9932 63.81 95.2887 63.6526 95.466 63.6035C95.7023 63.7608 95.9781 64.0658 96.2243 64.2429C96.4705 64.4199 96.8053 64.3609 96.9235 64.8724C96.953 65.3692 97.017 65.866 97.1204 66.3578C97.2583 66.6923 97.1204 67.6858 97.5242 68.2564C98.1348 69.0532 99.1393 68.3646 100.242 68.0203C100.666 68.281 100.946 68.7187 101.01 69.2106C101.365 70.5189 100.39 71.4338 99.415 72.3388C98.6666 73.0372 98.7257 73.0667 98.5189 74.1783C98.3121 75.2899 98.0166 76.854 97.0712 77.5229C96.6773 77.7344 96.308 78 95.9781 78.3099C95.6826 78.664 95.5841 79.1165 95.1705 79.1362C94.5993 79.1362 94.3236 78.9001 93.516 79.3526C92.7085 79.8051 92.5312 80.1986 91.832 80.1396C91.1328 80.0806 91.0442 79.8838 90.6404 79.992C90.2366 80.1002 90.2071 80.356 89.4291 80.1888C89.0401 80.0609 88.6264 80.0166 88.2178 80.0609C87.9715 80.0609 87.6663 80.2281 87.5284 80.1199C86.9079 79.6084 86.5436 78.7722 85.7459 78.3296C85.2141 78.0443 84.3868 78.0246 83.9338 77.7295C83.2494 76.8589 82.6486 75.9293 82.1316 74.9554C82.0381 74.5374 81.9051 74.1291 81.7377 73.7356C81.5013 73.4209 77.2864 71.178 80.0143 68.7974C80.418 68.4433 80.7726 68.8663 81.2847 68.9351C81.393 69.0188 81.5112 69.0827 81.6392 69.1319C82.0627 69.2499 82.3089 68.8368 82.4074 68.3843C82.5551 67.617 82.4074 66.4169 82.5551 65.8857C82.7717 65.2856 83.0426 64.7052 83.3528 64.1543C83.4217 64.0264 83.9043 63.3379 84.0028 63.3379C84.2588 63.3379 83.8255 64.3216 84.4853 64.5577ZM98.8832 90.6652C98.1003 90.5374 99.8779 90.8669 92.7676 89.8193C93.3289 88.8355 95.6334 85.5598 96.2833 84.645C96.6871 84.645 97.6916 84.6941 97.8098 85.0384C98.3268 86.878 98.6863 88.7569 98.8832 90.6603C98.8931 90.6603 98.9029 90.6652 98.9128 90.6652H98.8832ZM95.4364 85.0483C95.4364 85.1466 95.3084 85.2844 95.2099 85.4516C94.3728 86.4353 92.9842 88.206 92.2555 89.3077C92.029 89.6717 91.7926 90.0357 92.0191 90.2914C92.0585 90.3259 92.0979 90.3554 92.1471 90.38C91.4184 91.5211 91.1623 91.7572 90.9654 92.1703C90.5222 91.7375 89.5472 90.6062 89.1435 90.134C89.2813 89.9471 89.2912 89.7602 88.7791 89.1503C88.139 88.4027 87.0951 87.4092 86.3762 86.7402C85.9921 86.2632 85.6326 85.7713 85.2929 85.2647C85.3175 85.1221 85.3421 84.9794 85.3766 84.8417C85.4012 84.7138 85.4307 84.5859 85.4603 84.458H85.4652C85.4997 84.2957 85.544 84.1334 85.5883 83.976C86.2432 84.399 86.9523 84.7286 87.6958 84.9597C89.6063 85.7861 90.9555 85.5008 92.9448 85.0581C93.3634 84.8958 93.7573 84.6745 94.1069 84.399C94.491 84.2466 94.8849 84.1383 95.2887 84.0646C95.3379 84.3007 95.3773 84.5318 95.4019 84.7728C95.4167 84.8663 95.4266 84.9548 95.4364 85.0483ZM88.4147 89.7504H88.4443C81.5506 91.7178 84.1997 90.921 82.0725 91.4916C81.6786 90.1931 82.496 87.4485 82.9687 86.1599C83.0967 85.8057 83.9535 85.3631 84.249 85.1762C84.9974 86.0025 87.7253 88.8749 88.4147 89.7504ZM87.4397 90.7439L87.4594 90.7341L88.5033 90.4193C89.2223 91.3145 90.0052 92.1556 90.8472 92.9376C91.1131 93.0655 91.3002 92.9376 91.4873 92.672C91.8812 92.1998 92.6199 91.0292 92.935 90.5275L95.2198 90.8817C93.8804 95.5985 93.2157 100.488 93.2501 105.396V105.519C92.2653 105.618 91.1623 105.677 90.1086 105.686C90.1086 105.637 90.1086 105.593 90.1037 105.544C90.0052 100.502 89.1041 95.5051 87.4397 90.7439ZM112.129 96.0658C112.129 96.0658 112.114 96.0806 112.109 96.0855C109.258 90.7538 104.275 86.8829 98.4007 85.4319L98.184 84.8515C98.1496 84.7679 98.0954 84.6991 98.0314 84.64C98.0117 84.6204 97.992 84.6007 97.9674 84.581C97.8 84.4531 97.5636 84.3794 97.3075 84.3351C97.0909 84.2957 96.8644 84.2859 96.6477 84.2957C96.4705 84.2957 96.303 84.3105 96.1553 84.3302C96.0765 84.3302 96.0568 84.399 95.9288 84.5466C95.722 83.3858 95.6728 84.0154 96.1455 83.4153C96.4606 83.0218 96.5492 82.5595 96.8939 82.2841C97.2386 82.0086 97.3863 81.4971 97.7113 81.1331C98.1742 80.5626 98.4795 79.8838 98.5977 79.1657C98.7355 78.182 99.5135 77.1983 99.3264 76.126C99.1984 75.3096 99.159 74.0799 99.0999 74.0012C99.2181 73.2733 99.1688 73.3225 99.7499 72.7519C100.863 71.6895 101.887 70.6173 101.434 69.063C101.326 68.5958 101.089 68.1629 100.754 67.8236C101.326 67.5088 101.276 66.3873 101.138 65.807C100.971 65.0495 100.154 64.961 100.488 64.3117C100.951 63.7609 101.321 63.146 101.582 62.482C101.798 61.6557 101.434 61.4983 100.794 60.2097C100.331 59.3047 100.351 58.8521 99.6908 58.3603C99.031 57.8684 98.1151 57.8488 97.4454 57.4848C97.0023 57.2389 96.7462 56.0584 96.0076 55.7141C93.7918 54.7304 93.2501 55.301 92.1964 55.5666C90.8669 55.901 91.2116 54.7894 89.242 54.8288C88.7299 54.8485 88.2128 54.9075 87.7056 55.0059C86.6617 55.1731 86.0216 56.1371 85.2239 56.3535C84.4262 56.5699 83.9437 55.5961 81.2847 57.3963C80.6446 57.8291 80.4968 58.8128 80.1817 59.3637C79.4431 60.731 77.7098 61.3311 78.1234 63.5346C78.3303 64.5773 78.9113 65.0593 79.1969 65.9545C79.2658 66.2004 78.9999 66.7612 78.9605 67.0661C78.8768 67.6268 78.9655 68.2023 79.2067 68.7187C77.5523 70.6173 79.0492 72.6536 81.1764 74.0209C81.2601 74.2275 81.329 74.439 81.3832 74.6603C81.3733 74.7046 81.3733 74.7489 81.3832 74.798C81.3832 76.5786 81.2059 77.6213 82.1513 79.1854C82.4763 79.7067 82.8702 80.8478 83.2838 81.4381C83.8747 82.3037 84.3967 82.2939 85.1648 83.3268C85.0417 83.7252 84.9383 84.1334 84.8497 84.5466C84.8103 84.7384 84.7709 84.9302 84.7315 85.1171C84.4656 84.881 84.4164 84.7925 84.2982 84.8515C83.8107 85.0335 83.3528 85.2844 82.9392 85.5992C77.5818 87.3698 71.8305 90.7833 68.5708 95.4362C68.4871 95.3182 68.4034 95.2001 68.3197 95.0821C59.5204 82.4316 63.1395 63.5641 76.4493 54.3566C84.4065 48.8478 94.363 47.8445 103.669 49.8611C108.14 50.8448 108.485 51.5924 108.869 51.2284C116.511 56.4814 119.229 65.3151 119.515 74.5718C119.791 83.4153 116.891 90.7735 112.129 96.0658ZM96.6477 84.2957C96.8644 84.2908 97.0958 84.3007 97.3075 84.3351C97.0909 84.2957 96.8644 84.2859 96.6477 84.2957ZM101.582 62.482C101.798 61.6557 101.434 61.4983 100.794 60.2097C100.331 59.3047 100.351 58.8521 99.6908 58.3603C99.031 57.8684 98.1151 57.8488 97.4454 57.4848C97.0023 57.2389 96.7462 56.0584 96.0076 55.7141C93.7918 54.7304 93.2501 55.301 92.1964 55.5666C90.8669 55.901 91.2116 54.7894 89.242 54.8288C88.7299 54.8485 88.2128 54.9075 87.7056 55.0059C86.6617 55.1731 86.0216 56.1371 85.2239 56.3535C84.4262 56.5699 83.9437 55.5961 81.2847 57.3963C80.6446 57.8291 80.4968 58.8128 80.1817 59.3637C79.4431 60.731 77.7098 61.3311 78.1234 63.5346C78.3303 64.5773 78.9113 65.0593 79.1969 65.9545C79.2658 66.2004 78.9999 66.7612 78.9605 67.0661C78.8768 67.6268 78.9655 68.2023 79.2067 68.7187C77.5523 70.6173 79.0492 72.6536 81.1764 74.0209C81.2601 74.2275 81.329 74.439 81.3832 74.6603C81.3733 74.7046 81.3733 74.7489 81.3832 74.798C81.3832 76.5786 81.2059 77.6213 82.1513 79.1854C82.4763 79.7067 82.8702 80.8478 83.2838 81.4381C83.8747 82.3037 84.3967 82.2939 85.1648 83.3268C85.0417 83.7252 84.9383 84.1334 84.8497 84.5466C84.894 84.3597 84.9383 84.1679 84.9876 83.9809C85.1353 84.1482 85.2879 84.3056 85.4603 84.458H85.4652C85.4997 84.2957 85.544 84.1334 85.5883 83.976C86.2432 84.399 86.9523 84.7286 87.6958 84.9597C89.6063 85.7861 90.9555 85.5008 92.9448 85.0581C93.3634 84.8958 93.7573 84.6745 94.1069 84.399C94.491 84.2466 94.8849 84.1383 95.2887 84.0646C95.3379 84.3007 95.3773 84.5318 95.4019 84.7728C95.8106 84.64 96.2144 84.4925 96.6182 84.3105C96.628 84.3056 96.6379 84.3007 96.6477 84.2957C96.4705 84.2957 96.303 84.3105 96.1553 84.3302C96.0765 84.3302 96.0568 84.399 95.9288 84.5466C95.722 83.3858 95.6728 84.0154 96.1455 83.4153C96.4606 83.0218 96.5492 82.5595 96.8939 82.2841C97.2386 82.0086 97.3863 81.4971 97.7113 81.1331C98.1742 80.5626 98.4795 79.8838 98.5977 79.1657C98.7355 78.182 99.5135 77.1983 99.3264 76.126C99.1984 75.3096 99.159 74.0799 99.0999 74.0012C99.2181 73.2733 99.1688 73.3225 99.7499 72.7519C100.863 71.6895 101.887 70.6173 101.434 69.063C101.326 68.5958 101.089 68.1629 100.754 67.8236C101.326 67.5088 101.276 66.3873 101.138 65.807C100.971 65.0495 100.154 64.961 100.488 64.3117C100.951 63.7609 101.321 63.146 101.582 62.482ZM101.01 69.2106C101.365 70.5189 100.39 71.4338 99.415 72.3388C98.6666 73.0372 98.7257 73.0667 98.5189 74.1783C98.3121 75.2899 98.0166 76.854 97.0712 77.5229C96.6773 77.7344 96.308 78 95.9781 78.3099C95.6826 78.664 95.5841 79.1165 95.1705 79.1362C94.5993 79.1362 94.3236 78.9001 93.516 79.3526C92.7085 79.8051 92.5312 80.1986 91.832 80.1396C91.1328 80.0806 91.0442 79.8838 90.6404 79.992C90.2366 80.1002 90.2071 80.356 89.4291 80.1888C89.0401 80.0609 88.6264 80.0166 88.2178 80.0609C87.9715 80.0609 87.6663 80.2281 87.5284 80.1199C86.9079 79.6084 86.5436 78.7722 85.7459 78.3296C85.2141 78.0443 84.3868 78.0246 83.9338 77.7295C83.2494 76.8589 82.6486 75.9293 82.1316 74.9554C82.0381 74.5374 81.9051 74.1291 81.7377 73.7356C81.5013 73.4209 77.2864 71.178 80.0143 68.7974C80.418 68.4433 80.7726 68.8663 81.2847 68.9351C81.393 69.0188 81.5112 69.0827 81.6392 69.1319C82.0627 69.2499 82.3089 68.8368 82.4074 68.3843C82.5551 67.617 82.4074 66.4169 82.5551 65.8857C82.7717 65.2856 83.0426 64.7052 83.3528 64.1543C83.4217 64.0264 83.9043 63.3379 84.0028 63.3379C84.2588 63.3379 83.8255 64.3216 84.4853 64.5577C85.1451 64.7937 85.6966 64.4003 86.1693 63.7707C86.6421 63.1411 86.7602 63.0526 87.3117 63.3575C87.8632 63.6625 88.1291 63.8986 88.6708 63.7805C89.0844 63.6477 89.4488 63.4018 89.7245 63.0723C90.0298 62.7968 90.1874 62.6591 90.7093 63.0034C91.0245 63.2542 91.3544 63.4805 91.6941 63.692C92.3933 63.9576 92.8464 62.964 93.0532 63.0132C93.6244 63.1411 93.7622 63.9969 94.7372 63.81C94.9932 63.81 95.2887 63.6526 95.466 63.6035C95.7023 63.7608 95.9781 64.0658 96.2243 64.2429C96.4705 64.4199 96.8053 64.3609 96.9235 64.8724C96.953 65.3692 97.017 65.866 97.1204 66.3578C97.2583 66.6923 97.1204 67.6858 97.5242 68.2564C98.1348 69.0532 99.1393 68.3646 100.242 68.0203C100.666 68.281 100.946 68.7187 101.01 69.2106ZM96.6477 84.2957C96.8644 84.2908 97.0958 84.3007 97.3075 84.3351C97.0909 84.2957 96.8644 84.2859 96.6477 84.2957ZM101.582 62.482C101.798 61.6557 101.434 61.4983 100.794 60.2097C100.331 59.3047 100.351 58.8521 99.6908 58.3603C99.031 57.8684 98.1151 57.8488 97.4454 57.4848C97.0023 57.2389 96.7462 56.0584 96.0076 55.7141C93.7918 54.7304 93.2501 55.301 92.1964 55.5666C90.8669 55.901 91.2116 54.7894 89.242 54.8288C88.7299 54.8485 88.2128 54.9075 87.7056 55.0059C86.6617 55.1731 86.0216 56.1371 85.2239 56.3535C84.4262 56.5699 83.9437 55.5961 81.2847 57.3963C80.6446 57.8291 80.4968 58.8128 80.1817 59.3637C79.4431 60.731 77.7098 61.3311 78.1234 63.5346C78.3303 64.5773 78.9113 65.0593 79.1969 65.9545C79.2658 66.2004 78.9999 66.7612 78.9605 67.0661C78.8768 67.6268 78.9655 68.2023 79.2067 68.7187C77.5523 70.6173 79.0492 72.6536 81.1764 74.0209C81.2601 74.2275 81.329 74.439 81.3832 74.6603C81.3733 74.7046 81.3733 74.7489 81.3832 74.798C81.3832 76.5786 81.2059 77.6213 82.1513 79.1854C82.4763 79.7067 82.8702 80.8478 83.2838 81.4381C83.8747 82.3037 84.3967 82.2939 85.1648 83.3268C85.0417 83.7252 84.9383 84.1334 84.8497 84.5466C84.894 84.3597 84.9383 84.1679 84.9876 83.9809C85.1353 84.1482 85.2879 84.3056 85.4603 84.458H85.4652C85.4997 84.2957 85.544 84.1334 85.5883 83.976C86.2432 84.399 86.9523 84.7286 87.6958 84.9597C89.6063 85.7861 90.9555 85.5008 92.9448 85.0581C93.3634 84.8958 93.7573 84.6745 94.1069 84.399C94.491 84.2466 94.8849 84.1383 95.2887 84.0646C95.3379 84.3007 95.3773 84.5318 95.4019 84.7728C95.8106 84.64 96.2144 84.4925 96.6182 84.3105C96.628 84.3056 96.6379 84.3007 96.6477 84.2957C96.4705 84.2957 96.303 84.3105 96.1553 84.3302C96.0765 84.3302 96.0568 84.399 95.9288 84.5466C95.722 83.3858 95.6728 84.0154 96.1455 83.4153C96.4606 83.0218 96.5492 82.5595 96.8939 82.2841C97.2386 82.0086 97.3863 81.4971 97.7113 81.1331C98.1742 80.5626 98.4795 79.8838 98.5977 79.1657C98.7355 78.182 99.5135 77.1983 99.3264 76.126C99.1984 75.3096 99.159 74.0799 99.0999 74.0012C99.2181 73.2733 99.1688 73.3225 99.7499 72.7519C100.863 71.6895 101.887 70.6173 101.434 69.063C101.326 68.5958 101.089 68.1629 100.754 67.8236C101.326 67.5088 101.276 66.3873 101.138 65.807C100.971 65.0495 100.154 64.961 100.488 64.3117C100.951 63.7609 101.321 63.146 101.582 62.482ZM101.01 69.2106C101.365 70.5189 100.39 71.4338 99.415 72.3388C98.6666 73.0372 98.7257 73.0667 98.5189 74.1783C98.3121 75.2899 98.0166 76.854 97.0712 77.5229C96.6773 77.7344 96.308 78 95.9781 78.3099C95.6826 78.664 95.5841 79.1165 95.1705 79.1362C94.5993 79.1362 94.3236 78.9001 93.516 79.3526C92.7085 79.8051 92.5312 80.1986 91.832 80.1396C91.1328 80.0806 91.0442 79.8838 90.6404 79.992C90.2366 80.1002 90.2071 80.356 89.4291 80.1888C89.0401 80.0609 88.6264 80.0166 88.2178 80.0609C87.9715 80.0609 87.6663 80.2281 87.5284 80.1199C86.9079 79.6084 86.5436 78.7722 85.7459 78.3296C85.2141 78.0443 84.3868 78.0246 83.9338 77.7295C83.2494 76.8589 82.6486 75.9293 82.1316 74.9554C82.0381 74.5374 81.9051 74.1291 81.7377 73.7356C81.5013 73.4209 77.2864 71.178 80.0143 68.7974C80.418 68.4433 80.7726 68.8663 81.2847 68.9351C81.393 69.0188 81.5112 69.0827 81.6392 69.1319C82.0627 69.2499 82.3089 68.8368 82.4074 68.3843C82.5551 67.617 82.4074 66.4169 82.5551 65.8857C82.7717 65.2856 83.0426 64.7052 83.3528 64.1543C83.4217 64.0264 83.9043 63.3379 84.0028 63.3379C84.2588 63.3379 83.8255 64.3216 84.4853 64.5577C85.1451 64.7937 85.6966 64.4003 86.1693 63.7707C86.6421 63.1411 86.7602 63.0526 87.3117 63.3575C87.8632 63.6625 88.1291 63.8986 88.6708 63.7805C89.0844 63.6477 89.4488 63.4018 89.7245 63.0723C90.0298 62.7968 90.1874 62.6591 90.7093 63.0034C91.0245 63.2542 91.3544 63.4805 91.6941 63.692C92.3933 63.9576 92.8464 62.964 93.0532 63.0132C93.6244 63.1411 93.7622 63.9969 94.7372 63.81C94.9932 63.81 95.2887 63.6526 95.466 63.6035C95.7023 63.7608 95.9781 64.0658 96.2243 64.2429C96.4705 64.4199 96.8053 64.3609 96.9235 64.8724C96.953 65.3692 97.017 65.866 97.1204 66.3578C97.2583 66.6923 97.1204 67.6858 97.5242 68.2564C98.1348 69.0532 99.1393 68.3646 100.242 68.0203C100.666 68.281 100.946 68.7187 101.01 69.2106Z" fill="black"/>
<path d="M22.5394 96.2966C22.3326 95.5736 22.0372 94.6538 21.7959 93.9406C22.6921 93.2471 23.4553 92.3962 24.0413 91.4273C23.9231 92.4601 23.9871 92.593 24.1545 92.9422C23.8542 93.2815 23.608 93.675 23.4405 94.098C23.1894 94.7965 23.6227 95.308 24.4106 95.1506C25.1984 94.9883 25.2132 93.9308 25.5185 93.6111C25.8976 93.6111 26.1537 93.6111 26.587 92.8635C26.8578 92.1847 27.0351 91.4814 27.1188 90.7633C27.7195 90.1878 28.1725 89.4746 28.4188 88.6827C28.665 88.0728 28.7142 87.4088 28.5714 86.7743C28.7142 86.5776 28.8274 86.3612 28.9013 86.1349C29.2608 85.0725 29.4577 83.4297 28.7881 82.5739C28.6699 82.4263 28.4286 82.205 28.2513 82.2247C28.3449 81.9197 28.4089 81.6099 28.4335 81.2951C28.3301 80.1491 28.0199 79.1949 26.9514 78.7473C26.8775 78.7473 26.4442 78.6391 26.2423 78.5751C26.1143 78.0882 26.3408 77.5275 25.4791 76.834C25.223 76.6175 24.9178 76.4651 24.5878 76.3962C24.386 76.3716 24.1791 76.4011 23.9871 76.4847C23.9477 76.2536 23.8492 76.0421 23.7064 75.865C23.1254 75.3584 22.3622 75.1223 21.594 75.2059C20.944 75.2256 20.3039 75.3732 19.7081 75.6338C19.6441 75.4814 19.5013 75.3781 19.3388 75.3781C19.1665 75.3781 19.2157 75.3781 19.1763 75.2305C18.9252 74.4288 18.2998 74.4878 17.7533 74.4288C17.443 74.1091 16.995 73.9566 16.5518 74.0107C16.2514 74.0894 15.9658 74.1976 15.6901 74.3403C15.4636 74.2124 15.2272 74.1091 14.9761 74.0304C13.9174 73.8927 13.4201 74.4386 12.8391 75.3043C12.2876 75.3043 12.0857 75.1272 11.4259 75.506C10.9531 75.7765 10.5395 76.1454 10.2145 76.588C10.0422 76.8684 9.90432 77.1684 9.80584 77.4881C9.78614 77.6652 9.78614 77.857 9.80584 78.039C9.33313 78.1915 8.92443 78.5063 8.65853 78.9293C7.94947 80.0704 8.48127 81.5853 9.00814 81.8312C9.11155 81.8804 9.21988 81.9148 9.33313 81.9394C9.14109 82.2345 9.05738 82.5886 9.09677 82.9428C9.1017 83.5969 9.6335 84.1281 10.2933 84.138C9.99295 84.9004 9.96341 85.7513 10.2145 86.5431C9.42669 87.4629 9.53502 88.8549 10.4607 89.6369C10.5691 89.7353 10.6971 89.8238 10.8251 89.8976C11.3027 90.1042 11.8493 90.1042 12.327 89.8976C12.6569 91.5699 13.6269 93.0455 15.0401 94.0095C14.9416 94.3735 14.5822 95.8244 14.5083 96.1294C12.7356 96.4245 11.0024 96.9163 9.33313 97.5902C4.01515 99.7445 0.391051 103.724 0.223633 109.621C0.238405 109.675 0.302418 109.714 0.36643 109.695C0.400899 109.69 0.430443 109.655 0.440291 109.621C0.666797 105.086 2.97618 101.677 6.86618 99.3756C7.90023 100.138 10.0767 101.481 10.446 101.914C10.052 102.809 8.84072 104.496 8.84072 104.904C8.84072 105.15 8.70285 104.825 14.0602 109.454C14.1045 109.493 14.1685 109.488 14.2079 109.449C14.2276 109.429 14.2424 109.4 14.2375 109.37H15.7393C15.8033 109.562 15.9904 109.459 15.9461 109.37L13.1394 99.7445C15.6408 101.84 20.88 102.066 23.2879 100.261L20.6535 109.267C20.6535 109.39 20.8062 109.493 20.8702 109.267H22.5739C22.5739 109.326 22.6182 109.37 22.6724 109.375C22.7019 109.375 22.7315 109.37 22.7512 109.345C27.8082 104.983 27.6949 105.288 27.7048 105.042C27.7048 104.638 26.5378 102.956 26.0995 102.046C27.0351 101.314 28.0002 100.63 29.0047 99.9953C32.0478 102.401 33.5841 105.475 34.4803 109.085C34.5 109.139 34.559 109.173 34.6132 109.159C34.6772 109.144 34.7068 109.085 34.692 109.026C33.3083 102.376 29.5513 97.8853 22.5394 96.2966ZM10.7611 89.2631C10.1653 88.6139 10.0373 87.6695 10.441 86.8973C10.8596 87.3449 11.4308 87.6301 12.0463 87.699C12.0857 88.3335 12.1743 88.9631 12.3122 89.5828C11.7705 89.7205 11.1993 89.6025 10.7611 89.2631ZM23.6227 99.2723C23.2534 99.6265 22.8398 99.9265 22.3868 100.172C20.4615 101.269 15.9658 101.176 13.8583 99.6904C13.553 99.474 13.2674 99.2379 12.9917 98.9821L12.391 96.9311C13.1197 96.7294 13.8682 96.5622 14.5969 96.4343C14.725 96.4343 14.6708 96.4343 14.9662 95.1162C15.2666 93.8029 15.3159 93.857 15.2174 93.7931C13.2576 92.5733 12.5091 90.2468 12.3663 87.9449C12.3663 87.5514 12.3663 87.4875 12.2235 87.4334C12.0758 87.3744 11.1353 87.2908 10.6872 86.6317C10.8596 86.494 11.0615 86.4054 11.2732 86.3661C11.3323 86.3464 11.3717 86.2874 11.352 86.2234C11.3421 86.189 11.3126 86.1595 11.2732 86.1497C11.027 86.1497 10.7808 86.2038 10.5494 86.312C10.441 85.9824 10.4115 85.6431 10.4558 85.3086C10.5051 84.7774 10.702 83.7002 11.2584 83.7002C11.3766 83.838 11.5046 83.9609 11.6524 84.074C11.6868 84.1232 11.7459 84.1577 11.8099 84.1675C12.7898 84.6741 13.2477 83.2231 13.6663 82.3772C13.7451 82.2099 13.7549 81.7033 13.8189 81.4426C14.1193 81.4426 14.2227 81.5607 15.0893 81.0541C15.7689 80.6606 15.8378 79.972 16.1086 79.3768H16.7044C17.0147 79.3572 17.3249 79.2834 17.6105 79.1604C17.6154 79.4014 17.6695 79.6375 17.7779 79.8589C18.162 80.6065 18.7085 81.2508 19.3831 81.7525C19.6441 81.8755 19.9149 81.9738 20.1857 82.0525C19.6884 82.4608 19.9001 84.1823 21.2789 84.7036C21.4906 84.7774 21.7122 84.8315 21.9289 84.8758C21.8501 85.3086 21.0081 86.3956 23.086 87.1924C23.2337 87.2219 23.3814 87.2465 23.5292 87.2563C23.4898 87.3695 23.4258 87.5465 23.4159 87.5908C23.3421 87.8957 23.3421 88.2253 23.4159 88.5302C23.539 88.9483 23.8886 89.1106 24.1151 89.332C24.0019 89.7353 23.8739 89.9271 24.1151 90.2468C22.6773 93.3209 21.1016 93.4586 21.2789 93.9308C21.5546 94.7325 21.9141 95.79 22.1406 96.5917C22.2095 96.8672 22.4065 96.6901 24.2136 97.2754L23.6227 99.2723Z" fill="black"/>
<path d="M15.511 85.0092C14.9989 85.0731 14.605 85.4125 14.6641 85.5306C14.7182 85.6535 15.4667 85.5306 15.5701 85.5306C16.6189 85.4371 16.6682 85.5306 16.7026 85.3879C16.7322 85.2453 16.2841 84.9207 15.511 85.0092ZM15.969 86.6864C15.9591 86.5389 15.8311 86.4307 15.6834 86.4454C15.5356 86.4602 15.4273 86.588 15.4421 86.7356V87.2816C15.4765 87.4193 15.6193 87.5078 15.7621 87.4734C15.8754 87.4439 15.9591 87.3504 15.964 87.2324C15.9886 87.0652 15.9886 86.8635 15.969 86.6864ZM19.4158 90.1294C19.2385 90.095 19.0613 90.0458 18.8938 89.9818C18.9628 88.8407 18.9628 87.6996 18.8938 86.5585C18.8938 86.4454 18.7166 86.3815 18.6772 86.5585C18.4556 87.7095 18.3817 88.8899 18.4458 90.0655C18.4458 90.2179 18.5245 90.3704 18.6673 90.4098C19.1647 90.5573 19.7063 90.518 20.1692 90.2966C20.2086 90.272 20.2332 90.2278 20.2184 90.1835C20.1692 90.0163 19.9771 90.1835 19.4158 90.1294ZM21.5184 91.7869C21.5184 91.7869 20.9275 92.2149 20.9078 92.2198L20.701 92.3575C20.4745 92.4952 19.7851 92.7657 19.7851 92.8051C19.7851 93.0166 20.5877 93.1789 21.2328 92.6329C21.4888 92.4214 21.7202 91.8755 21.5184 91.7869ZM15.255 90.754C15.1122 90.754 14.9891 90.8721 14.9891 91.0197C14.9891 91.1672 15.1122 91.2853 15.255 91.2853C15.3978 91.2853 15.5209 91.1623 15.5209 91.0197C15.5209 90.877 15.4027 90.754 15.255 90.754Z" fill="black"/>
<path d="M209.694 96.7544C184.641 53.8205 188.206 60.0523 187.93 59.1915C187.91 59.1128 187.831 59.0735 187.758 59.0981H187.753C181.086 61.1442 172.05 67.9711 171.814 69.6041C171.789 69.7565 171.745 69.6385 173.306 72.0486C173.276 72.0683 173.242 72.0928 173.212 72.1125C170.43 74.016 164.142 78.969 163.487 79.692C163.236 79.9674 163.27 80.1051 164.969 83.1153C162.492 83.799 159.533 85.2401 156.672 86.8681C150.798 90.2127 145.337 94.3591 145.273 94.3984C142.9 93.7049 135.508 95.3329 133.288 96.3953C132.987 96.538 132.707 96.7101 132.441 96.9069L127.709 94.5706C127.955 94.0443 128.442 93.1196 127.925 92.7605C127.408 92.3966 126.453 91.644 125.488 91.0046C129.432 81.3446 129.25 69.7713 123.149 58.0996C119.077 50.3136 114.251 44.5638 108.594 40.9634C108.032 40.6585 107.486 40.324 106.939 39.9896C106.836 39.9305 106.722 39.8814 106.614 39.8223C106.526 39.9453 106.417 40.0486 106.284 40.1273C112.809 43.4473 118.363 49.4627 122.942 58.1882C139.167 89.229 112.361 119.94 78.7145 113.669C45.0044 107.428 36.7812 55.3747 77.7641 40.1322C87.9865 36.3154 96.9285 36.0547 104.595 39.3354C104.571 39.1829 104.576 39.0206 104.605 38.8632C104.477 38.8091 104.354 38.7501 104.226 38.696C104.147 38.6714 104.068 38.6468 103.99 38.6173C103.911 38.5927 103.842 38.5534 103.773 38.5042C96.3377 35.5678 87.6319 35.858 77.5032 39.5912C35.8506 55.0354 44.0787 108.028 78.5421 114.417C93.979 117.265 108.328 112.469 117.683 102.853C118.309 103.35 119.875 104.619 120.569 104.476C121.12 104.113 121.598 103.65 121.982 103.119C122.342 103.345 129.432 107.757 133.775 110.389C131.594 112.872 128.058 118.18 130.52 120.408C131.353 121.16 132.47 121.529 133.588 121.431C135.597 121.288 136.951 119.999 138.256 118.421C137.823 119.788 137.961 120.978 138.768 121.745C140.388 123.073 142.747 122.99 144.263 121.549C145.49 120.462 145.366 120.25 145.165 120.939C144.761 122.227 144.859 123.423 145.642 124.185C146.356 124.834 147.307 125.164 148.272 125.095C150.305 124.957 151.704 123.374 153.023 121.588C154.353 122.287 155.574 122.911 156.672 123.437C157.524 123.841 158.297 124.185 158.986 124.451C159.996 124.864 162.404 126.398 165.028 125.907C166.663 125.616 168.391 124.583 169.947 122.05C172.006 118.676 169.159 115.592 165.732 113.6C166.717 112.504 167.613 111.338 168.421 110.113C168.884 109.474 175.605 107.265 178.569 105.8C179.613 107.383 179.973 107.949 180.258 107.944C182.43 107.974 189.929 103.001 191.953 101.56C191.982 101.54 192.012 101.52 192.037 101.501C193.563 103.862 193.489 103.803 193.622 103.857C194.789 104.245 199.275 102.307 200.403 101.816C203.579 100.409 206.666 98.8251 209.655 97.0593C209.739 97.0692 209.812 97.0102 209.822 96.9265C209.837 96.838 209.778 96.7642 209.694 96.7544ZM120.49 103.926C120.062 104.014 118.363 102.765 118.013 102.519C121.076 99.3366 123.543 95.628 125.296 91.5801C126.187 92.1752 127.034 92.795 127.546 93.1934C126.369 96.3412 121.342 103.34 120.49 103.926ZM137.833 118.002C136.587 119.399 135.395 120.599 133.588 120.732C132.643 120.816 131.702 120.511 130.988 119.886C128.836 117.943 132.854 112.154 134.908 110.069C136.222 108.716 138.005 107.221 139.891 107.073C141.777 106.926 142.579 108.101 142.323 109.833C142.072 111.176 141.59 112.474 140.895 113.659C139.098 116.01 139.733 115.848 137.833 118.002ZM145.43 119.508C144.308 120.772 143.234 121.859 141.609 121.957C140.767 122.031 139.935 121.75 139.31 121.19C137.375 119.449 141.028 114.205 142.865 112.331C144.047 111.107 145.657 109.739 147.361 109.616C149.059 109.493 149.773 110.556 149.557 112.095C149.232 113.63 148.621 115.086 147.74 116.394C147.026 117.481 146.243 118.524 145.391 119.517L145.43 119.508ZM155.909 114.982C155.599 117.23 153.555 120.235 152.058 121.977L152.014 122.006C150.95 123.201 149.936 124.239 148.385 124.333C147.592 124.397 146.809 124.136 146.218 123.61C144.391 121.947 147.863 116.955 149.591 115.194C150.704 114.043 152.24 112.74 153.821 112.636C155.397 112.528 156.121 113.502 155.909 114.982ZM168.253 109.789C167.421 111.033 166.5 112.213 165.486 113.315C165.417 113.276 161.65 111.397 156.672 108.923C153.048 107.118 148.774 104.993 144.83 103.035L147.095 102.322C149.69 104.447 152.846 105.765 156.18 106.139C156.347 106.154 156.51 106.164 156.672 106.164C159.942 106.277 163.123 105.072 165.506 102.814C165.57 102.765 165.585 102.681 165.535 102.617C165.496 102.553 165.407 102.544 165.348 102.583C165.338 102.593 165.333 102.593 165.329 102.603C162.645 104.875 159.71 105.859 156.672 105.677C154.983 105.578 153.265 105.121 151.536 104.329C150.049 103.65 148.656 102.77 147.405 101.712C147.321 101.643 147.208 101.614 147.095 101.643C140.319 103.758 138.325 104.649 135.641 104.732C133.815 104.899 132.022 104.172 130.826 102.789C130.2 102.057 130.082 101.019 130.52 100.173C131.19 98.8103 132.273 97.6938 133.623 97.0003C135.858 96.1199 138.187 95.5002 140.556 95.146C145.342 94.364 145.051 95.21 145.554 94.9149C145.78 94.8066 150.67 90.7489 156.672 87.3895C159.43 85.8451 162.428 84.4482 165.314 83.6514C168.652 89.4799 175.315 100.433 178.638 105.524C175.492 107.005 168.874 108.952 168.253 109.789ZM191.879 101.27C189.786 102.671 182.607 107.108 180.559 107.26C179.559 106.075 164.905 82.1955 163.984 79.9969C164.797 79.1854 170.691 74.316 173.345 72.383C173.384 72.3486 173.429 72.3191 173.468 72.2896L192.037 101.161C191.987 101.196 191.933 101.23 191.879 101.27Z" fill="black"/>
<path d="M98.4159 85.5647L98.1992 84.9844C98.1648 84.9007 98.1106 84.8319 98.0466 84.7729C98.0269 84.7532 98.0072 84.7335 97.9826 84.7138C97.8152 84.5859 97.5788 84.5122 97.3227 84.4679C97.1061 84.4286 96.8796 84.4187 96.6629 84.4286C96.4857 84.4286 96.3182 84.4433 96.1705 84.463C96.0917 84.463 96.072 84.5318 95.944 84.6794C95.7372 83.5186 95.688 84.1482 96.1607 83.5481C96.4758 83.1546 96.5644 82.6923 96.9091 82.4169C97.2538 82.1414 97.4015 81.6299 97.7265 81.2659C98.1894 80.6954 98.4947 80.0166 98.6128 79.2985C98.7507 78.3148 99.5287 77.3311 99.3416 76.2589C99.2136 75.4424 99.1742 74.2127 99.1151 74.1341C99.2333 73.4061 99.184 73.4553 99.7651 72.8847C100.878 71.8223 101.902 70.7501 101.449 69.1958C101.341 68.7286 101.104 68.2957 100.77 67.9564C101.341 67.6416 101.292 66.5202 101.154 65.9398C100.986 65.1823 100.169 65.0938 100.504 64.4445C100.967 63.8937 101.336 63.2788 101.597 62.6148C101.813 61.7885 101.449 61.6311 100.809 60.3425C100.346 59.4375 100.366 58.985 99.706 58.4931C99.0462 58.0013 98.1303 57.9816 97.4606 57.6176C97.0174 57.3717 96.7614 56.1912 96.0228 55.8469C93.807 54.8632 93.2653 55.4338 92.2116 55.6994C90.8821 56.0338 91.2268 54.9222 89.2571 54.9616C88.745 54.9813 88.228 55.0403 87.7208 55.1387C86.6769 55.3059 86.0368 56.2699 85.2391 56.4863C84.4414 56.7028 83.9589 55.7289 81.2999 57.5291C80.6598 57.9619 80.512 58.9456 80.1969 59.4965C79.4583 60.8638 77.725 61.4639 78.1386 63.6674C78.3454 64.7101 78.9265 65.1921 79.2121 66.0873C79.281 66.3333 79.0151 66.894 78.9757 67.1989C78.892 67.7596 78.9806 68.3351 79.2219 68.8515C77.5674 70.7501 79.0644 72.7864 81.1915 74.1537C81.2753 74.3603 81.3442 74.5718 81.3984 74.7931C81.3885 74.8374 81.3885 74.8817 81.3984 74.9309C81.3984 76.7114 81.2211 77.7541 82.1665 79.3182C82.4915 79.8396 82.8854 80.9807 83.299 81.5709C83.8899 82.4365 84.4119 82.4267 85.18 83.4596C85.0569 83.858 84.9535 84.2662 84.8649 84.6794C84.8255 84.8712 84.7861 85.063 84.7467 85.2499C84.4808 85.0139 84.4316 84.9253 84.3134 84.9844C83.8259 85.1663 83.368 85.4172 82.9544 85.732C77.597 87.5026 71.8457 90.9161 68.586 95.569C68.5318 95.4903 68.4776 95.4116 68.4186 95.3329C68.3841 95.5199 68.325 95.7018 68.2314 95.8642C68.3792 96.0658 68.5269 96.2675 68.6845 96.4642C68.7928 96.597 68.9011 96.7347 69.0094 96.8675C69.2606 97.1676 69.5215 97.4725 69.7874 97.7676C69.9105 97.9053 70.0337 98.0381 70.1617 98.1709C71.0677 99.1399 72.0722 100.065 73.1604 100.935C73.3919 101.117 73.6331 101.299 73.8744 101.476C74.1157 101.663 74.3668 101.84 74.6179 102.017C74.6179 102.017 81.2851 105.642 90.1139 105.672C90.0154 100.63 89.1144 95.633 87.45 90.8718L87.4697 90.862L88.5136 90.5472C89.2325 91.4424 90.0155 92.2835 90.8575 93.0655C91.1234 93.1934 91.3105 93.0655 91.4976 92.7999C91.8915 92.3277 92.6301 91.1571 92.9453 90.6554L95.23 91.0096C93.8907 95.7264 93.2259 100.615 93.2604 105.524C99.2677 104.944 105.964 102.494 112.12 96.2134C109.268 90.8817 104.285 87.0108 98.411 85.5598L98.4159 85.5647ZM83.949 77.8623C83.2646 76.9917 82.6638 76.0621 82.1468 75.0882C82.0533 74.6702 81.9203 74.2619 81.7529 73.8685C81.5165 73.5537 77.3015 71.3108 80.0295 68.9302C80.4332 68.5761 80.7878 68.9991 81.2999 69.068C81.4082 69.1516 81.5264 69.2155 81.6544 69.2647C82.0779 69.3827 82.3241 68.9696 82.4226 68.5171C82.5703 67.7498 82.4226 66.5497 82.5703 66.0185C82.7869 65.4184 83.0578 64.838 83.368 64.2871C83.4369 64.1593 83.9195 63.4707 84.018 63.4707C84.274 63.4707 83.8407 64.4544 84.5005 64.6905C85.1603 64.9265 85.7118 64.5331 86.1845 63.9035C86.6572 63.2739 86.7754 63.1854 87.3269 63.4903C87.8784 63.7953 88.1443 64.0314 88.686 63.9133C89.0996 63.7805 89.464 63.5346 89.7397 63.2051C90.045 62.9296 90.2026 62.7919 90.7245 63.1362C91.0397 63.387 91.3696 63.6133 91.7093 63.8248C92.4085 64.0904 92.8615 63.0969 93.0684 63.146C93.6395 63.2739 93.7774 64.1298 94.7524 63.9428C95.0084 63.9428 95.3039 63.7854 95.4811 63.7363C95.7175 63.8937 95.9932 64.1986 96.2395 64.3757C96.4857 64.5527 96.8205 64.4937 96.9387 65.0052C96.9682 65.502 97.0322 65.9988 97.1356 66.4906C97.2735 66.8251 97.1356 67.8187 97.5394 68.3892C98.15 69.186 99.1545 68.4974 100.257 68.1531C100.681 68.4138 100.962 68.8515 101.026 69.3434C101.38 70.6517 100.405 71.5666 99.4302 72.4716C98.6818 73.17 98.7409 73.1995 98.5341 74.3111C98.3272 75.4227 98.0318 76.9868 97.0864 77.6557C96.6925 77.8672 96.3232 78.1328 95.9932 78.4427C95.6978 78.7968 95.5993 79.2493 95.1857 79.269C94.6145 79.269 94.3388 79.0329 93.5312 79.4854C92.7237 79.9379 92.5464 80.3314 91.8472 80.2724C91.148 80.2134 91.0593 80.0166 90.6556 80.1248C90.2518 80.233 90.2223 80.4888 89.4443 80.3216C89.0553 80.1937 88.6416 80.1494 88.2329 80.1937C87.9867 80.1937 87.6814 80.3609 87.5436 80.2527C86.9231 79.7412 86.5588 78.905 85.7611 78.4624C85.2293 78.1771 84.402 78.1574 83.949 77.8623ZM82.0877 91.6244C81.6938 90.3259 82.5112 87.5813 82.9839 86.2927C83.1119 85.9385 83.9687 85.4959 84.2642 85.309C85.0126 86.1353 87.7405 89.0077 88.4299 89.8832H88.4594C81.5658 91.8506 84.2149 91.0538 82.0877 91.6244ZM92.0343 90.4243C92.0737 90.4587 92.1131 90.4882 92.1623 90.5128C91.4336 91.6539 91.1775 91.89 90.9806 92.3031C90.5374 91.8703 89.5624 90.739 89.1587 90.2669C89.2965 90.0799 89.3064 89.893 88.7943 89.2831C88.1542 88.5355 87.1103 87.542 86.3913 86.8731C86.0073 86.396 85.6478 85.9041 85.3081 85.3975C85.3327 85.2549 85.3573 85.1122 85.3918 84.9745C85.4164 84.8466 85.4459 84.7187 85.4755 84.5909H85.4804C85.5149 84.4286 85.5592 84.2662 85.6035 84.1089C86.2584 84.5318 86.9675 84.8614 87.711 85.0926C89.6215 85.9189 90.9707 85.6336 92.96 85.1909C93.3786 85.0286 93.7725 84.8073 94.1221 84.5318C94.5062 84.3794 94.9001 84.2712 95.3039 84.1974C95.3531 84.4335 95.3925 84.6646 95.4171 84.9057C95.4319 84.9991 95.4418 85.0876 95.4516 85.1811C95.4516 85.2795 95.3236 85.4172 95.2251 85.5844C94.388 86.5681 92.9994 88.3388 92.2707 89.4405C92.0442 89.8045 91.8078 90.1685 92.0343 90.4243ZM98.8984 90.7981C98.1155 90.6702 99.8931 90.9997 92.7828 89.9521C93.3441 88.9684 95.6486 85.6926 96.2985 84.7778C96.7023 84.7778 97.7068 84.827 97.825 85.1712C98.342 87.0108 98.7015 88.8897 98.8984 90.7931C98.9083 90.7931 98.9181 90.7981 98.928 90.7981H98.8984Z" fill="black"/>
<path d="M96.6631 84.4286C96.8797 84.4237 97.1112 84.4335 97.3229 84.4679C97.1062 84.4286 96.8797 84.4188 96.6631 84.4286Z" fill="black"/>
<path d="M96.6631 84.4286C96.8797 84.4237 97.1112 84.4335 97.3229 84.4679C97.1062 84.4286 96.8797 84.4188 96.6631 84.4286Z" fill="black"/>
<path d="M96.6631 84.4286C96.8797 84.4237 97.1112 84.4335 97.3229 84.4679C97.1062 84.4286 96.8797 84.4188 96.6631 84.4286Z" fill="black"/>
<path d="M96.6631 84.4286C96.8797 84.4237 97.1112 84.4335 97.3229 84.4679C97.1062 84.4286 96.8797 84.4188 96.6631 84.4286Z" fill="black"/>
<path d="M96.6631 84.4286C96.8797 84.4237 97.1112 84.4335 97.3229 84.4679C97.1062 84.4286 96.8797 84.4188 96.6631 84.4286Z" fill="black"/>
<path d="M96.6631 84.4286C96.8797 84.4237 97.1112 84.4335 97.3229 84.4679C97.1062 84.4286 96.8797 84.4188 96.6631 84.4286Z" fill="black"/>
<path d="M96.6631 84.4286C96.8797 84.4237 97.1112 84.4335 97.3229 84.4679C97.1062 84.4286 96.8797 84.4188 96.6631 84.4286Z" fill="black"/>
<path d="M46.2426 54.4656C44.6866 51.0866 42.2738 48.1649 39.2505 45.9959C37.9407 45.1154 36.5028 44.4416 34.9813 44.0137C33.3022 42.8382 33.5582 42.9169 33.2677 43.0447C33.0363 42.3365 32.6571 41.2692 32.214 40.2018C32.9033 39.6116 33.4548 38.8886 33.8389 38.0721C34.3904 36.808 34.7154 35.4653 34.7991 34.093C35.5229 33.5618 35.9513 32.7207 35.9415 31.8256C35.9415 31.4222 35.9415 31.5698 36.0154 31.4567C36.1286 31.2599 36.2172 31.0534 36.2862 30.8468C36.5964 30.0008 36.7096 29.1056 36.6259 28.2154C36.6259 25.5495 36.0695 23.3558 33.6469 22.1754C32.8147 21.7721 31.9432 21.4474 31.0568 21.1966C29.4713 20.9212 27.8513 20.9359 26.2707 21.236C23.0946 22.0524 20.8739 23.4591 20.3864 26.6857C20.2141 28.1071 20.2682 29.5434 20.5341 30.9501C20.1648 31.5796 20.1451 32.3568 20.48 33.0109C20.8493 33.6749 21.4155 34.2111 22.1 34.5455C22.809 36.7343 23.6067 39.223 25.6059 40.5806C25.4483 41.0773 24.8968 42.8087 24.754 43.3792L24.37 43.2218C24.2863 43.2218 24.37 43.1677 23.0011 44.2203C18.6581 45.3909 16.2798 47.3731 13.798 50.7914C12.8526 52.085 12.0057 53.4475 11.2671 54.8689C11.2424 54.9181 11.2572 54.982 11.3065 55.0115C11.5724 55.1493 11.5379 54.3033 14.0738 50.9882C16.6146 47.678 18.8009 45.9172 22.8041 44.7859C23.0651 44.9728 27.0733 47.8206 27.4721 47.9633C27.999 48.1699 28.4816 47.1222 28.7228 46.5418C28.6588 49.8176 28.8164 53.3835 29.0133 56.0002C29.033 56.0543 29.0872 56.0887 29.1463 56.0739C29.1808 56.0641 29.2152 56.0346 29.2202 56.0002C29.3679 52.5129 29.1709 48.1846 29.0724 46.8812C28.9493 45.4106 28.8509 46.0598 29.6633 47.2796C29.8849 47.6091 30.2099 48.0321 30.5644 47.8797C30.919 47.7223 34.8336 44.6679 34.9764 44.5301C36.3945 44.9482 37.7388 45.5729 38.9747 46.3844C40.9246 47.737 42.6382 49.3946 44.0514 51.2931C46.0161 53.9049 45.9225 54.7066 46.1884 54.5984C46.2426 54.5738 46.2672 54.5148 46.2426 54.4656ZM27.6001 47.4862C27.4623 47.4075 23.4098 44.7712 23.0897 44.5744L24.3109 43.4628L28.58 45.5975C28.3486 46.2664 28.0187 46.9058 27.6001 47.4862ZM28.8312 45.1794C27.7626 44.6138 26.4085 44.1465 25.0396 43.5071C25.1283 43.1874 25.793 41.1708 25.9851 40.5855C26.0983 40.2461 25.2366 40.3248 24.0696 38.3279C23.0257 36.5375 22.6465 34.4176 22.4348 34.2553C22.2231 34.093 20.3766 33.2765 20.8099 31.5206C20.8394 31.3681 20.9281 31.2403 21.0561 31.1714C21.3515 31.1714 21.6027 31.0878 21.7651 31.0779C21.9276 31.073 21.8292 31.0779 22.1148 31.3288C22.5678 31.7469 22.8878 31.5747 22.9666 31.1566C23.1587 30.168 23.3113 27.5268 23.6314 26.5824C23.72 26.3266 23.587 26.5332 24.498 26.6513C26.704 26.9365 31.4409 26.3119 33.0855 26.1545C33.4401 26.7742 33.6666 30.1041 33.8882 30.5025C33.9423 30.6254 34.0851 30.6894 34.2131 30.655C34.6317 30.4336 35.1438 30.5959 35.3555 31.0091C35.3949 31.0878 35.4245 31.1665 35.4392 31.2501C35.454 31.4222 35.4589 31.5993 35.4442 31.7764C35.4688 32.5732 35.0847 33.3208 34.4298 33.7733C34.3166 33.8717 34.3264 34.0438 34.3018 34.3389C34.1245 36.4293 33.4942 38.6968 31.8742 40.0248C31.6477 40.2018 32.0219 40.4232 32.9723 43.1825C31.8299 43.7825 30.0031 44.6039 29.0133 45.1794C28.9099 45.2433 28.9641 45.2433 28.8312 45.1794ZM30.3576 47.4173C29.9194 46.8566 29.5648 46.2369 29.2989 45.5729C29.3482 45.5729 31.4311 44.3334 32.6375 43.6792L33.4401 43.2218L34.7105 44.2744C34.4003 44.4859 30.4856 47.3239 30.3576 47.4173Z" fill="black"/>
<path d="M31.9332 29.8286C31.7116 29.8139 31.49 29.8139 31.2734 29.8286C30.9878 29.8286 30.3181 30.0401 30.3772 30.2172C30.4363 30.3943 32.8442 30.3303 32.8835 30.2172C32.982 30.0401 32.2877 29.8532 31.9381 29.8286H31.9332Z" fill="black"/>
<path d="M25.4283 29.9172C25.2067 29.8975 24.9852 29.8975 24.7685 29.9172C24.4829 29.9172 23.8132 30.1139 23.8723 30.3008C23.9314 30.4877 26.3393 30.4238 26.3836 30.3008C26.4771 30.1287 25.7878 29.9467 25.4283 29.9172Z" fill="black"/>
<path d="M25.7382 31.6977C25.7185 31.5501 25.5757 31.4567 25.4379 31.4813C25.3295 31.5009 25.2409 31.5846 25.2212 31.6977V32.2732C25.2212 32.4109 25.3394 32.5289 25.4772 32.5289C25.6151 32.5289 25.7333 32.4109 25.7333 32.2732C25.7481 32.1305 25.7481 31.8452 25.7382 31.6977Z" fill="black"/>
<path d="M29.5251 34.8406C29.5005 34.8062 29.4611 34.7914 29.4217 34.7964C29.1065 34.8849 28.7717 34.8849 28.4566 34.7964C28.3433 33.0208 28.4566 33.7241 28.3088 31.7469C28.3088 31.6387 28.1365 31.5501 28.102 31.7469C27.8755 32.8093 27.8361 33.9061 27.9888 34.9882C28.1808 35.5046 28.9933 35.2931 29.5054 34.9882C29.5546 34.9537 29.5645 34.8849 29.53 34.8406H29.5251Z" fill="black"/>
<path d="M31.662 31.4813C31.6423 31.3337 31.4996 31.2403 31.3617 31.2648C31.2533 31.2845 31.1647 31.3681 31.145 31.4813V32.0518C31.1696 32.1944 31.3075 32.2879 31.4454 32.2633C31.5586 32.2436 31.6423 32.16 31.662 32.0518C31.667 31.9829 31.662 31.5747 31.662 31.4813Z" fill="black"/>
<path d="M28.9093 36.9163C28.6385 36.9163 27.4862 36.872 27.437 37.0491C27.3878 37.2261 28.5942 37.6245 29.515 37.3491C29.643 37.3048 30.224 37.0884 30.224 36.9359C30.224 36.7835 30.1649 36.872 28.9093 36.9163Z" fill="black"/>
<path d="M31.7659 53.5458C31.564 53.1425 31.0766 52.9851 30.6777 53.1917C30.4315 53.3146 30.269 53.5557 30.2395 53.8311C30.2296 54.2492 30.5595 54.6033 30.983 54.6181H31.0569C31.4754 54.6181 31.825 54.2934 31.8349 53.8754C31.8398 53.7622 31.8152 53.6491 31.7659 53.5458ZM31.3178 53.8803C31.2538 54.0475 31.0667 54.1311 30.8993 54.0672C30.8107 54.0328 30.7417 53.9639 30.7073 53.8803C30.6876 53.8213 30.6777 53.7622 30.6777 53.7032C30.7565 53.1327 31.4606 53.3294 31.3178 53.8803Z" fill="black"/>
<path d="M31.5889 49.8914C31.3871 49.493 30.8996 49.3356 30.5007 49.5372C30.2545 49.6602 30.0871 49.9012 30.0625 50.1766C30.0477 50.5996 30.3825 50.9488 30.806 50.9636H30.8799C31.2984 50.9734 31.648 50.6439 31.6579 50.2209C31.6628 50.1078 31.6382 49.9946 31.5889 49.8914ZM31.1408 50.2258C31.0768 50.393 30.8897 50.4767 30.7223 50.4127C30.6337 50.3832 30.5647 50.3094 30.5303 50.2258C30.5106 50.1668 30.5007 50.1029 30.5007 50.0389C30.5795 49.488 31.2836 49.6651 31.1408 50.2258Z" fill="black"/>
<path d="M183.469 97.4037C181.943 96.9954 180.377 97.9103 179.968 99.435C179.692 100.468 180.017 101.565 180.81 102.283C181.677 103.035 182.893 103.247 183.967 102.834C186.044 101.993 186.704 98.0332 183.469 97.4037ZM183.779 102.317C182.893 102.578 181.938 102.371 181.239 101.761C179.692 100.502 180.766 97.6201 183.376 97.984C185.99 98.348 185.857 101.653 183.779 102.317Z" fill="black"/>
<path d="M93.1177 76.5883C92.9306 76.4703 93.0193 76.5883 92.2117 77.1294C91.6405 77.4835 90.5572 77.6606 90.5769 77.9065C90.5769 78.1918 91.8966 78.241 92.6056 77.6901C92.9602 77.4147 93.3049 76.7064 93.1177 76.5883Z" fill="black"/>
<path d="M94.3587 70.9517C94.339 70.7648 94.3291 70.4795 94.2996 70.0369C94.3341 69.8401 94.2011 69.6582 94.0091 69.6286C93.817 69.5942 93.6348 69.7221 93.6004 69.9188C93.5954 69.9582 93.5954 69.9975 93.6004 70.0369C93.6004 70.4697 93.6004 70.7845 93.6595 71.0206C93.6545 71.2124 93.8072 71.3796 94.0041 71.3846C94.1962 71.3944 94.3636 71.2419 94.3685 71.0452C94.3685 71.0107 94.3685 70.9812 94.3587 70.9517Z" fill="black"/>
<path d="M94.6828 67.981C94.3282 67.981 93.0874 68.0597 93.0972 68.3351C93.1071 68.6105 94.5646 68.7187 94.9585 68.7089C95.2737 68.7089 96.2585 68.5712 96.2486 68.3351C96.2388 68.099 95.0373 67.981 94.6828 67.981Z" fill="black"/>
<path d="M91.581 74.1094C91.2856 74.1094 90.8917 74.0307 90.5962 73.9618C90.4928 73.9274 90.3845 73.893 90.2811 73.8536C90.2023 73.5782 90.3697 70.1647 90.1826 69.2991C90.1826 69.1023 89.9364 68.9843 89.8675 69.4565C89.7985 69.9286 89.7099 70.2926 89.6311 71.1288C89.5129 72.1076 89.5129 73.0962 89.6311 74.0799C89.9069 74.6996 90.8917 74.4635 91.581 74.3947C91.6598 74.3701 91.7091 74.2914 91.6894 74.2127C91.6746 74.1586 91.6352 74.1192 91.581 74.1094Z" fill="black"/>
<path d="M86.1108 69.8992C86.032 69.8647 85.9483 69.8647 85.8695 69.8893C85.7119 69.9582 85.5938 70.0172 85.5938 71.1091C85.5938 71.3009 85.7562 71.4633 85.9483 71.4633C86.1403 71.4633 86.3028 71.3009 86.3028 71.1091V70.3615C86.3767 70.1795 86.293 69.9729 86.1108 69.8992Z" fill="black"/>
<path d="M85.4457 68.3056C84.9828 68.3351 83.8404 68.6007 83.8601 68.8368C83.8995 69.2401 87.0706 68.9647 87.0903 68.6401C87.0903 68.3548 85.9085 68.2761 85.4457 68.3056Z" fill="black"/>
<path d="M98.4158 85.5647L98.1992 84.9844C98.1647 84.9007 98.1105 84.8319 98.0465 84.7729C98.0268 84.7532 98.0071 84.7335 97.9825 84.7138C97.8151 84.5859 97.5787 84.5122 97.3227 84.4679C97.111 84.4335 96.8795 84.4236 96.6629 84.4286C96.653 84.4335 96.6432 84.4384 96.6333 84.4433C96.2296 84.6253 95.8258 84.7729 95.4171 84.9057C95.4319 84.9991 95.4417 85.0876 95.4516 85.1811C95.4516 85.2795 95.3235 85.4172 95.2251 85.5844C94.388 86.5681 92.9994 88.3388 92.2706 89.4405C92.0441 89.8045 91.8078 90.1685 92.0343 90.4243C92.0737 90.4587 92.1131 90.4882 92.1623 90.5128C91.4335 91.6539 91.1775 91.89 90.9805 92.3031C90.5374 91.8703 89.5624 90.739 89.1586 90.2669C89.2965 90.08 89.3063 89.893 88.7942 89.2831C88.1541 88.5355 87.1102 87.542 86.3913 86.8731C86.0072 86.396 85.6478 85.9041 85.308 85.3975C85.3326 85.2549 85.3573 85.1122 85.3917 84.9745C85.4163 84.8466 85.4459 84.7188 85.4804 84.5909H85.4754C85.3031 84.4384 85.1504 84.281 85.0027 84.1138C84.9535 84.3007 84.9092 84.4925 84.8649 84.6794C84.8255 84.8712 84.7861 85.063 84.7467 85.25C84.4808 85.0139 84.4315 84.9253 84.3134 84.9844C83.8259 85.1663 83.3679 85.4172 82.9543 85.732C77.597 87.5026 71.8457 90.9161 68.5859 95.569C68.5318 95.4903 68.4776 95.4116 68.4234 95.328C68.389 95.5149 68.325 95.7018 68.2363 95.8691C68.384 96.0707 68.5318 96.2724 68.6893 96.4691C68.7977 96.6019 68.906 96.7397 69.0143 96.8725C69.2655 97.1725 69.5264 97.4774 69.7923 97.7725C69.9154 97.9103 70.0385 98.0431 70.1666 98.1759C71.0726 99.1448 72.0771 100.069 73.1653 100.94C73.3967 101.122 73.638 101.304 73.8793 101.481C74.1206 101.668 74.3717 101.845 74.6228 102.022C74.6228 102.022 81.29 105.647 90.1188 105.677C90.0203 100.635 89.1192 95.6379 87.4549 90.8768L87.4746 90.8669L88.5185 90.5521C89.2374 91.4473 90.0203 92.2884 90.8623 93.0704C91.1282 93.1983 91.3154 93.0704 91.5025 92.8048C91.8964 92.3326 92.635 91.162 92.9501 90.6603L95.2349 91.0145C93.8956 95.7314 93.2308 100.62 93.2653 105.529C99.2726 104.949 105.969 102.499 112.124 96.2183C109.273 90.8866 104.29 87.0157 98.4158 85.5647ZM82.0877 91.6244C81.6938 90.3259 82.5112 87.5813 82.9839 86.2927C83.1119 85.9385 83.9687 85.4959 84.2641 85.309C85.0126 86.1353 87.7405 89.0077 88.4299 89.8832H88.4594C81.5657 91.8506 84.2149 91.0538 82.0877 91.6244ZM92.7827 89.9521C93.3441 88.9684 95.6485 85.6926 96.2985 84.7778C96.7023 84.7778 97.7068 84.827 97.825 85.1713C98.342 87.0108 98.7014 88.8897 98.8984 90.7931C98.1155 90.6702 99.8931 90.9997 92.7827 89.9521Z" fill="#AE3691"/>
<path d="M156.672 106.164V105.677C159.711 105.859 162.645 104.875 165.329 102.603C165.334 102.593 165.339 102.593 165.349 102.583C165.408 102.544 165.496 102.553 165.536 102.617C165.585 102.681 165.57 102.765 165.506 102.814C163.123 105.072 159.942 106.277 156.672 106.164Z" fill="black"/>
<path d="M183.469 97.4037C181.943 96.9954 180.377 97.9103 179.968 99.435C179.692 100.468 180.017 101.565 180.81 102.283C181.677 103.035 182.893 103.247 183.967 102.834C186.044 101.993 186.704 98.0332 183.469 97.4037ZM183.779 102.317C182.893 102.578 181.938 102.371 181.239 101.761C179.692 100.502 180.766 97.6201 183.376 97.984C185.99 98.348 185.857 101.653 183.779 102.317Z" fill="black"/>
<path d="M209.694 96.7544C184.641 53.8205 188.206 60.0523 187.93 59.1916C187.91 59.1129 187.832 59.0735 187.758 59.0981H187.753C181.086 61.1442 172.05 67.9711 171.814 69.6041C171.789 69.7566 171.745 69.6385 173.306 72.0486C173.276 72.0683 173.242 72.0929 173.212 72.1125C173.266 72.1962 173.306 72.2847 173.345 72.3781C173.384 72.3486 173.429 72.3142 173.468 72.2847L192.037 101.157C191.988 101.191 191.933 101.225 191.879 101.265C191.914 101.358 191.938 101.457 191.958 101.555C191.983 101.535 192.012 101.516 192.042 101.496C193.568 103.857 193.494 103.798 193.627 103.852C194.794 104.24 199.28 102.303 200.408 101.811C203.584 100.404 206.671 98.8202 209.66 97.0545C209.744 97.0643 209.818 97.0053 209.827 96.9216C209.842 96.8331 209.783 96.7593 209.699 96.7495L209.694 96.7544Z" fill="#AE3691"/>
<g clip-path="url(#clip0_764_18597)">
<path d="M156.686 30.1394C157.041 32.9786 157.683 35.8179 159.158 38.4178C161.121 41.8777 164.121 43.8998 168.112 44.5345C168.37 44.5758 168.628 44.6146 168.78 44.6385C167.7 44.9546 166.506 45.2204 165.378 45.6496C161.566 47.0998 159.147 49.8565 157.812 53.5731C157.201 55.275 156.844 57.0322 156.692 58.829C156.672 59.0667 156.63 59.3036 156.612 59.4331C156.225 56.2035 155.502 52.9656 153.612 50.0843C151.654 47.0989 148.831 45.4003 145.285 44.7904C145.119 44.7615 144.953 44.7326 144.786 44.7095C144.621 44.6872 144.455 44.6732 144.181 44.6435C147.469 44.1128 150.318 42.9498 152.549 40.5943C154.363 38.6786 155.423 36.3791 156.003 33.8643C156.291 32.613 156.47 31.3378 156.687 30.1394H156.686Z" fill="#AE3691"/>
<path d="M137.638 57.9145C139.848 57.4589 141.234 56.2225 141.605 53.8983C142.045 56.1672 143.279 57.5571 145.721 57.9376C143.28 58.399 141.883 59.7039 141.581 62C141.275 59.7732 139.916 58.3643 137.638 57.9145Z" fill="#AE3691"/>
<path d="M145.585 32.4759C143.317 32.9258 141.93 34.1935 141.58 36.4955C141.173 34.2794 139.955 32.8614 137.616 32.4528C139.832 31.9956 141.23 30.7666 141.601 28.4284C142.039 30.6973 143.279 32.0922 145.585 32.4759Z" fill="#AE3691"/>
<path d="M165.695 27.0971C168.371 26.54 169.45 24.9668 169.691 23C170.004 24.8719 170.909 26.5812 173.72 27.1235C171.441 27.5783 170.036 28.8023 169.674 31.1389C169.237 28.8782 168.006 27.4718 165.696 27.0971H165.695Z" fill="#AE3691"/>
</g>
<path d="M50.5245 124.576C50.5245 124.429 50.4063 124.311 50.2586 124.311C50.1109 124.311 49.9927 124.429 49.9927 124.576V125.388C50.0025 125.535 50.1355 125.643 50.2783 125.634C50.426 125.624 50.5392 125.491 50.5245 125.348C50.5343 125.25 50.5146 124.675 50.5245 124.581V124.576Z" fill="black"/>
<path d="M57.492 124.212C57.3442 124.222 57.231 124.345 57.2408 124.497V125.235C57.231 125.383 57.3442 125.511 57.487 125.521C57.6348 125.53 57.7677 125.417 57.7726 125.275V124.463C57.7628 124.315 57.6397 124.197 57.487 124.212H57.492Z" fill="black"/>
<path d="M55.4341 129.559C55.3948 129.569 55.3652 129.598 55.3554 129.637C55.2766 129.79 55.1683 129.928 55.0304 130.041C54.8137 130.272 54.533 130.434 54.2179 130.513C54.0456 130.567 53.8634 130.596 53.6763 130.611C53.6319 130.577 53.563 130.582 53.5285 130.631C53.4941 130.675 53.5039 130.744 53.5482 130.778C53.5581 130.788 53.5729 130.793 53.5827 130.798C54.2081 131.167 55.0156 130.965 55.3849 130.341C55.5129 130.129 55.5769 129.888 55.5671 129.642C55.5523 129.583 55.4883 129.544 55.4292 129.564L55.4341 129.559Z" fill="black"/>
<path d="M67.0053 142.716C65.2966 140.94 63.1054 139.573 60.5646 138.56C60.6631 138.432 60.7616 138.309 60.5646 138.156C59.8555 137.674 59.1071 137.241 58.334 136.868C58.2552 136.818 58.2552 136.868 57.5265 137.384C57.3689 136.533 56.8125 133.587 56.714 132.948C58.2897 132.47 59.6044 131.369 60.3479 129.908C60.7468 128.644 61.0669 127.36 61.2934 126.062C62.0024 125.127 62.7558 123.632 62.1058 122.707C62.2339 122.481 62.3422 122.25 62.4308 122.009C62.485 121.896 62.5096 121.773 62.5096 121.65C62.5096 121.527 62.485 121.418 62.4308 121.315C62.4013 121.241 62.3717 121.173 62.3225 121.114C62.682 120.631 62.5589 120.204 62.3225 119.648C62.2733 119.49 62.1846 119.353 62.0566 119.249C62.16 119.151 62.2486 119.043 62.3176 118.925C62.5293 118.187 62.2536 117.4 61.6282 116.957C61.515 116.893 61.3918 116.844 61.2638 116.82C61.4509 115.856 60.8256 114.921 59.8605 114.739C59.826 114.729 59.7915 114.724 59.7521 114.719C59.4419 114.675 59.1219 114.744 58.856 114.916C58.5211 113.947 57.4723 113.436 56.5072 113.77C56.3989 113.805 56.2955 113.854 56.1921 113.913L55.9902 114.006C55.9015 113.701 55.9114 113.342 55.5273 113.126C54.8724 112.85 54.1092 113.037 53.6562 113.588C53.4149 113.377 53.3804 113.175 52.4941 113.101C52.0115 113.052 51.5191 113.185 51.1252 113.48C51.0218 113.568 50.8248 113.839 50.751 113.893C50.682 113.839 50.5983 113.8 50.5097 113.765C50.1256 113.687 49.7268 113.706 49.3476 113.829C48.87 113.982 48.4908 114.355 48.3185 114.833C47.9935 114.941 47.5651 114.518 46.4621 115.831C46.2504 116.087 46.1125 116.397 46.0731 116.731C46.0633 116.849 46.0633 116.962 46.0731 117.085C45.8368 117.307 45.5561 117.4 45.3345 117.636C44.9849 118.138 44.8618 118.772 45.0046 119.372C45.0046 119.451 45.2459 119.776 45.1326 119.785C45.0194 119.79 45.1326 119.741 45.1326 119.712C44.8421 119.943 44.6255 120.258 44.5171 120.617C44.4728 120.971 44.527 121.325 44.6649 121.65C44.6895 121.714 44.7239 121.782 44.7584 121.841C44.8323 121.955 44.9701 122.053 45.0785 122.215C44.9357 122.328 44.847 122.496 44.8421 122.683C44.8421 122.889 44.9012 123.091 45.0194 123.268C44.1577 124.497 45.1917 125.698 46.4966 126.504C46.5951 127.449 46.7773 128.388 47.0382 129.303C47.634 130.916 48.9143 132.195 50.5442 132.775C50.3226 133.941 50.037 136.204 49.8942 137.379C49.0325 136.769 49.0817 136.754 48.9586 136.804C48.1412 137.187 47.3534 137.62 46.5852 138.107C46.5311 138.151 46.5015 138.22 46.4966 138.294C43.9065 139.238 41.6415 140.896 39.9525 143.07C39.3173 143.832 38.7757 144.663 38.3325 145.539C38.4261 145.549 38.5196 145.559 38.6132 145.568C39.0564 144.737 39.5882 143.955 40.2086 143.232C41.8975 141.117 44.1478 139.514 46.6985 138.609C47.9393 140.03 49.259 141.383 50.6476 142.657C50.8593 142.794 51.1744 142.578 51.6127 142.312C51.8786 142.976 52.2233 143.606 52.6418 144.191C52.4941 145.268 52.3808 146.355 52.2824 147.438C53.4592 147.418 54.6361 147.388 55.8129 147.334C55.9508 147.329 56.0837 147.315 56.2216 147.31C56.2019 147.201 56.1822 147.088 56.1625 146.98C55.9114 145.672 55.6307 144.526 55.4337 144.181C55.611 143.803 55.9508 142.967 56.1133 142.47C56.3496 142.617 56.6008 142.794 56.7928 142.667C58.0287 141.466 59.2007 140.202 60.2987 138.884C64.2724 140.404 67.4583 142.824 69.2162 146.365C69.3147 146.365 69.4131 146.37 69.5116 146.37C68.8715 145.003 68.0295 143.783 67.0053 142.716ZM60.6926 122.594C60.8995 122.594 60.9536 122.545 61.0915 122.594C61.6233 122.796 61.9236 123.361 61.7956 123.912C61.6528 124.547 61.3771 125.142 60.9881 125.663C61.1752 124.852 61.1063 124.006 60.801 123.233C60.5006 122.52 60.4021 122.805 60.6926 122.594ZM60.3283 125.988C60.0279 126.701 59.3878 127.217 58.6295 127.38C57.8465 127.581 57.0242 127.488 56.3053 127.124C55.1334 126.416 54.5425 125.038 54.8478 123.706C55.2614 122.23 56.8765 121.945 58.398 122.043C60.215 122.132 60.8994 124.188 60.3283 125.988ZM47.5306 121.65C48.0427 119.702 48.9143 118.202 50.8593 117.223C52.2528 116.588 53.8088 116.411 55.3106 116.721C57.2163 117.134 58.334 118.339 59.1613 120.13C59.373 120.607 59.5404 121.094 59.6487 121.605C59.6537 121.62 59.6586 121.635 59.6586 121.65C59.6881 121.787 59.6881 121.841 59.7078 121.92C59.5158 121.802 59.3139 121.714 59.1022 121.65C58.8806 121.581 58.6541 121.546 58.4227 121.541C57.945 121.541 57.4969 121.576 57.0882 121.65C55.4781 121.94 54.4539 122.84 54.508 124.699L54.4982 124.724C54.124 124.507 53.6562 124.507 53.277 124.724C53.277 122.432 51.6521 121.669 49.3575 121.704C48.5204 121.704 47.7375 122.122 47.2647 122.82C47.3435 122.417 47.4272 122.023 47.5306 121.65ZM49.3575 122.117C54.5179 121.792 53.2573 126.401 51.4847 127.203C49.6086 128.078 47.8015 127.203 47.4272 126.062C46.8511 124.247 47.5602 122.205 49.3575 122.117ZM46.9644 126.189C46.8364 126.062 45.6447 125.54 45.2951 124.596C45.0785 124.02 45.3739 123.381 45.95 123.165C45.9993 123.145 46.0534 123.13 46.1076 123.12C46.5261 123.12 46.7133 123.42 46.9644 123.43C46.664 124.325 46.664 125.289 46.9644 126.189ZM50.9726 142.101C50.8347 142.18 51.0464 142.376 48.7272 140.05L46.9644 138.269C47.25 138.033 48.6583 137.192 49.0029 136.991C49.195 137.143 53.1293 140.404 53.2819 140.552C52.5483 141.117 51.7801 141.639 50.9726 142.101ZM50.298 137.635C50.3127 137.556 50.751 134.039 51.0464 132.638C51.071 132.52 51.0021 132.406 50.8889 132.372C49.3279 131.856 48.0871 130.665 47.5011 129.131C47.2549 128.226 47.0826 127.306 46.989 126.376C47.5405 127.778 49.5938 128.703 51.6767 127.655C52.632 127.109 53.2425 126.116 53.3016 125.024C53.4691 125.073 53.6463 125.098 53.8285 125.098C53.6414 126.057 53.5035 127.031 53.4297 128.004C53.4149 128.236 53.4149 128.467 53.4297 128.703C53.4346 128.801 53.474 128.89 53.5429 128.959C54.055 129.293 54.7838 128.959 55.0694 128.959C55.1285 128.959 55.1728 128.914 55.1728 128.855V128.845C55.1728 128.663 54.8379 128.782 54.2323 128.708C54.124 128.698 54.0156 128.663 53.9171 128.619C54.0747 127.444 54.1043 126.248 53.9959 125.063C54.8478 125.063 54.3111 124.675 54.7099 125.816C55.3747 127.562 57.3295 128.432 59.0776 127.768C59.7325 127.517 60.2987 127.065 60.6877 126.485C60.4858 127.562 60.215 128.619 59.8752 129.667C59.5306 130.36 59.0332 130.98 58.4227 131.472C56.9799 132.623 56.0887 132.338 56.1773 132.81C56.3053 133.434 56.9897 136.715 57.1424 137.669C55.9951 138.52 54.8921 139.43 53.8334 140.399C52.7107 139.41 51.529 138.486 50.298 137.635ZM56.6008 142.15C55.8228 141.648 55.0694 141.107 54.3455 140.527C54.4933 140.424 58.1567 137.222 58.334 137.059C58.6442 137.256 59.959 138.087 60.2396 138.319C60.1658 138.407 56.9947 141.766 56.6008 142.15Z" fill="black"/>
<path d="M50.106 123.066C49.4855 122.992 49.0916 123.332 49.1409 123.455C49.1901 123.573 50.6328 123.583 50.6969 123.455C50.7609 123.322 50.3866 123.096 50.106 123.066ZM57.8466 122.997C57.2262 122.919 56.8273 123.268 56.8815 123.386C57.0932 123.474 57.3197 123.519 57.5413 123.519H57.817C58.0288 123.509 58.2356 123.474 58.4325 123.41C58.531 123.258 58.1322 123.032 57.8466 122.997Z" fill="black"/>
<path d="M87.4603 31.0556C87.3874 29.3168 86.0757 27.1452 85.0596 25.742C83.9787 24.4318 82.671 23.3238 81.1974 22.4827C80.0355 21.9044 78.8129 21.4677 77.5498 21.1806L76.7199 18.4307C78.4891 18.1881 78.4162 18.1477 78.821 18.358C79.068 18.5238 79.3595 18.6249 79.655 18.6451C80.3027 18.6289 80.9343 18.4712 81.5091 18.1881C81.7844 18.0587 81.9788 17.7918 82.2257 17.7271C82.6508 17.6948 83.0718 17.7433 83.4807 17.8565C83.9503 17.9131 84.4078 17.6988 84.6669 17.3066C84.8167 17.068 84.8693 16.7889 85.0596 16.5018C85.1243 16.4007 85.4361 16.429 85.6223 16.3522C86.5413 16.0813 87.1445 15.2038 87.0554 14.2494C86.9704 13.2668 86.4036 12.5955 86.3389 11.4551C86.2822 10.4805 86.4603 9.8497 86.1607 9.11776C86.1122 8.9924 86.0474 8.863 85.9664 8.72955C85.4037 7.81564 84.088 6.86534 83.7196 5.88269C83.4605 5.16288 83.7196 4.37029 83.173 3.76371C82.7601 3.29867 82.2864 2.89428 81.7682 2.55055C81.1691 2.33219 80.5497 2.16639 79.9181 2.05316C79.5173 1.93589 79.3675 1.6326 79.1004 1.29292C78.3555 0.306217 77.1248 -0.170957 75.9102 0.0554987C75.3354 0.217253 74.9832 0.374963 74.2909 0.621638C73.4407 0.407314 72.5541 0.358788 71.6797 0.484147C70.8457 0.682295 70.0482 1.00176 69.2992 1.43041C68.3924 1.9642 67.7932 2.89428 67.6758 3.93759C67.6758 4.13574 67.6758 4.5927 67.5503 4.66953C66.9309 5.16288 65.8257 4.86364 65.0363 5.39338C64.3319 5.90695 63.8784 6.69145 63.7853 7.56493C63.7853 7.79947 63.8825 8.1715 63.7853 8.32113C63.5951 8.6972 63.1335 8.81852 62.7975 9.11776C62.7732 9.13798 62.7489 9.1582 62.7287 9.17842C62.2469 9.64751 61.8785 10.2217 61.6437 10.8566C61.4332 11.4834 61.579 12.179 62.0283 12.6683C62.5911 13.3193 62.8056 13.5983 62.6801 14.5244C62.4898 15.1188 62.5587 15.7659 62.8704 16.3118C63.1376 16.7283 63.4979 17.0801 63.923 17.343C64.2752 17.4602 64.4776 17.0154 64.8339 17.1003C65.0039 17.1448 65.2711 17.901 65.7164 18.1436C66.433 18.5278 66.9512 18.0911 67.6151 18.2326C67.8701 18.2852 68.3276 18.4995 68.6191 18.4227C68.9875 18.2852 69.3761 18.2245 69.7688 18.2407C70.0279 18.3054 70.2992 18.2811 70.538 18.18C70.9186 18.083 71.1898 18.3903 71.6108 18.3377C71.4327 19.0495 71.121 20.295 70.955 21.0107C69.9186 21.2372 68.9025 21.5405 67.9025 21.9125C64.8055 23.2308 62.3481 25.7056 61.0527 28.8154C60.6964 29.7212 60.4778 30.6715 60.3968 31.642C60.3766 31.7714 60.5952 31.7593 60.6073 31.642C60.915 28.3099 63.7125 24.3469 67.9025 22.4463C68.3398 23.6311 68.8377 24.7958 69.3964 25.9321C69.7688 26.1707 70.1818 26.3405 70.6109 26.4295C71.8295 30.8332 71.2627 31.4277 71.4773 31.642C71.538 31.7067 71.206 31.6824 77.4972 31.6824C77.6308 31.6622 77.732 31.549 77.732 31.4155C77.8332 29.6605 78.0518 27.9217 78.3838 26.199C78.6915 26.11 78.9587 25.928 79.1449 25.6773C79.5214 24.63 79.8169 23.5624 80.0396 22.4786C80.3715 22.6283 80.6914 22.7698 80.9788 22.9275C82.3917 23.7322 83.6548 24.7836 84.7074 26.0251C85.7964 27.4121 87.1688 29.523 87.27 31.2983C87.27 31.3428 87.436 31.3872 87.4603 31.2983C87.4886 31.2053 87.4603 31.1203 87.4603 31.0556ZM78.7481 25.4954C78.5255 25.92 76.7928 26.1464 76.3272 26.2313C74.6067 26.4618 71.1089 26.6236 69.696 25.6248C69.5259 25.3012 68.4653 22.5878 68.3195 22.2279C70.619 21.2534 71.2829 21.5769 71.3477 21.2331V21.2129C71.4003 20.9258 71.4854 20.5619 71.5906 20.113C72.2424 17.4602 72.3517 17.4077 72.125 17.2904C71.6351 17.0194 71.2263 16.6272 70.9307 16.1541C70.2992 14.9733 69.785 13.7358 69.3923 12.458C69.3761 12.4014 69.3397 12.3609 69.2911 12.3367C68.6839 11.9646 68.1657 11.4713 67.7649 10.8809C67.5301 10.5291 67.5503 10.0681 67.8175 9.74052C68.0928 9.40083 68.3924 9.64751 68.8094 9.83757C68.943 9.8861 69.0887 9.81735 69.1413 9.68795V9.67581C69.1737 9.57472 69.2304 9.37657 69.3033 9.11776C69.6069 8.02592 70.2344 5.83416 71.0157 5.17097C71.4489 4.80298 71.9428 4.51182 72.4691 4.30963C72.4367 4.39455 72.3477 4.62909 72.3072 4.70997C71.2951 5.75733 71.7323 6.75616 72.5379 7.96931C72.8294 8.30495 73.2059 8.5678 73.6269 8.72551C73.9265 8.88726 74.2585 9.00858 74.5986 9.11776C75.0965 9.27952 75.6066 9.41701 76.0479 9.63942C76.0884 9.66368 76.1329 9.6839 76.1734 9.71221H76.1774C76.2948 9.78096 76.4041 9.8497 76.5094 9.93462C77.5134 10.7555 76.3798 12.1264 77.9142 13.194C78.1206 13.3436 78.3555 13.4487 78.6065 13.5013C77.6834 16.0449 77.3393 16.7606 76.1167 17.347C76.0195 17.3915 75.9669 17.5047 76.0074 17.6098C76.1046 17.8808 77.1936 21.3949 77.1936 21.3949C77.2745 21.6577 77.5984 21.4353 79.6024 22.236C79.3918 23.34 79.1044 24.4278 78.7481 25.4954Z" fill="black"/>
<path d="M74.6431 12.2598C74.55 12.2518 74.4043 12.2598 74.1735 12.2154C74.129 12.2154 73.878 12.1426 73.9185 12.1102C73.8658 11.9161 73.8415 11.7139 73.8415 11.5117C73.8415 11.4713 73.8011 9.93463 73.8415 9.89419C73.8496 9.83758 73.8132 9.78905 73.7565 9.78501C73.712 9.77692 73.6675 9.80523 73.6513 9.84971C73.3395 10.6342 73.291 11.5036 73.5136 12.3205C73.7403 12.6925 74.2788 12.5874 74.6877 12.4459C74.7403 12.4378 74.7727 12.3892 74.7646 12.3407C74.7646 12.276 74.7322 12.2639 74.6391 12.2639L74.6431 12.2598Z" fill="black"/>
<path d="M70.5182 11.9404C70.4778 11.811 70.3401 11.7382 70.2146 11.7826C70.0891 11.7705 69.9717 11.8635 69.9596 11.9929C69.9515 12.1102 70.0284 12.2194 70.1418 12.2436C70.2106 12.28 70.2915 12.28 70.3563 12.2436C70.4818 12.2032 70.5547 12.0657 70.5142 11.9404H70.5182Z" fill="black"/>
<path d="M70.8986 11.1357C70.5383 11.1357 70.6962 11.6128 70.8986 11.6128C71.0322 11.5886 71.1213 11.4673 71.097 11.3338C71.0808 11.2327 71.0039 11.1559 70.8986 11.1397V11.1357Z" fill="black"/>
<path d="M71.2914 12.5874C71.1821 12.5065 71.0282 12.5308 70.9472 12.644C70.9391 12.6602 70.927 12.6764 70.923 12.6925C70.846 12.8017 70.8703 12.9554 70.9837 13.0363C71.0242 13.0605 71.0727 13.0767 71.1213 13.0808C71.2792 13.0686 71.4007 12.9311 71.3885 12.7734C71.3804 12.6966 71.348 12.6319 71.2954 12.5834L71.2914 12.5874Z" fill="black"/>
<path d="M71.7606 9.62323C71.4812 9.62323 71.4408 10.2743 71.7606 10.2743C72.0804 10.2743 72.0561 9.63536 71.7606 9.62323Z" fill="black"/>
<path d="M76.1778 9.71221C76.1535 9.67177 76.109 9.63942 76.0523 9.63538C76.0442 9.63538 76.0361 9.63538 76.028 9.63538C75.8337 9.67581 75.7406 10.2864 76.028 10.2864C76.1819 10.2864 76.3033 9.89014 76.1859 9.71221H76.1778Z" fill="black"/>
<path d="M75.6473 14.0674C75.6189 14.0512 75.5825 14.0472 75.5501 14.0674C75.3679 14.1766 75.1007 14.31 75.036 14.3424C74.7283 14.5203 74.3882 14.6335 74.032 14.6699C73.8457 14.6942 73.6555 14.6942 73.4692 14.6699C73.4207 14.6457 73.3599 14.6699 73.3397 14.7144C73.3154 14.7589 73.3397 14.8196 73.3842 14.8438C73.7607 15.1228 74.2546 15.1875 74.6878 15.0137C75.1129 14.8802 75.4691 14.5891 75.6797 14.2049C75.708 14.1564 75.6958 14.0957 75.6473 14.0674Z" fill="black"/>
<defs>
<clipPath id="clip0_764_18597">
<rect width="36.1032" height="39" fill="white" transform="translate(137.616 23)"/>
</clipPath>
</defs>
</svg>
