<svg width="139" height="36" viewBox="0 0 139 36" fill="none" xmlns="http://www.w3.org/2000/svg">
<path d="M12.5595 1.125C5.94872 1.125 0.570312 6.46423 0.570312 13.0273V22.9727C0.570312 29.5357 5.94872 34.875 12.5595 34.875H22.5776C29.1884 34.875 34.5667 29.5357 34.5667 22.9727V18.5587L29.2321 21.7029V22.9727C29.2321 26.6154 26.2468 29.5789 22.5776 29.5789H12.5595C8.89019 29.5789 5.90501 26.6154 5.90501 22.9727V13.0273C5.90501 9.3845 8.89019 6.42095 12.5595 6.42095H22.5776C24.9905 6.42095 27.2383 7.75485 28.4031 9.84401L17.4152 16.4558L14.3561 11.4454L13.1788 12.1539C13.1795 12.1552 13.1804 12.1563 13.1812 12.1577C13.5321 12.7415 13.3256 13.5054 12.7203 13.8638C12.119 14.2197 11.3509 14.0413 10.9968 13.4669L9.7941 14.1906L15.6182 23.7299L34.5491 12.3386L34.5313 12.106C34.4139 10.5848 34.0075 9.12743 33.3298 7.76623L33.3376 7.76154L32.9783 7.09092L32.9723 7.09437C30.8322 3.40209 26.8861 1.125 22.5776 1.125H12.5595Z" fill="#375DFB"/>
<path d="M57.1564 21.705V24.125H47.2964V9.925H56.9764V12.345H50.0564V15.765H56.0364V18.005H50.0564V21.705H57.1564ZM61.3923 24.125L57.5323 13.645H60.3123L62.9523 21.685L65.6123 13.645H68.1523L64.3123 24.125H61.3923ZM73.7769 24.325C72.9369 24.325 72.1769 24.185 71.4969 23.905C70.8169 23.6117 70.2369 23.2183 69.7569 22.725C69.2769 22.2183 68.9035 21.645 68.6369 21.005C68.3835 20.3517 68.2569 19.665 68.2569 18.945C68.2569 17.945 68.4769 17.0317 68.9169 16.205C69.3702 15.3783 70.0102 14.7183 70.8369 14.225C71.6769 13.7183 72.6635 13.465 73.7969 13.465C74.9435 13.465 75.9235 13.7183 76.7369 14.225C77.5502 14.7183 78.1702 15.3783 78.5969 16.205C79.0369 17.0183 79.2569 17.8983 79.2569 18.845C79.2569 19.005 79.2502 19.1717 79.2369 19.345C79.2235 19.505 79.2102 19.6383 79.1969 19.745H71.0969C71.1502 20.2783 71.3035 20.745 71.5569 21.145C71.8235 21.545 72.1569 21.8517 72.5569 22.065C72.9702 22.265 73.4102 22.365 73.8769 22.365C74.4102 22.365 74.9102 22.2383 75.3769 21.985C75.8569 21.7183 76.1835 21.3717 76.3569 20.945L78.6569 21.585C78.4035 22.1183 78.0369 22.5917 77.5569 23.005C77.0902 23.4183 76.5369 23.745 75.8969 23.985C75.2569 24.2117 74.5502 24.325 73.7769 24.325ZM71.0369 18.045H76.5169C76.4635 17.5117 76.3102 17.0517 76.0569 16.665C75.8169 16.265 75.4969 15.9583 75.0969 15.745C74.6969 15.5183 74.2502 15.405 73.7569 15.405C73.2769 15.405 72.8369 15.5183 72.4369 15.745C72.0502 15.9583 71.7302 16.265 71.4769 16.665C71.2369 17.0517 71.0902 17.5117 71.0369 18.045ZM90.3295 24.125H87.6495V18.245C87.6495 17.405 87.5029 16.7917 87.2095 16.405C86.9162 16.0183 86.5095 15.825 85.9895 15.825C85.6295 15.825 85.2629 15.9183 84.8895 16.105C84.5295 16.2917 84.2029 16.5517 83.9095 16.885C83.6162 17.205 83.4029 17.5783 83.2695 18.005V24.125H80.5895V13.645H83.0095V15.585C83.2762 15.1317 83.6162 14.7517 84.0295 14.445C84.4429 14.125 84.9162 13.885 85.4495 13.725C85.9962 13.5517 86.5695 13.465 87.1695 13.465C87.8229 13.465 88.3562 13.585 88.7695 13.825C89.1962 14.0517 89.5162 14.365 89.7295 14.765C89.9562 15.1517 90.1095 15.5917 90.1895 16.085C90.2829 16.5783 90.3295 17.0783 90.3295 17.585V24.125ZM98.5812 23.585C98.3546 23.6783 98.0812 23.785 97.7612 23.905C97.4412 24.025 97.0946 24.1183 96.7212 24.185C96.3612 24.265 95.9946 24.305 95.6212 24.305C95.1279 24.305 94.6746 24.2183 94.2612 24.045C93.8479 23.8717 93.5146 23.5983 93.2612 23.225C93.0212 22.8383 92.9012 22.3383 92.9012 21.725V15.705H91.5212V13.645H92.9012V10.245H95.5812V13.645H97.7812V15.705H95.5812V20.825C95.5946 21.185 95.6946 21.445 95.8812 21.605C96.0679 21.765 96.3012 21.845 96.5812 21.845C96.8612 21.845 97.1346 21.7983 97.4012 21.705C97.6679 21.6117 97.8812 21.5317 98.0412 21.465L98.5812 23.585ZM111.877 9.925V24.125H109.137V18.065H102.697V24.125H99.937V9.925H102.697V15.665H109.137V9.925H111.877ZM118.964 24.325C118.124 24.325 117.364 24.185 116.684 23.905C116.004 23.6117 115.424 23.2183 114.944 22.725C114.464 22.2183 114.09 21.645 113.824 21.005C113.57 20.3517 113.444 19.665 113.444 18.945C113.444 17.945 113.664 17.0317 114.104 16.205C114.557 15.3783 115.197 14.7183 116.024 14.225C116.864 13.7183 117.85 13.465 118.984 13.465C120.13 13.465 121.11 13.7183 121.924 14.225C122.737 14.7183 123.357 15.3783 123.784 16.205C124.224 17.0183 124.444 17.8983 124.444 18.845C124.444 19.005 124.437 19.1717 124.424 19.345C124.41 19.505 124.397 19.6383 124.384 19.745H116.284C116.337 20.2783 116.49 20.745 116.744 21.145C117.01 21.545 117.344 21.8517 117.744 22.065C118.157 22.265 118.597 22.365 119.064 22.365C119.597 22.365 120.097 22.2383 120.564 21.985C121.044 21.7183 121.37 21.3717 121.544 20.945L123.844 21.585C123.59 22.1183 123.224 22.5917 122.744 23.005C122.277 23.4183 121.724 23.745 121.084 23.985C120.444 24.2117 119.737 24.325 118.964 24.325ZM116.224 18.045H121.704C121.65 17.5117 121.497 17.0517 121.244 16.665C121.004 16.265 120.684 15.9583 120.284 15.745C119.884 15.5183 119.437 15.405 118.944 15.405C118.464 15.405 118.024 15.5183 117.624 15.745C117.237 15.9583 116.917 16.265 116.664 16.665C116.424 17.0517 116.277 17.5117 116.224 18.045ZM127.106 13.645L129.306 16.925L129.466 17.285L129.666 16.925L131.846 13.645H134.666L131.026 18.865L134.726 24.125H131.906L129.646 20.865L129.466 20.525L129.306 20.865L127.066 24.125H124.246L127.946 18.925L124.306 13.645H127.106Z" fill="#0A0D14"/>
</svg>
