<svg width="30" height="31" viewBox="0 0 30 31" fill="none" xmlns="http://www.w3.org/2000/svg">
<g clip-path="url(#clip0_1049_6747)">
<path opacity="0.4" d="M1 6.125V24.875C1 26.5986 2.40137 28 4.125 28H16.625C16.7861 28 16.9473 27.9854 17.0986 27.9658C14.9209 26.4033 13.5 23.8545 13.5 20.9688C13.5 17.0332 16.1416 13.7178 19.75 12.6973V6.125C19.75 4.40137 18.3486 3 16.625 3H4.125C2.40137 3 1 4.40137 1 6.125ZM4.125 10.0312C4.125 9.60156 4.47656 9.25 4.90625 9.25H15.8438C16.2734 9.25 16.625 9.60156 16.625 10.0312C16.625 10.4609 16.2734 10.8125 15.8438 10.8125H4.90625C4.47656 10.8125 4.125 10.4609 4.125 10.0312ZM4.125 14.7188C4.125 14.2891 4.47656 13.9375 4.90625 13.9375H12.7188C13.1484 13.9375 13.5 14.2891 13.5 14.7188C13.5 15.1484 13.1484 15.5 12.7188 15.5H4.90625C4.47656 15.5 4.125 15.1484 4.125 14.7188ZM4.125 19.4062C4.125 18.9766 4.47656 18.625 4.90625 18.625H9.59375C10.0234 18.625 10.375 18.9766 10.375 19.4062C10.375 19.8359 10.0234 20.1875 9.59375 20.1875H4.90625C4.47656 20.1875 4.125 19.8359 4.125 19.4062Z" fill="#375DFB"/>
<path d="M15.0625 20.9688C15.0625 19.1039 15.8033 17.3155 17.1219 15.9969C18.4405 14.6783 20.2289 13.9375 22.0938 13.9375C23.9586 13.9375 25.747 14.6783 27.0656 15.9969C28.3842 17.3155 29.125 19.1039 29.125 20.9688C29.125 22.8336 28.3842 24.622 27.0656 25.9406C25.747 27.2592 23.9586 28 22.0938 28C20.2289 28 18.4405 27.2592 17.1219 25.9406C15.8033 24.622 15.0625 22.8336 15.0625 20.9688ZM23.2656 17.4531C23.2656 17.1423 23.1422 16.8443 22.9224 16.6245C22.7026 16.4047 22.4046 16.2812 22.0938 16.2812C21.7829 16.2812 21.4849 16.4047 21.2651 16.6245C21.0453 16.8443 20.9219 17.1423 20.9219 17.4531C20.9219 17.7639 21.0453 18.062 21.2651 18.2818C21.4849 18.5015 21.7829 18.625 22.0938 18.625C22.4046 18.625 22.7026 18.5015 22.9224 18.2818C23.1422 18.062 23.2656 17.7639 23.2656 17.4531ZM21.3125 20.1875C20.8828 20.1875 20.5312 20.5391 20.5312 20.9688C20.5312 21.3984 20.8828 21.75 21.3125 21.75V24.0938C20.8828 24.0938 20.5312 24.4453 20.5312 24.875C20.5312 25.3047 20.8828 25.6562 21.3125 25.6562H22.0938H22.875C23.3047 25.6562 23.6562 25.3047 23.6562 24.875C23.6562 24.4453 23.3047 24.0938 22.875 24.0938V20.9688C22.875 20.5391 22.5234 20.1875 22.0938 20.1875H21.3125Z" fill="#375DFB"/>
</g>
<defs>
<clipPath id="clip0_1049_6747">
<rect width="28.125" height="25" fill="white" transform="translate(1 3)"/>
</clipPath>
</defs>
</svg>
