<svg width="14" height="14" viewBox="0 0 14 14" fill="none" xmlns="http://www.w3.org/2000/svg">
<path d="M7.10949 12.2451C4.39431 12.2451 2.19336 10.0442 2.19336 7.32898C2.19336 4.6138 4.39431 2.41285 7.10949 2.41285C9.82467 2.41285 12.0256 4.6138 12.0256 7.32898C12.0256 10.0442 9.82467 12.2451 7.10949 12.2451ZM5.98369 11.0982C5.49868 10.0694 5.2177 8.95632 5.15631 7.82059H3.20707C3.30273 8.57713 3.61605 9.28961 4.10896 9.87146C4.60188 10.4533 5.25316 10.8795 5.98369 11.0982ZM6.14101 7.82059C6.21524 9.01964 6.5579 10.1459 7.10949 11.14C7.67598 10.1196 8.0069 8.98546 8.07797 7.82059H6.14101ZM11.0119 7.82059H9.06267C9.00128 8.95632 8.7203 10.0694 8.23528 11.0982C8.96581 10.8795 9.6171 10.4533 10.11 9.87146C10.6029 9.28961 10.9163 8.57713 11.0119 7.82059ZM3.20707 6.83737H5.15631C5.2177 5.70163 5.49868 4.58857 5.98369 3.55978C5.25316 3.77849 4.60188 4.20466 4.10896 4.7865C3.61605 5.36835 3.30273 6.08082 3.20707 6.83737ZM6.1415 6.83737H8.07747C8.00656 5.67254 7.67581 4.53835 7.10949 3.518C6.54299 4.53831 6.21208 5.6725 6.14101 6.83737H6.1415ZM8.23528 3.55978C8.7203 4.58857 9.00128 5.70163 9.06267 6.83737H11.0119C10.9163 6.08082 10.6029 5.36835 10.11 4.7865C9.6171 4.20466 8.96581 3.77849 8.23528 3.55978Z" fill="#525866"/>
</svg>
