<svg width="14" height="14" viewBox="0 0 14 14" fill="none" xmlns="http://www.w3.org/2000/svg">
<path d="M6.89025 5.63477C6.4991 5.63477 6.12397 5.79016 5.84738 6.06674C5.5708 6.34333 5.41541 6.71846 5.41541 7.10961C5.41541 7.50076 5.5708 7.87589 5.84738 8.15248C6.12397 8.42907 6.4991 8.58445 6.89025 8.58445C7.2814 8.58445 7.65653 8.42907 7.93312 8.15248C8.2097 7.87589 8.36509 7.50076 8.36509 7.10961C8.36509 6.71846 8.2097 6.34333 7.93312 6.06674C7.65653 5.79016 7.2814 5.63477 6.89025 5.63477ZM6.89025 4.65155C7.54217 4.65155 8.16739 4.91052 8.62836 5.3715C9.08934 5.83247 9.34831 6.45769 9.34831 7.10961C9.34831 7.76153 9.08934 8.38675 8.62836 8.84772C8.16739 9.3087 7.54217 9.56768 6.89025 9.56768C6.23833 9.56768 5.61311 9.3087 5.15214 8.84772C4.69116 8.38675 4.43219 7.76153 4.43219 7.10961C4.43219 6.45769 4.69116 5.83247 5.15214 5.3715C5.61311 4.91052 6.23833 4.65155 6.89025 4.65155ZM10.0857 4.52864C10.0857 4.69162 10.021 4.84793 9.90575 4.96317C9.7905 5.07842 9.6342 5.14316 9.47122 5.14316C9.30824 5.14316 9.15193 5.07842 9.03669 4.96317C8.92144 4.84793 8.8567 4.69162 8.8567 4.52864C8.8567 4.36566 8.92144 4.20936 9.03669 4.09411C9.15193 3.97887 9.30824 3.91413 9.47122 3.91413C9.6342 3.91413 9.7905 3.97887 9.90575 4.09411C10.021 4.20936 10.0857 4.36566 10.0857 4.52864ZM6.89025 3.17671C5.674 3.17671 5.47539 3.18015 4.90954 3.20522C4.52412 3.22341 4.26553 3.27503 4.02562 3.36844C3.81226 3.45103 3.65839 3.54984 3.49468 3.71404C3.34081 3.8627 3.2225 4.0442 3.14858 4.24498C3.05518 4.48587 3.00356 4.74397 2.98586 5.1289C2.9603 5.67164 2.95735 5.86141 2.95735 7.10961C2.95735 8.32586 2.96079 8.52447 2.98586 9.09032C3.00405 9.47525 3.05567 9.73433 3.14858 9.97375C3.23216 10.1876 3.33048 10.3415 3.4937 10.5047C3.65937 10.6699 3.81324 10.7687 4.02464 10.8503C4.2675 10.9442 4.52608 10.9963 4.90954 11.014C5.45228 11.0396 5.64205 11.0425 6.89025 11.0425C8.1065 11.0425 8.30511 11.0391 8.87096 11.014C9.2554 10.9958 9.51448 10.9442 9.75439 10.8513C9.96726 10.7682 10.1221 10.6694 10.2853 10.5062C10.451 10.3405 10.5498 10.1866 10.6314 9.97522C10.7248 9.73286 10.7769 9.47378 10.7946 9.09032C10.8202 8.54758 10.8232 8.35782 10.8232 7.10961C10.8232 5.89336 10.8197 5.69475 10.7946 5.1289C10.7765 4.74446 10.7248 4.48489 10.6314 4.24498C10.5573 4.0444 10.4392 3.86298 10.2858 3.71404C10.1372 3.56009 9.95571 3.44177 9.75488 3.36794C9.51399 3.27454 9.2554 3.22292 8.87096 3.20522C8.32822 3.17966 8.13846 3.17671 6.89025 3.17671ZM6.89025 2.19348C8.22596 2.19348 8.39262 2.1984 8.91668 2.22298C9.44025 2.24756 9.79667 2.32966 10.1103 2.45158C10.4348 2.57645 10.7081 2.74556 10.9815 3.01841C11.2314 3.26416 11.4249 3.56144 11.5483 3.88955C11.6697 4.2027 11.7523 4.55961 11.7769 5.08318C11.8 5.60724 11.8064 5.7739 11.8064 7.10961C11.8064 8.44532 11.8015 8.61198 11.7769 9.13604C11.7523 9.65961 11.6697 10.016 11.5483 10.3297C11.4252 10.658 11.2317 10.9553 10.9815 11.2008C10.7356 11.4507 10.4384 11.6441 10.1103 11.7676C9.79716 11.8891 9.44025 11.9717 8.91668 11.9962C8.39262 12.0193 8.22596 12.0257 6.89025 12.0257C5.55454 12.0257 5.38788 12.0208 4.86382 11.9962C4.34025 11.9717 3.98383 11.8891 3.67019 11.7676C3.34195 11.6445 3.04462 11.451 2.79905 11.2008C2.54902 10.9551 2.35558 10.6578 2.23222 10.3297C2.1103 10.0165 2.0282 9.65961 2.00362 9.13604C1.98051 8.61198 1.97412 8.44532 1.97412 7.10961C1.97412 5.7739 1.97904 5.60724 2.00362 5.08318C2.0282 4.55912 2.1103 4.20319 2.23222 3.88955C2.35524 3.56124 2.54872 3.26388 2.79905 3.01841C3.04469 2.76829 3.342 2.57484 3.67019 2.45158C3.98383 2.32966 4.33976 2.24756 4.86382 2.22298C5.38788 2.19987 5.55454 2.19348 6.89025 2.19348Z" fill="#525866"/>
</svg>
