<svg width="30" height="31" viewBox="0 0 30 31" fill="none" xmlns="http://www.w3.org/2000/svg">
<path opacity="0.4" d="M4 12.5C4 17.7349 11.0078 25.2147 14.0805 29.06C14.4458 29.5212 14.9729 29.7488 15.5 29.7488C16.0271 29.7488 16.5542 29.5212 16.9195 29.06C19.9922 25.2147 27 17.7349 27 12.5C27 6.15104 21.849 1 15.5 1C9.15104 1 4 6.15104 4 12.5ZM20.2917 12.5C20.2917 13.7708 19.7868 14.9896 18.8882 15.8882C17.9896 16.7868 16.7708 17.2917 15.5 17.2917C14.2292 17.2917 13.0104 16.7868 12.1118 15.8882C11.2132 14.9896 10.7083 13.7708 10.7083 12.5C10.7083 11.2292 11.2132 10.0104 12.1118 9.11178C13.0104 8.21317 14.2292 7.70833 15.5 7.70833C16.7708 7.70833 17.9896 8.21317 18.8882 9.11178C19.7868 10.0104 20.2917 11.2292 20.2917 12.5Z" fill="#375DFB"/>
<path d="M15.5 9.625C14.7375 9.625 14.0062 9.9279 13.4671 10.4671C12.9279 11.0062 12.625 11.7375 12.625 12.5C12.625 13.2625 12.9279 13.9938 13.4671 14.5329C14.0062 15.0721 14.7375 15.375 15.5 15.375C16.2625 15.375 16.9938 15.0721 17.5329 14.5329C18.0721 13.9938 18.375 13.2625 18.375 12.5C18.375 11.7375 18.0721 11.0062 17.5329 10.4671C16.9938 9.9279 16.2625 9.625 15.5 9.625Z" fill="#375DFB"/>
</svg>
