<svg width="12" height="14" viewBox="0 0 12 14" fill="none" xmlns="http://www.w3.org/2000/svg">
<path d="M5.99961 13.0368L2.18121 9.21835C1.42601 8.46315 0.911721 7.50096 0.703366 6.45346C0.495012 5.40597 0.601953 4.32021 1.01067 3.33349C1.41938 2.34678 2.11152 1.50342 2.99954 0.91006C3.88756 0.316703 4.9316 0 5.99961 0C7.06763 0 8.11166 0.316703 8.99968 0.91006C9.88771 1.50342 10.5798 2.34678 10.9886 3.33349C11.3973 4.32021 11.5042 5.40597 11.2959 6.45346C11.0875 7.50096 10.5732 8.46315 9.81801 9.21835L5.99961 13.0368ZM8.96961 8.36995C9.55695 7.78256 9.95692 7.03419 10.1189 6.21948C10.281 5.40477 10.1978 4.56031 9.87986 3.79289C9.56196 3.02546 9.02364 2.36954 8.33296 1.90805C7.64228 1.44657 6.83027 1.20026 5.99961 1.20026C5.16895 1.20026 4.35694 1.44657 3.66626 1.90805C2.97558 2.36954 2.43726 3.02546 2.11936 3.79289C1.80146 4.56031 1.71826 5.40477 1.88028 6.21948C2.04231 7.03419 2.44227 7.78256 3.02961 8.36995L5.99961 11.34L8.96961 8.36995ZM5.99961 6.59995C5.68135 6.59995 5.37613 6.47353 5.15108 6.24848C4.92604 6.02344 4.79961 5.71821 4.79961 5.39995C4.79961 5.08169 4.92604 4.77647 5.15108 4.55143C5.37613 4.32638 5.68135 4.19995 5.99961 4.19995C6.31787 4.19995 6.6231 4.32638 6.84814 4.55143C7.07318 4.77647 7.19961 5.08169 7.19961 5.39995C7.19961 5.71821 7.07318 6.02344 6.84814 6.24848C6.6231 6.47353 6.31787 6.59995 5.99961 6.59995Z" fill="#375DFB"/>
</svg>
