<svg width="30" height="31" viewBox="0 0 30 31" fill="none" xmlns="http://www.w3.org/2000/svg">
<path opacity="0.4" d="M3 7.6875C3 5.96387 4.40137 4.5625 6.125 4.5625H24.875C26.5986 4.5625 28 5.96387 28 7.6875V23.3125C28 25.0361 26.5986 26.4375 24.875 26.4375H6.125C4.40137 26.4375 3 25.0361 3 23.3125V7.6875ZM6.125 10.0312C6.125 10.339 6.18562 10.6438 6.30341 10.9282C6.42119 11.2125 6.59383 11.4709 6.81147 11.6885C7.02911 11.9062 7.28748 12.0788 7.57184 12.1966C7.85619 12.3144 8.16096 12.375 8.46875 12.375C8.77654 12.375 9.08131 12.3144 9.36566 12.1966C9.65002 12.0788 9.90839 11.9062 10.126 11.6885C10.3437 11.4709 10.5163 11.2125 10.6341 10.9282C10.7519 10.6438 10.8125 10.339 10.8125 10.0312C10.8125 9.72346 10.7519 9.41869 10.6341 9.13434C10.5163 8.84998 10.3437 8.59161 10.126 8.37397C9.90839 8.15633 9.65002 7.98369 9.36566 7.86591C9.08131 7.74812 8.77654 7.6875 8.46875 7.6875C8.16096 7.6875 7.85619 7.74812 7.57184 7.86591C7.28748 7.98369 7.02911 8.15633 6.81147 8.37397C6.59383 8.59161 6.42119 8.84998 6.30341 9.13434C6.18562 9.41869 6.125 9.72346 6.125 10.0312ZM6.24219 22.6484C6.4375 23.0537 6.84766 23.3125 7.29688 23.3125H11.9844H13.5469H23.7031C24.1377 23.3125 24.5381 23.0732 24.7383 22.6875C24.9385 22.3018 24.9141 21.8379 24.6699 21.4814L18.8105 12.8877C18.5908 12.5654 18.2295 12.375 17.8438 12.375C17.458 12.375 17.0918 12.5654 16.877 12.8877L12.6289 19.1182L11.335 17.502C11.1104 17.2236 10.7734 17.0625 10.4219 17.0625C10.0703 17.0625 9.72852 17.2236 9.50879 17.502L6.38379 21.4082C6.10059 21.7598 6.04688 22.2432 6.24219 22.6484Z" fill="#4A1840"/>
<path d="M18.8104 12.8877C18.5907 12.5654 18.2294 12.375 17.8436 12.375C17.4579 12.375 17.0917 12.5654 16.8768 12.8877L12.6288 19.1182L11.3348 17.502C11.1102 17.2236 10.7733 17.0625 10.4218 17.0625C10.0702 17.0625 9.7284 17.2236 9.50867 17.502L6.38367 21.4082C6.10047 21.7598 6.04676 22.2432 6.24207 22.6484C6.43738 23.0537 6.84754 23.3125 7.29676 23.3125H11.9843H13.5468H23.703C24.1376 23.3125 24.538 23.0732 24.7382 22.6875C24.9384 22.3018 24.9139 21.8379 24.6698 21.4814L18.8104 12.8877Z" fill="#AE3691"/>
</svg>
