<svg width="15" height="15" viewBox="0 0 15 15" fill="none" xmlns="http://www.w3.org/2000/svg">
<path d="M13.875 4.35938V2.0625C13.875 1.82187 14.0719 1.625 14.3125 1.625C14.5531 1.625 14.75 1.82187 14.75 2.0625V5.5625C14.75 5.80312 14.5531 6 14.3125 6H10.8125C10.5719 6 10.375 5.80312 10.375 5.5625C10.375 5.32188 10.5719 5.125 10.8125 5.125H13.2844C12.3027 3.05508 10.1918 1.625 7.75 1.625C4.36758 1.625 1.625 4.36758 1.625 7.75C1.625 11.1324 4.36758 13.875 7.75 13.875C9.7543 13.875 11.5316 12.9125 12.65 11.425C12.7949 11.2309 13.0684 11.1926 13.2625 11.3375C13.4566 11.4824 13.4949 11.7559 13.35 11.95C12.073 13.6508 10.0414 14.75 7.75 14.75C3.88359 14.75 0.75 11.6164 0.75 7.75C0.75 3.88359 3.88359 0.75 7.75 0.75C10.3859 0.75 12.6801 2.20742 13.875 4.35938ZM7.75 4.25C7.99062 4.25 8.1875 4.44687 8.1875 4.6875V7.75C8.1875 7.86484 8.14102 7.97695 8.05898 8.05898L5.87148 10.2465C5.70195 10.416 5.42305 10.416 5.25352 10.2465C5.08398 10.077 5.08398 9.79805 5.25352 9.62852L7.3125 7.56953V4.6875C7.3125 4.44687 7.50938 4.25 7.75 4.25Z" fill="#868C98" stroke="#868C98" stroke-width="0.5"/>
</svg>
