<svg width="30" height="31" viewBox="0 0 30 31" fill="none" xmlns="http://www.w3.org/2000/svg">
<path opacity="0.4" d="M6.78125 13.5469V15.5C6.78125 19.8506 10.0137 23.4443 14.2031 24.0156V25.6562H11.8594C11.21 25.6562 10.6875 26.1787 10.6875 26.8281C10.6875 27.4775 11.21 28 11.8594 28H15.375H18.8906C19.54 28 20.0625 27.4775 20.0625 26.8281C20.0625 26.1787 19.54 25.6562 18.8906 25.6562H16.5469V24.0156C20.7363 23.4443 23.9688 19.8506 23.9688 15.5V13.5469C23.9688 12.8975 23.4463 12.375 22.7969 12.375C22.1475 12.375 21.625 12.8975 21.625 13.5469V15.5C21.625 18.9521 18.8271 21.75 15.375 21.75C11.9229 21.75 9.125 18.9521 9.125 15.5V13.5469C9.125 12.8975 8.60254 12.375 7.95312 12.375C7.30371 12.375 6.78125 12.8975 6.78125 13.5469Z" fill="#375DFB"/>
<path d="M10.6875 7.6875C10.6875 5.09961 12.7871 3 15.375 3C17.9629 3 20.0625 5.09961 20.0625 7.6875V15.5C20.0625 18.0879 17.9629 20.1875 15.375 20.1875C12.7871 20.1875 10.6875 18.0879 10.6875 15.5V7.6875Z" fill="#375DFB"/>
</svg>
