<svg width="12" height="13" viewBox="0 0 12 13" fill="none" xmlns="http://www.w3.org/2000/svg">
<path d="M1.19998 0H10.8C10.9591 0 11.1117 0.0632141 11.2242 0.175736C11.3368 0.288258 11.4 0.44087 11.4 0.6V12.1656C11.4 12.2157 11.3875 12.2649 11.3637 12.3089C11.3398 12.3529 11.3053 12.3903 11.2633 12.4175C11.2213 12.4448 11.1732 12.4611 11.1233 12.465C11.0734 12.4689 11.0233 12.4602 10.9776 12.4398L5.99998 10.218L1.02238 12.4392C0.976717 12.4596 0.926683 12.4683 0.876822 12.4644C0.826961 12.4606 0.778856 12.4443 0.736881 12.4171C0.694907 12.3899 0.660396 12.3527 0.636485 12.3087C0.612575 12.2648 0.600025 12.2156 0.599976 12.1656V0.6C0.599976 0.44087 0.66319 0.288258 0.775711 0.175736C0.888233 0.0632141 1.04085 0 1.19998 0ZM10.2 10.779V1.2H1.79998V10.779L5.99998 8.9046L10.2 10.779ZM5.99998 6.9L4.23658 7.827L4.57318 5.8638L3.14698 4.473L5.11858 4.1862L5.99998 2.4L6.88198 4.1862L8.85298 4.473L7.42678 5.8638L7.76278 7.827L5.99998 6.9Z" fill="#868C98"/>
</svg>
