<svg width="350" height="175" viewBox="0 0 350 175" fill="none" xmlns="http://www.w3.org/2000/svg">
<g clip-path="url(#clip0_509_28482)">
<path d="M259.646 33.3499C256.608 28.8923 251.564 26.229 246.177 26.229C240.219 26.2444 234.746 29.5211 231.912 34.771C231.79 34.6585 232.663 34.863 217.657 31.8777C220.7 17.1197 206.65 4.60069 192.364 9.3394C186.151 11.3995 181.382 16.4347 179.656 22.753L167.801 19.8852C169.123 9.27295 161.082 0 150.896 0C141.502 0 133.844 7.92341 133.844 17.6666C133.823 22.891 136.09 27.8648 140.047 31.2745L131.168 43.0471C115.086 26.9958 87.5 38.4618 87.5 61.1841C87.5 83.9064 115.178 95.3314 131.209 79.2545L131.224 79.2648C131.388 79.045 131.572 78.8456 131.781 78.6667L131.745 78.636C138.949 70.9784 140.726 59.6812 136.223 50.1731C182.127 34.4796 180.014 35.2771 180.126 35.1953C182.357 41.1148 187.299 45.5979 193.406 47.2337L193.365 47.4638C193.666 47.4944 193.942 47.5507 194.202 47.6376L194.233 47.4587C204.704 49.6977 215.033 43.1187 217.443 32.67L231.504 35.4611C226.066 46.7737 234.899 59.7425 247.403 58.8019C259.906 57.8613 266.707 43.7168 259.641 33.3448L259.646 33.3499ZM139.036 28.9792C129.473 18.3823 136.744 0.853683 150.896 0.853683C162.517 0.853683 170.379 13.2398 165.774 24.3172C163.211 22.2776 160.342 20.6571 157.278 19.5069C157.1 19.006 157.008 18.4743 157.008 17.9376C157.13 17.9171 157.248 17.866 157.345 17.7791C161.822 14.0474 159.418 8.43971 158.238 6.7579C155.997 3.56298 151.453 3.55275 147.925 5.26523C147.583 5.97578 147.328 6.73234 147.174 7.50935C147.077 8.24546 147.241 8.99179 147.644 9.61544C148.762 10.2749 149.411 10.3567 152.122 9.54899C154.833 8.74131 153.475 12.7797 154.751 13.2807C156.028 13.7816 156.41 11.9669 157.146 13.7407C157.692 15.0187 156.227 14.8602 156.181 15.581C156.135 15.9797 156.135 16.3836 156.181 16.7823C156.063 17.8558 156.206 18.9395 156.594 19.9414C154.792 21.5568 152.607 21.6692 150.268 21.2092V21.066C150.115 20.1664 149.477 19.42 148.609 19.1389C146.909 18.2852 146.449 17.6258 146.021 11.8544C146.143 12.156 146.552 12.2123 146.751 11.9567C146.786 11.9107 146.812 11.8596 146.827 11.8033C146.955 11.7164 147.083 11.6397 147.22 11.5682C147.511 11.425 147.537 11.0263 147.266 10.8423C147.144 10.7605 146.985 10.7503 146.848 10.8167C146.48 10.9956 146.087 11.2308 146.01 11.5477C146.01 11.1797 145.954 10.8985 145.934 10.694C146.271 10.4487 146.495 10.0806 146.572 9.67167C146.705 9.25761 146.761 9.25761 146.715 9.15537C146.235 8.20456 146.715 6.81413 147.083 5.79176C147.134 5.67418 147.037 5.54128 146.909 5.56172C146.888 5.56172 146.868 5.57195 146.848 5.58217C146.383 5.82243 145.949 6.11892 145.551 6.4563C143.937 7.90296 144.029 9.9426 144.902 10.4691C145.117 10.602 145.071 10.3209 145.173 11.7113C145.597 17.5746 146.036 18.7504 148.231 19.8494C148.89 20.1868 149.349 20.3964 149.431 21.1274C149.324 21.1683 149.217 21.199 149.104 21.2296C145.163 22.1804 140.563 26.4642 139.026 28.9895L139.036 28.9792ZM139.628 29.7409H139.608C140.256 28.1716 145.204 23.1057 149.217 22.1651C149.395 22.1293 149.569 22.0731 149.732 21.9964C152.53 22.5229 155.139 22.5127 157.324 20.4066C160.24 21.567 162.966 23.1568 165.422 25.1147C160.832 35.2924 147.471 37.6899 139.639 29.746L139.628 29.7409ZM93.9024 76.8111C95.3626 74.0149 97.1139 71.3874 99.1306 68.9643C99.7892 68.2027 100.688 67.5739 101.372 66.7202C103.736 65.6007 107.979 62.5183 108.091 62.5949C110.118 63.9342 112.701 64.0978 114.876 63.0192C115.571 62.6256 116.107 62.0684 116.77 61.6952C118.236 62.4927 121.549 64.2716 123.061 64.8442C123.101 64.9157 123.158 64.972 123.229 65.0129C127.829 67.6608 130.642 71.2238 133.308 75.2928C123.923 88.7524 104.292 89.509 93.9075 76.806L93.9024 76.8111ZM114.192 49.8306L114.325 49.9788L114.417 50.0811C114.616 50.3367 115.014 50.2804 115.137 49.9788C115.193 49.8408 115.172 49.6823 115.081 49.5648C115.014 49.4727 114.943 49.3807 114.866 49.2938C115.525 49.8204 117.23 51.267 118.471 50.9552C119.303 50.6076 120.253 51.0932 120.452 51.9776C120.452 52.0696 121.335 54.375 119.722 55.0703C119.216 55.2952 119.16 55.3821 119.196 55.8013C119.328 57.391 118.078 59.9163 116.408 60.2844C116.117 60.3508 115.903 60.7342 116.04 61.2147C115.423 61.6288 115.035 62.0122 114.529 62.3342C112.645 63.2288 110.44 63.0857 108.683 61.9662C108.862 61.3374 108.683 60.8467 108.065 60.678C106.432 60.3304 103.797 57.2479 104.18 55.0754C104.491 53.2607 101.719 54.7278 103.062 51.175C103.276 50.628 105.043 51.1188 106.789 50.2906C108.54 49.2887 110.174 48.0925 111.66 46.7277C112.722 47.4331 113.717 48.2306 114.636 49.1149C113.784 48.6242 113.518 49.7641 114.187 49.8459L114.192 49.8306ZM134.436 73.6622C134.273 73.9433 134.104 74.2193 133.93 74.4903C131.485 70.4621 128.13 67.0627 124.133 64.5681C125.185 52.4479 123.954 39.7602 111.895 40.4912C107.943 40.6752 104.41 43.0062 102.679 46.5692C98.6711 53.9252 99.8352 65.2787 100.274 66.7458C99.6922 67.3183 99.054 67.8653 98.5179 68.4378C96.6033 70.8353 94.8674 73.3708 93.3357 76.0289C81.1435 59.8652 92.7077 36.3761 113.11 36.3761C132.184 36.4426 144.034 57.1559 134.436 73.6622ZM135.871 49.4165C134.783 47.3104 133.41 45.3679 131.786 43.6452L140.731 31.8061C150.81 39.6528 165.488 33.8253 167.694 20.7287L179.452 23.53C178.559 27.1287 178.712 30.9115 179.891 34.4285C179.779 34.4285 181.693 33.7997 135.876 49.4165H135.871ZM187.8 43.7066C188.418 41.0586 187.876 40.9513 192.277 37.1582C193.227 36.3557 194.243 35.6247 195.31 34.9857C197.046 36.5908 200.651 36.8822 203.515 34.771C203.515 35.3997 202.652 38.1346 204.934 39.9493C206.165 40.9359 207.824 41.2068 209.299 40.6548C211.541 39.7346 211.541 40.164 212.031 40.1078C212.501 40.0158 212.945 39.8317 213.343 39.5608C207.364 47.658 196.025 49.4983 187.795 43.7066H187.8ZM189.132 34.541C188.897 33.1301 187.075 32.9614 186.973 32.1077C186.871 31.254 188.606 28.3965 188.688 27.7677C188.836 26.6482 187.851 26.0859 187.488 25.4571C187.008 24.4348 187.105 23.2284 187.744 22.298C187.999 22.0424 187.238 22.298 190.552 22.1089C190.787 24.6137 191.547 27.0418 192.793 29.2297C194.294 31.4738 197.112 30.3492 196.893 31.6374C196.535 33.8815 193.87 34.6841 192.191 36.1205C188.652 39.2132 189.301 38.9014 189.188 38.8452C187.611 38.0579 189.377 35.9978 189.132 34.541ZM200.012 26.2853C200.574 27.9569 203.372 27.1696 202.254 30.1294C201.437 32.5422 202.591 33.1454 203.127 33.8969C203.091 33.9275 203.066 33.9684 203.05 34.0093C200.6 35.8496 197.454 35.7116 195.938 34.4489C196.826 33.8304 197.444 32.8949 197.674 31.8368C198.088 29.3575 194.754 30.7173 193.441 28.8105C192.282 26.7453 191.588 24.4501 191.404 22.0833C193.278 21.9708 195.147 21.7664 197 21.4648C199.854 20.9843 199.15 20.9382 199.441 21.1274C202.004 22.8654 199.15 23.7856 200.012 26.2853ZM213.338 38.564C213.027 38.8196 212.22 39.3819 211.873 39.3052C211.526 39.2285 210.944 39.1059 208.963 39.9238C206.4 40.895 203.745 38.7225 204.189 36.0183C204.214 35.8752 204.245 35.7371 204.286 35.5991C204.832 32.5371 202.044 33.5032 203.168 30.4515C204.02 27.9875 202.662 27.2668 201.769 26.7862C200.875 26.3057 200.38 26.0808 201.095 24.0872C201.753 22.9779 201.437 21.5466 200.38 20.8156C201.57 20.5344 202.739 20.1817 203.882 19.7625C203.847 21.4239 204.699 22.983 206.124 23.8418C207.982 25.2782 208.273 25.8814 207.804 28.3249C207.334 30.7684 207.615 31.1058 208.697 32.2508C209.499 32.8285 209.846 33.8457 209.57 34.7965C209.233 38.0017 210.903 37.1838 210.555 36.5141C210.346 35.9978 210.3 35.4304 210.423 34.8886C210.709 33.6873 210.275 32.4297 209.305 31.6732C208.396 30.7224 208.186 30.6201 208.62 28.4885C209.167 25.6514 208.687 24.767 206.629 23.1619C205.312 22.4002 204.551 20.9382 204.679 19.42C205.404 19.1184 206.098 18.7401 206.752 18.3005C207.109 19.0264 207.62 19.6654 208.243 20.1817C209.361 21.3012 209.764 21.6181 209.764 23.9236C209.764 26.229 210.055 26.6942 211.771 28.6776C212.644 29.6847 212.889 29.7971 212.577 31.6579C212.215 33.0074 212.501 34.4489 213.348 35.5582C214.267 37.1378 214.41 37.6336 213.348 38.5742L213.338 38.564ZM214.895 37.0611C214.727 36.3454 214.436 35.6605 214.032 35.0419C213.272 34.1013 213.016 32.8438 213.358 31.6783C213.752 29.4342 213.358 29.1121 212.353 27.9671C210.785 26.1626 210.561 25.9581 210.571 23.7958C210.571 21.2398 210.055 20.6673 208.769 19.4251C207.211 17.9018 207.548 17.8558 207.4 17.6104C207.742 17.2986 208.044 16.951 208.309 16.5676C209.642 14.6149 202.473 14.574 202.106 14.2672C202.05 14.2315 201.978 14.2315 201.927 14.2672C198.848 15.7139 193.789 16.9152 190.439 16.2609C190.404 16.2507 190.363 16.2507 190.327 16.2609C188.366 17.2372 182.398 19.42 182.178 20.744C181.99 21.8635 185.661 22.0578 186.814 22.0986C186.207 23.2693 186.181 24.6495 186.738 25.8405C186.896 26.091 187.085 26.3262 187.299 26.5358C188.106 27.4201 187.927 27.5121 187.376 28.5958C186.83 29.6847 186.008 31.2745 186.12 32.1588C186.273 32.8336 186.738 33.3959 187.376 33.6719C188.494 34.3774 188.494 34.6227 188.014 36.049C187.667 37.1685 187.208 38.6509 188.55 39.4688C187.432 40.803 187.432 41.3193 187.049 43.1033C178.063 36.1359 177.19 22.8603 185.191 14.7733C196.969 2.86776 217.137 11.4097 217.137 28.146C217.126 31.2489 216.355 34.3058 214.895 37.0458V37.0611ZM234.879 53.2504C237.207 49.5852 242.144 46.6714 244.508 45.4037C244.431 46.0989 244.416 46.9168 244.416 46.9168C244.416 47.4638 244.584 47.8012 244.921 47.9136C245.457 48.1028 246.039 47.612 247.004 46.5232C246.759 48.5628 246.514 51.5891 247.004 52.6677C247.653 54.2166 249.246 54.0377 249.118 51.2568C248.955 49.5699 248.669 47.9034 248.266 46.2574C248.572 46.6254 248.899 46.9679 249.251 47.29C249.664 47.612 250.226 47.658 250.686 47.4127C251.502 46.9219 251.043 46.0325 250.762 45.0919C253.514 46.4619 257.481 48.4555 259.049 51.1699C253.616 59.6249 241.669 60.6524 234.874 53.2555L234.879 53.2504ZM241.424 39.3717C241.312 39.295 241.174 39.2797 241.046 39.3257C240.755 39.3257 240.51 39.0343 240.444 38.7531C241.204 38.7531 241.628 38.0119 241.465 37.6336C242.078 37.4189 242.226 36.6266 241.735 36.2023C241.72 36.187 241.705 36.1768 241.69 36.1665C241.97 36.0132 242.144 35.7218 242.149 35.4049C242.113 35.1902 242.037 34.9857 241.924 34.8017C241.991 34.7148 242.047 34.6227 242.093 34.5205C242.583 34.7096 243.134 34.4745 243.349 33.994C243.87 34.5256 244.763 34.3518 245.049 33.6668C245.672 34.1218 246.55 33.8917 246.872 33.1965C247.301 33.5953 247.964 33.5953 248.393 33.1965C248.674 33.4317 249.062 33.4879 249.399 33.3397C249.542 33.8917 250.104 34.224 250.655 34.0809C250.726 34.5001 251.053 34.8272 251.472 34.8988C251.436 35.0112 251.411 35.1288 251.405 35.2464C251.416 35.5838 251.615 35.8803 251.921 36.0183C251.554 36.6726 252.039 37.4803 252.784 37.4701C252.871 37.4701 252.958 37.4547 253.039 37.4343C253.198 37.8023 253.187 38.5538 252.815 38.5538C252.646 38.5384 252.483 38.6305 252.411 38.7889C251.942 39.2592 253.126 40.6292 249.961 42.7148C249.21 43.2107 249.368 43.3078 249.399 44.3404C248.74 44.8363 246.657 44.734 245.391 44.6216C245.314 44.3046 245.284 43.9826 245.299 43.6554C245.355 43.3487 245.059 43.0982 244.768 43.2005C244.753 43.2005 244.743 43.2107 244.727 43.2158C243.16 42.7915 241.904 41.6209 241.368 40.0873C241.654 39.9493 241.684 39.5506 241.424 39.3717ZM250.206 46.7123C250.042 46.7839 249.848 46.7532 249.716 46.6357C249.317 46.2574 248.945 45.8484 248.597 45.4241C249.031 45.373 249.455 45.2452 249.838 45.0408C250.093 46.0836 250.384 46.6101 250.206 46.7123ZM248 52.8006C247.295 52.1258 247.607 48.9462 247.709 47.9239C247.908 48.89 248.572 52.0031 248 52.8006ZM246.8 45.4804C246.356 46.0836 245.84 46.6357 245.269 47.1162C245.258 46.5436 245.294 45.9711 245.371 45.3986C245.774 45.4344 246.3 45.465 246.805 45.4753L246.8 45.4804ZM250.946 44.2893C250.737 44.1615 250.517 44.0593 250.287 43.9775V43.5072L250.522 43.3487C252.069 42.5513 253.09 41.0075 253.218 39.2694C254.147 38.9985 254.27 37.7001 253.81 36.8924C253.928 36.6879 253.928 36.4375 253.81 36.233C254.454 36.0132 254.622 35.1799 254.111 34.7301C254.05 34.679 253.984 34.633 253.912 34.5972C254.311 34.1729 254.163 33.4828 253.632 33.2528C253.769 32.8183 253.529 32.3582 253.095 32.2202C253.32 31.8521 253.243 31.3767 252.917 31.1007C252.82 30.5741 252.324 30.2214 251.799 30.3032C251.635 30.0169 251.334 29.8329 251.002 29.8329C250.864 29.8534 250.732 29.884 250.599 29.9352C250.471 29.516 250.078 29.2297 249.634 29.2399C249.44 29.2859 249.256 29.3728 249.098 29.4955C248.929 29.1888 248.608 28.9946 248.26 28.9895C247.995 29.0508 247.75 29.1888 247.566 29.3933C247.387 29.1173 247.086 28.9486 246.759 28.9434C246.57 28.9434 246.31 29.1019 245.907 29.47C245.478 28.9639 244.671 29.0508 244.36 29.6387C244.069 29.424 243.88 29.2911 243.711 29.2911C243.257 29.2808 242.859 29.5773 242.726 30.0067C242.2 29.7971 241.603 30.0681 241.414 30.5997C240.684 30.431 240.046 31.116 240.265 31.8368C240.275 31.8674 240.285 31.8981 240.296 31.9237C239.79 31.9952 239.423 32.4451 239.458 32.9563C238.973 33.2119 238.871 33.8662 239.259 34.2547C238.636 34.5461 238.56 35.4049 239.126 35.8036C239.167 35.8343 239.213 35.8598 239.259 35.8803C238.723 36.2688 238.81 37.0969 239.418 37.3678C239.448 37.3832 239.484 37.3934 239.52 37.4036C239.366 37.695 239.402 38.0477 239.612 38.2982C239.489 39.0343 239.882 39.7602 240.561 40.0567C240.638 41.3244 242.7 43.6452 244.523 43.9264V44.4171C242.619 45.3832 236.967 48.4964 234.266 52.5552C226.025 42.4439 233.122 27.0316 246.177 27.0316C258.073 27.1594 265.431 40.0567 259.503 50.3827C257.655 47.612 253.657 45.6286 250.951 44.2842L250.946 44.2893Z" fill="#0A0D14"/>
<path d="M249.246 40.0209C249.098 40.0311 248.965 40.118 248.899 40.256C248.496 41.0432 247.679 40.895 247.531 41.3448C247.439 41.6209 247.643 41.9072 247.934 41.9072C248.067 41.9072 248.102 41.9072 248.373 41.7487C248.924 41.5493 249.379 41.1506 249.649 40.6292C249.792 40.3378 249.568 40.0055 249.246 40.026V40.0209Z" fill="#0A0D14"/>
<path d="M147.077 12.3963C146.337 12.3963 146.347 14.0986 147.077 14.0986C147.807 14.0986 147.838 12.3963 147.077 12.3963Z" fill="#0A0D14"/>
<path d="M115.065 51.2517C114.325 51.2517 114.325 52.9539 115.065 52.9539C115.805 52.9539 115.795 51.2517 115.065 51.2517Z" fill="#0A0D14"/>
<path d="M149.227 14.2621C149.094 14.1906 148.931 14.2008 148.803 14.2826C148.696 13.3727 148.726 12.4474 148.905 11.5477C148.915 11.2206 148.573 11.0008 148.282 11.1541C148.175 11.2104 148.093 11.3126 148.068 11.4353C147.654 14.666 148.144 15.0238 148.394 15.1107C148.68 15.2641 149.033 15.2232 149.267 14.9983C149.543 14.8193 149.523 14.4104 149.232 14.2621H149.227Z" fill="#0A0D14"/>
<path d="M151.601 12.8921C151.601 11.7726 150.483 11.7624 150.483 12.8921C150.483 14.0219 151.601 14.0116 151.601 12.8921Z" fill="#0A0D14"/>
<path d="M151.264 15.5912C150.907 15.4123 150.605 15.7241 150.146 16.1944C149.686 16.6647 149.114 16.5216 148.961 16.9663C148.803 17.3497 149.411 18.1778 150.146 18.1778C151.366 18.1778 152.387 16.1024 151.264 15.5861V15.5912Z" fill="#0A0D14"/>
<path d="M248.47 35.7167C249.031 35.7167 248.975 36.1307 249.363 36.1307C249.69 36.1307 249.899 35.778 249.736 35.4969C249.716 35.4611 249.695 35.4304 249.664 35.4049C249.379 35.0419 248.929 34.8374 248.465 34.8681C248.138 34.8681 247.934 35.2208 248.097 35.5071C248.174 35.64 248.311 35.7218 248.465 35.7218L248.47 35.7167Z" fill="#0A0D14"/>
<path d="M248.27 37.3167C248.327 38.3595 249.276 38.426 249.22 37.3167C249.164 36.1972 248.214 36.2739 248.27 37.3167Z" fill="#0A0D14"/>
<path d="M111.246 57.1815C109.735 56.8339 110.128 56.4198 109.781 56.2307C109.485 56.0926 109.148 56.3278 109.178 56.6498C109.178 56.6856 109.188 56.7214 109.199 56.7572C109.566 57.4626 110.266 57.938 111.057 58.0147C111.379 58.076 111.644 57.7642 111.537 57.4524C111.491 57.3195 111.384 57.2224 111.251 57.1866L111.246 57.1815Z" fill="#0A0D14"/>
<path d="M151.003 10.4129C150.682 10.3464 150.406 10.6583 150.513 10.9701C150.564 11.1132 150.687 11.2206 150.835 11.2512C151.121 11.241 151.402 11.2973 151.662 11.4097C151.948 11.5682 152.3 11.3535 152.29 11.0263C152.29 10.8985 152.229 10.781 152.132 10.7043C151.785 10.5151 151.397 10.418 151.003 10.4129Z" fill="#0A0D14"/>
<path d="M108.749 50.1322C108.933 49.9993 109.132 49.8868 109.342 49.7948C109.801 49.5596 109.541 48.752 108.872 49.0893C106.881 50.0759 108.56 50.9603 108.749 50.1322Z" fill="#0A0D14"/>
<path d="M109.582 52.0696C109.582 50.9501 108.464 50.9501 108.464 52.0696C108.464 53.1891 109.582 53.1993 109.582 52.0696Z" fill="#0A0D14"/>
<path d="M112.4 54.7738C112.277 54.7738 112.053 54.7738 111.854 54.7073C111.854 54.0581 112.277 51.5686 112.323 51.2415C112.323 50.9143 111.976 50.7047 111.69 50.8683C111.588 50.9245 111.512 51.0268 111.486 51.1443C111.374 52.0951 110.792 54.7993 111.129 55.2236C111.466 55.6479 111.956 55.561 112.247 55.6172C112.568 55.6786 112.839 55.3667 112.727 55.0549C112.676 54.9118 112.553 54.8044 112.4 54.7789V54.7738Z" fill="#0A0D14"/>
<path d="M244.416 35.9825C244.727 35.8803 244.809 35.4764 244.564 35.2617C244.416 35.1288 244.196 35.1186 244.033 35.2311C242.108 36.2074 243.629 37.1122 243.931 36.3199C243.931 36.3199 244.007 36.187 244.411 35.9825H244.416Z" fill="#0A0D14"/>
<path d="M244.303 37.2043C244.135 37.6745 244.304 38.518 244.773 38.518C245.243 38.518 245.212 37.7768 245.197 37.6541C245.12 36.8158 244.503 36.6573 244.303 37.2043Z" fill="#0A0D14"/>
<path d="M247.52 39.4893C247.494 39.4688 247.464 39.4484 247.428 39.4381C247.203 39.3257 247.061 39.4381 246.78 39.5046V37.5212C246.918 37.194 246.647 36.8413 246.3 36.8873C246.29 36.8873 246.279 36.8873 246.264 36.8924C245.993 36.9691 245.963 37.1378 245.973 37.8432C245.973 39.5455 245.738 40.7928 247.428 40.2202C247.729 40.0925 247.78 39.6835 247.52 39.4893Z" fill="#0A0D14"/>
<path d="M196.99 23.622C197.618 23.622 197.526 21.93 196.868 21.9964C196.209 22.0629 196.388 23.622 196.99 23.622Z" fill="#0A0D14"/>
<path d="M201.794 13.6181C201.784 13.5516 201.743 13.4954 201.682 13.4698C199.788 11.9209 197.608 10.556 195.111 11.0723C192.911 11.5529 191.144 13.1784 190.475 15.3305C190.465 15.4123 190.521 15.489 190.598 15.5095C193.855 16.4858 201.692 13.9606 201.794 13.6129V13.6181Z" fill="#0A0D14"/>
<path d="M197.929 27.1645C197.97 26.9345 197.822 26.7096 197.592 26.6584C197.368 26.6584 197.225 26.7505 196.918 26.9856C195.519 28.0387 195.744 27.2003 195.218 27.2003C194.891 27.2003 194.682 27.553 194.845 27.8342C194.866 27.87 194.886 27.9006 194.917 27.9262C195.713 28.7236 196.551 28.33 197.434 27.6553C197.725 27.4406 197.883 27.3843 197.924 27.1594L197.929 27.1645Z" fill="#0A0D14"/>
<path d="M195.422 26.8169C195.56 26.7607 195.708 26.7249 195.861 26.7044C196.183 26.7044 196.387 26.3517 196.224 26.0757C196.147 25.9479 196.009 25.8661 195.861 25.8661C195.468 25.8661 194.932 26.0552 194.743 26.0348C194.575 25.4623 194.743 23.0648 194.595 22.6047C194.513 22.2878 194.115 22.1753 193.88 22.4053C193.773 22.5127 193.727 22.6712 193.763 22.8194C193.788 23.1926 193.788 23.5657 193.763 23.9389C193.763 26.183 193.584 27.2361 195.422 26.822V26.8169Z" fill="#0A0D14"/>
<path d="M192.747 22.7479C192.119 22.8399 192.354 24.4501 192.982 24.3632C193.61 24.2712 193.375 22.6456 192.747 22.7479Z" fill="#0A0D14"/>
<path d="M214.262 85.1332C214.247 85.1843 214.237 85.2406 214.226 85.2968C214.206 85.3888 214.186 85.4553 214.502 85.5422L214.262 85.1332Z" fill="#0A0D14"/>
<path d="M206.103 98.7717C205.868 98.8944 205.634 99.0273 205.409 99.1653C204.454 99.743 203.581 100.443 202.8 101.246C201.411 102.493 201.064 102.805 200.799 102.805C200.691 102.81 200.589 102.769 200.508 102.703C200.262 102.483 200.339 102.079 200.651 101.977C200.86 101.875 202.887 100.009 203.913 99.1653C204.122 98.9966 204.291 98.8637 204.393 98.8024C207.058 97.1206 214.671 93.21 213.772 89.9384C213.752 89.8157 213.787 89.6879 213.864 89.5908C214.073 89.3403 214.477 89.4067 214.594 89.7135C215.544 93.164 209.641 96.6861 206.103 98.7717Z" fill="#0A0D14"/>
<path d="M162.752 118.273C162.073 118.197 161.567 118.882 161.843 119.505C161.996 119.863 162.369 120.073 162.752 120.032C163.431 120.109 163.936 119.424 163.66 118.8C163.507 118.442 163.135 118.233 162.752 118.273Z" fill="#0A0D14"/>
<path d="M199.252 102.37C199.236 102.401 199.216 102.432 199.19 102.462C198.966 102.703 198.567 102.616 198.47 102.304C198.118 101.844 194.774 100.868 193.278 99.1653C192.625 98.4292 192.323 97.5551 192.768 96.5276C192.829 96.4151 192.936 96.3333 193.059 96.3027C193.38 96.2362 193.656 96.5429 193.554 96.8548C193.171 97.7647 193.692 98.5161 194.554 99.1653C196.377 100.54 199.721 101.445 199.252 102.37Z" fill="#0A0D14"/>
<path d="M243.671 121.673C242.884 110.744 235.833 103.526 229.977 99.4005C227.511 97.5755 224.79 96.1186 221.905 95.0809C221.951 93.4553 221.487 91.8553 220.573 90.5109C219.072 88.2668 216.55 86.8764 213.093 86.4163C211.857 86.2476 210.622 86.0789 209.391 85.8949C208.723 85.7926 207.967 85.7364 207.334 85.4859C207.288 85.4655 207.237 85.4399 207.216 85.3939C207.206 85.3632 207.216 85.3275 207.222 85.2917C207.257 85.1383 207.375 84.9747 207.283 84.8214C207.237 84.7447 207.16 84.6885 207.089 84.6271C206.691 84.2897 206.486 83.8297 206.236 83.3798C206.109 83.1447 205.96 82.9147 205.828 82.6846C205.741 82.5313 205.343 82.0559 205.363 81.8923C205.46 81.0846 205.547 80.6194 205.583 80.0418C206.629 80.1389 207.666 79.7402 208.386 78.9734C210.474 76.9593 210.127 72.9976 207.395 72.8391C211.071 66.0659 207.778 56.0466 199.047 59.2978C186.85 48.8542 171.401 56.4045 177.829 65.0844C179.095 66.71 181.004 67.7068 183.062 67.8142C182.03 69.8998 181.464 72.1848 181.387 74.5107C179.81 75.119 178.686 76.5401 178.457 78.2168C178.104 80.7626 179.886 83.114 182.429 83.4667C183.378 86.769 185.17 90.3882 187.943 92.3614C188.974 93.0975 190.148 93.6189 191.379 93.9052C191.491 93.9307 191.629 93.9154 191.731 93.9716C191.823 94.0228 192.083 94.4317 192.201 94.3192C192.017 94.4931 191.813 94.6362 191.644 94.8356C191.476 95.0298 191.333 95.2394 191.215 95.4643C190.986 95.909 190.858 96.41 190.848 96.9161C190.838 97.4324 190.955 97.9487 191.185 98.4087C190.792 98.6337 190.383 98.8893 189.959 99.1755C189.413 99.5334 188.846 99.9372 188.259 100.372C181.632 105.361 172.851 115.022 170.139 121.581C168.889 119.531 167.49 117.573 165.948 115.733C165.391 115.247 164.023 115.304 161.761 115.932L161.812 115.661C161.424 115.876 160.98 116.019 160.475 116.086L160.663 116.234C159.479 116.617 158.427 116.996 158.167 117.108C156.88 117.604 160.868 122.22 162.19 124.576C162.195 124.612 162.221 124.648 162.256 124.663C162.256 124.842 162.165 125.083 162.134 125.302C161.731 124.822 161.011 124.183 160.51 124.663C160.005 125.149 160.286 126.289 160.577 126.775C161.256 127.69 161.812 128.692 162.231 129.755C162.267 129.857 162.338 129.939 162.435 129.98C162.501 130.619 162.823 131.196 163.329 131.595C163.844 146.68 172.948 149.282 175.97 149.722C175.791 159.128 176.848 166.857 178.109 172.234C178.222 172.25 178.36 172.352 178.411 172.178C178.457 172.01 178.436 171.79 178.462 171.611C178.492 171.411 178.538 171.217 178.569 171.018C178.722 170.133 179.033 169.254 179.085 168.355C179.115 167.813 179.028 167.276 178.936 166.744C178.936 166.836 179.483 167.184 179.57 167.256C179.718 167.368 179.866 167.475 180.019 167.583C180.361 167.823 180.713 168.053 181.065 168.278C181.862 168.779 182.679 169.244 183.511 169.689C185.058 170.522 186.641 171.284 188.259 171.969C190.215 172.792 191.762 173.282 192.129 173.104C192.231 173.047 192.303 172.955 192.339 172.843C192.395 172.654 192.339 170.68 192.272 169.479L205.276 170.849C204.878 167.424 204.342 161.719 203.602 152.595C205.848 153.566 208.023 154.394 210.116 155.069C214.885 156.613 219.245 157.39 223.141 157.379C232.101 157.379 239.826 153.034 242.522 143.818C242.624 149.558 241.781 148.674 240.934 161.433L240.888 161.5C237.687 163.8 221.461 170.977 210.116 171.263C208.896 171.294 207.732 171.248 206.65 171.105C206.578 171.105 206.527 171.815 206.476 172.664C206.502 172.766 206.512 172.863 206.522 172.976C206.522 173.037 206.522 173.098 206.517 173.16C206.859 173.916 207.191 174.387 207.507 174.55C208.115 174.826 208.983 174.974 210.05 175.01H210.122C217.77 175.245 235.364 169.98 240.668 166.264C240.52 168.38 240.372 170.379 240.234 172.234C240.234 172.234 240.24 172.234 240.245 172.234C240.337 171.718 240.913 171.56 241.312 171.759C242.481 159.94 243.987 143.429 243.267 141.113C244.13 136.385 244.273 130.2 243.66 121.688L243.671 121.673ZM161.016 125.328L161.041 125.384C161.286 125.169 161.531 125.609 162.159 126.212C162.159 126.596 162.159 127.403 162.246 128.027C161.343 126.606 160.526 125.696 161.016 125.328ZM240.658 165.206C235.976 169.121 217.229 174.397 210.132 174.259C208.738 174.233 207.788 174.003 207.492 173.502C208.355 173.594 209.233 173.64 210.132 173.65C220.236 173.783 232.382 169.045 240.725 164.142L240.658 165.206ZM240.837 163.054L240.791 163.13C240.194 163.498 224.479 173.006 210.132 172.812C209.111 172.802 208.09 172.741 207.089 172.618C207.012 172.439 206.936 172.224 206.854 171.989C207.727 172.081 208.605 172.127 209.488 172.122C209.703 172.122 209.912 172.122 210.132 172.112C221.604 171.866 236.87 165.037 240.837 162.563C240.868 162.66 240.857 162.854 240.837 163.054ZM183.634 67.7835C186.723 67.7477 189.776 67.0781 192.599 65.8256C190.996 69.956 195.749 70.7484 198.583 67.2007C200.732 72.6244 200.625 72.8289 201.228 73.8717L198.971 74.4392C198.312 72.5784 196.617 71.2902 194.657 71.1573C194.498 70.9835 194.315 70.8302 194.115 70.7075C193.957 70.5848 193.789 70.4877 193.61 70.4059C192.303 69.8231 190.776 70.411 190.194 71.7145C190.174 71.7708 190.184 71.827 190.215 71.873C190.271 71.9497 190.378 71.9701 190.46 71.9139C191.215 71.1829 192.313 70.9222 193.319 71.2391C190.766 71.7605 189.056 74.1785 189.408 76.76C188.719 76.443 187.897 76.6066 187.376 77.1638C186.717 75.3746 185.038 74.1682 183.128 74.1171C183.868 73.1868 185.221 73.6468 186.37 73.928C186.431 73.9433 186.493 73.928 186.534 73.882C186.595 73.8104 186.585 73.7133 186.518 73.6519C185.196 72.3893 182.893 72.3637 182.505 74.1478C182.291 74.1733 182.082 74.2091 181.872 74.2551C181.984 71.9957 182.582 69.7874 183.634 67.7835ZM195.142 71.873C195.126 71.8117 195.101 71.7554 195.075 71.6992C195.28 71.7452 195.484 71.8065 195.683 71.8832C198.006 72.7829 199.17 75.4002 198.271 77.7312C197.378 80.0571 194.764 81.2226 192.436 80.3229C190.71 79.597 189.607 77.8846 189.658 76.0136C189.73 73.5088 191.818 71.5356 194.315 71.6072C194.406 71.6583 195.371 72.4455 195.142 71.873ZM181.448 82.7255L181.494 82.6488C180.677 82.2501 180.014 81.606 179.59 80.8035C178.482 78.7178 179.279 76.1261 181.367 75.0219C181.285 77.7159 181.591 80.4098 182.286 83.0118C181.995 82.9504 181.714 82.8533 181.448 82.7255ZM181.877 74.8174C182.066 74.7561 182.26 74.7101 182.454 74.6743C182.459 74.7919 182.592 75.0219 182.858 74.6334C187.519 74.3523 189.081 81.1766 184.67 82.8482C184.093 83.068 183.465 83.1549 182.847 83.0936L182.893 83.0169C182.138 80.3536 181.796 77.5881 181.877 74.8174ZM192.191 93.6598C191.915 93.6649 191.629 93.5627 191.374 93.4962C191.067 93.4196 190.771 93.3224 190.475 93.2151C189.883 93.0004 189.316 92.7192 188.78 92.387C188.606 92.2796 188.438 92.1672 188.275 92.0496C185.615 90.1429 183.925 86.7179 183.001 83.5485C183.634 83.569 184.262 83.4514 184.844 83.206C187.014 82.3012 188.157 79.9089 187.499 77.6443C187.958 77.036 188.811 76.8775 189.459 77.2865C189.536 77.5318 189.633 77.7772 189.745 78.0073C190.22 79.2188 191.154 80.1951 192.349 80.7165C193.309 81.1408 194.381 81.2431 195.402 81.0181C198.072 80.4303 199.757 77.7874 199.17 75.119L201.559 74.4136C202.223 75.5842 203.474 76.2999 204.822 76.2794C205.026 75.0168 205.353 73.6979 206.527 73.3094C207.007 73.1407 207.528 73.1663 207.992 73.3759C209.744 74.1529 209.499 77.1076 208.033 78.5287C207.395 79.2341 206.456 79.5817 205.516 79.4539C205.496 79.4539 205.481 79.4437 205.46 79.4437C205.276 79.4284 205.113 79.5664 205.098 79.7504C204.924 80.2923 204.995 80.5121 204.679 82.3268C203.525 88.8138 200.079 92.3358 196.336 93.4298C196.837 93.3889 197.342 93.3582 197.848 93.3378C201.958 91.5384 204.194 87.5 205.225 82.7613L206.435 84.8878C206.435 84.8878 206.394 84.9134 206.379 84.9287C206.507 85.2099 206.553 85.5268 206.655 85.8182C206.706 85.9613 206.757 86.0994 206.813 86.2425C206.844 86.2732 206.869 86.3089 206.9 86.3345C208.023 87.8169 209.075 89.3505 210.045 90.9403C209.933 92.479 207.809 94.3039 206.685 95.3672C205.118 96.7167 203.484 97.9794 201.784 99.1602C201.228 99.5436 200.666 99.9219 200.094 100.29C199.716 100.07 198.292 99.4516 197.613 99.1602C197.567 99.1397 197.526 99.1193 197.485 99.104C195.571 98.2707 195.356 98.419 195.065 96.4458C194.82 94.7895 194.447 94.1199 193.523 93.7569C193.472 93.7569 193.421 93.7569 193.37 93.7467C193.069 93.6854 192.768 93.5269 192.456 93.6087C192.456 93.6087 192.466 93.6087 192.471 93.6036C192.38 93.6394 192.288 93.6547 192.196 93.6547L192.191 93.6598ZM192.043 95.679C192.354 95.178 192.808 94.7844 193.35 94.5544C194.652 95.2496 193.676 98.0969 195.514 99.1193C195.535 99.1295 195.565 99.1449 195.606 99.1653C196.26 99.4874 199.435 100.822 199.655 100.98C199.737 101.072 199.849 101.128 199.972 101.139C200.39 101.139 201.743 100.229 203.173 99.1653C204.924 97.872 206.793 96.3436 207.227 95.9704C208.6 94.7487 210.887 92.6937 210.887 90.7665C210.887 90.5416 208.447 86.9121 208.13 86.4981C212.69 87.3006 217.269 87.0553 219.843 90.9812C220.608 92.116 221.027 93.4553 221.042 94.8253C219.94 94.5902 218.806 94.5033 217.683 94.5646C215.656 94.8458 209.509 97.8516 208.064 99.0529C207.941 99.0784 207.804 99.1193 207.661 99.1653C205.327 99.9577 200.395 103.572 199.655 104.108C194.202 101.225 196.219 102.427 194.595 101.026C193.952 100.469 193.237 99.8452 192.686 99.1653C191.838 98.1225 191.358 96.9519 192.063 95.679H192.043ZM205.184 102.156C205.174 101.926 205.338 101.726 205.567 101.696C205.797 101.685 205.996 101.849 206.037 102.079C206.251 103.945 206.19 105.831 205.858 107.682C206.655 108.638 206.308 111.045 205.312 111.045C204.189 111.045 203.944 107.999 205.041 107.472C205.343 105.714 205.394 103.924 205.184 102.156ZM195.611 111.695V111.73C195.611 113.601 193.789 113.601 193.789 111.73C193.789 110.999 194.126 110.432 194.56 110.33C195.387 108.234 195.77 105.99 195.683 103.735C195.683 103.408 196.035 103.204 196.321 103.367C196.449 103.444 196.53 103.587 196.53 103.735C196.576 105.734 196.29 107.728 195.683 109.634C194.999 111.326 195.611 110.396 195.611 111.695ZM188.275 101.43C189.449 100.52 190.562 99.7481 191.568 99.1653C191.588 99.1551 191.609 99.1398 191.629 99.1295V99.1653C192.216 99.9628 192.9 100.684 193.666 101.317L191.563 126.821C190.322 126.923 189.234 127.03 188.275 127.127C180.968 127.894 181.173 128.553 180.029 128.702C179.871 128.702 179.804 128.702 179.381 128.477C179.947 125.711 183.184 114.128 185.941 110.463C186.11 110.181 185.916 109.824 185.589 109.813C185.467 109.808 185.349 109.859 185.267 109.946C182.536 113.591 179.299 124.847 178.548 128.139C177.267 127.695 176.031 127.127 174.857 126.447C174.331 126.003 173.647 125.788 172.963 125.844C172.57 125.261 170.722 122.378 170.722 122.378C173.06 116.198 181.632 106.567 188.275 101.43ZM169.394 131.549C168.526 130.614 168.245 129.279 168.664 128.073C168.776 128.155 169.884 131.324 172.023 131.513C172.35 131.508 172.549 131.15 172.381 130.869C172.32 130.772 172.223 130.7 172.11 130.675C170.43 130.496 168.853 126.953 169.323 126.458C169.838 126.458 172.223 128.778 172.682 129.085C173.116 129.453 173.683 129.632 174.249 129.576C174.515 129.474 174.724 129.254 174.811 128.983C174.923 128.646 174.898 128.824 173.524 126.739C174.888 127.536 176.317 128.221 177.788 128.794C178.247 128.973 178.839 129.198 179.421 129.453C179.963 131.043 179.672 135.562 178.181 136.18C178.104 136.206 178.033 136.257 177.992 136.324C177.093 136.308 176.2 136.186 175.327 135.966C173.514 135.654 170.364 134.545 169.169 132.725C168.965 132.459 168.802 132.162 168.674 131.851C169.287 132.669 170.048 133.359 170.916 133.89C171.125 134.003 171.38 133.906 171.472 133.691L171.487 133.655C171.753 133.042 170.619 133.088 169.394 131.549ZM179.085 136.594C180.555 135.311 180.8 131.431 180.351 129.555C180.938 129.351 181.53 129.177 182.133 129.039C182.291 133.711 180.555 135.863 179.804 136.784L179.524 137.167C178.89 136.64 179.069 136.809 179.085 136.594ZM182.985 128.835L183.445 128.738C183.858 132.188 182.546 135.587 181.382 138.568L180.198 137.683C180.274 137.325 183.23 134.974 182.985 128.835ZM162.721 123.861C161.899 122.527 159.898 119.812 159.025 118.253C160.883 117.624 164.355 116.709 164.927 116.985C165.493 117.266 169.282 122.762 172.764 128.073C171.641 127.122 170.109 125.583 169.226 125.583C168.741 125.583 168.204 126.069 168.383 127.209C168.061 127.357 167.806 127.623 167.668 127.95C167.597 127.572 167.495 127.194 167.367 126.831C167.199 126.391 166.994 125.471 166.366 125.328C166.096 125.282 165.82 125.379 165.641 125.583C165.304 124.464 164.646 124.249 163.951 124.643C163.757 123.723 163.191 123.59 162.762 123.861H162.721ZM163.492 130.583C162.946 128.768 162.782 126.861 163.012 124.98C163.012 124.755 163.109 124.679 163.109 124.653C163.38 124.868 163.502 125.987 163.87 128.487C163.803 128.819 164.12 129.095 164.437 128.993C164.462 128.983 164.488 128.973 164.508 128.957C164.993 128.681 164.273 127.066 164.273 125.89C164.273 125.047 164.891 125.384 165.024 125.778C165.381 126.974 165.662 128.196 165.866 129.433C165.789 129.75 166.091 130.031 166.402 129.934C166.586 129.877 166.709 129.709 166.703 129.52C166.806 128.625 165.8 126.831 166.254 126.258C166.402 126.55 166.52 126.851 166.617 127.168C167.199 128.758 166.841 129.877 167.735 131.406C168.061 131.953 167.857 131.943 168.225 132.704C166.443 132.617 164.763 131.84 163.538 130.542L163.492 130.583ZM168.005 133.578C168.919 133.578 168.531 133.297 168.878 133.701C167.418 134.33 165.744 134.202 164.396 133.354C164.278 133.19 164.283 133.318 164.232 132.316C165.371 133.037 166.663 133.471 168.005 133.578ZM164.467 135.127C164.421 134.877 164.385 134.632 164.365 134.386C165.994 135.184 167.903 135.153 169.501 134.309C169.68 134.463 169.869 134.611 170.063 134.744C168.353 135.679 166.32 135.802 164.508 135.081L164.467 135.127ZM175.965 148.904C173.606 148.48 166.632 146.501 164.682 136.175C166.586 136.865 170.226 135.95 170.849 135.25C172.417 136.078 174.112 136.64 175.863 136.917C176.399 137.044 176.945 137.131 177.497 137.177C176.624 139.621 176.108 143.567 175.965 148.904ZM178.329 161.73C177.915 161.249 175.26 145.934 178.349 137.361C181.545 139.83 184.859 142.156 188.275 144.313C189.015 144.784 189.755 145.244 190.506 145.699C190.475 145.724 190.455 145.765 190.455 145.806C189.331 155.897 190.935 166.397 191.103 169.04C190.143 168.738 189.199 168.395 188.275 168.007C184.634 166.504 181.27 164.378 178.329 161.73ZM178.492 163.759C178.543 163.468 178.523 163.243 178.497 163.023C181.423 165.523 184.726 167.521 188.275 168.958C189.301 169.377 190.347 169.745 191.415 170.062V170.732C190.684 170.491 189.571 170.087 188.275 169.551C185.15 168.252 180.953 166.172 178.492 163.759ZM191.537 172.301C190.945 172.107 189.735 171.636 188.275 170.997C184.89 169.52 180.172 167.158 178.783 165.328L178.742 165.41V165.037C181.428 167.332 185.405 169.244 188.275 170.43C189.781 171.054 190.986 171.473 191.537 171.642V172.301ZM234.792 153.239L234.746 153.321C227.966 157.85 218.929 157.047 210.132 154.159C201.968 151.48 194.018 147.012 188.275 143.342C185.696 141.696 183.562 140.214 182.056 139.125C183.087 136.334 184.752 132.75 184.292 128.625C185.553 128.39 186.891 128.211 188.275 128.073C195.708 127.332 204.475 127.869 210.132 128.415C213.512 128.743 215.784 129.075 216.003 129.141C216.284 129.305 216.641 129.095 216.641 128.768C216.641 128.722 216.631 128.676 216.616 128.635C216.519 128.334 216.381 128.288 213.619 127.94C217.535 114.332 221.456 114.174 220.445 113.279C220.282 113.111 220.011 113.111 219.843 113.279C216.003 117.481 214.247 122.951 212.766 127.848C212.051 127.766 211.107 127.669 210.132 127.567C208.166 127.373 206.073 127.173 205.465 127.122C205.557 126.437 209.218 100.039 209.029 99.4567C209.167 99.3698 209.33 99.2676 209.509 99.1653C211.592 97.9385 216.07 95.7352 217.805 95.4848C218.893 95.4439 219.98 95.5359 221.042 95.7659C221.139 95.9806 221.39 96.0726 221.599 95.9704C223.514 96.3282 241.587 104.569 242.874 121.821C244.15 140.147 242.047 148.398 234.792 153.239Z" fill="#0A0D14"/>
<path d="M192.144 87.8118C190.194 88.3128 190.194 87.592 190.5 87.5971C191.011 87.5971 191.521 87.5153 192.006 87.362C193.518 87.0195 194.621 85.7211 194.723 84.1773C194.718 84.0904 194.779 84.0086 194.871 84.0035C194.957 83.9984 195.039 84.0597 195.044 84.1517C195.172 85.9409 193.911 87.5307 192.144 87.8169V87.8118Z" fill="#0A0D14"/>
<path d="M195.07 76.2897C195.009 76.3306 194.927 76.3254 194.871 76.2794C194.361 75.758 193.61 75.5382 192.9 75.7069C192.216 75.8552 191.655 76.3459 191.409 77.0053C191.379 77.0973 191.277 77.1434 191.185 77.1127C191.118 77.0871 191.072 77.0258 191.067 76.9542C191.195 76.0545 191.879 75.3389 192.768 75.165C193.661 74.9401 194.595 75.2929 195.121 76.0494C195.172 76.1312 195.147 76.2386 195.07 76.2897Z" fill="#0A0D14"/>
<path d="M186.778 78.1657C186.707 78.2219 186.61 78.2117 186.554 78.1401C186.13 77.6494 185.492 77.3989 184.848 77.4756C184.169 77.5625 183.608 78.0583 183.439 78.728C183.393 78.9069 183.102 78.8609 183.113 78.6973C183.138 77.8079 183.802 77.0718 184.685 76.9491C185.528 76.8059 186.375 77.1996 186.809 77.9408C186.865 78.0123 186.855 78.1095 186.784 78.1657H186.778Z" fill="#0A0D14"/>
<path d="M191.277 82.0252L188.719 82.4086C188.581 82.4188 188.458 82.3115 188.448 82.1734C188.448 82.1683 188.448 82.1632 188.448 82.1581L188.274 77.7517C188.29 77.6546 188.382 77.5932 188.479 77.6085C188.545 77.6188 188.596 77.6699 188.616 77.7312L188.994 81.8105L191.277 81.6674C191.374 81.6674 191.455 81.7389 191.46 81.8412C191.46 81.9383 191.389 82.0201 191.287 82.0252H191.277Z" fill="#0A0D14"/>
<path d="M199.655 100.98C199.435 100.822 196.259 99.4873 195.606 99.1653H197.612C198.292 99.4567 199.716 100.075 200.094 100.295C200.666 99.9269 201.227 99.5487 201.784 99.1653H203.172C201.743 100.229 200.39 101.138 199.971 101.138C199.849 101.128 199.736 101.072 199.655 100.98Z" fill="#0A0D14"/>
<path d="M209.029 99.4567L199.767 105.049L193.753 101.369C193.722 101.425 193.686 101.481 193.646 101.537L191.562 126.821L205.465 127.122C205.557 126.437 209.218 100.039 209.029 99.4567ZM195.683 109.634C194.999 111.326 195.611 110.396 195.611 111.694V111.73C195.611 113.601 193.789 113.601 193.789 111.73C193.789 110.999 194.126 110.432 194.559 110.33C195.387 108.234 195.77 105.99 195.683 103.735C195.683 103.408 196.035 103.204 196.321 103.367C196.449 103.444 196.53 103.587 196.53 103.735C196.576 105.734 196.29 107.728 195.683 109.634ZM205.312 111.045C204.189 111.045 203.944 107.999 205.041 107.472C205.343 105.714 205.394 103.924 205.184 102.156C205.174 101.926 205.337 101.726 205.567 101.696C205.797 101.685 205.996 101.849 206.037 102.079C206.251 103.945 206.19 105.831 205.858 107.682C206.655 108.638 206.308 111.045 205.312 111.045Z" fill="#375DFB"/>
<path d="M204.5 152.579L190.531 145.699C190.5 145.724 190.475 145.765 190.475 145.806C189.28 155.897 190.985 166.397 191.164 169.04C191.088 169.019 191.016 168.994 190.945 168.968C190.955 169.014 190.96 169.06 190.965 169.106C191.185 169.142 191.389 169.193 191.583 169.254C191.93 169.295 192.247 169.367 192.538 169.469C192.538 169.469 206.701 171.1 206.731 171.095C206.297 169.949 205.613 165.471 204.495 152.574L204.5 152.579Z" fill="#375DFB"/>
<path d="M200.666 101.317L200.804 101.292C200.804 101.292 200.773 101.343 200.753 101.369L200.666 101.317Z" fill="#375DFB"/>
<g clip-path="url(#clip1_509_28482)">
<path d="M155.177 81.9427C155.413 83.9083 155.84 85.8739 156.82 87.6738C158.125 90.0692 160.119 91.4691 162.772 91.9085C162.944 91.9371 163.116 91.9639 163.217 91.9805C162.499 92.1994 161.705 92.3834 160.955 92.6805C158.421 93.6844 156.813 95.5929 155.925 98.166C155.519 99.3442 155.282 100.561 155.181 101.805C155.168 101.969 155.14 102.133 155.128 102.223C154.871 99.987 154.39 97.7454 153.133 95.7506C151.832 93.6839 149.955 92.5079 147.598 92.0857C147.487 92.0657 147.377 92.0457 147.266 92.0297C147.157 92.0142 147.046 92.0045 146.864 91.9839C149.05 91.6165 150.943 90.8114 152.427 89.1806C153.632 87.8544 154.337 86.2625 154.723 84.5214C154.915 83.6552 155.033 82.7723 155.177 81.9427H155.177Z" fill="#375DFB"/>
<path d="M142.514 101.172C143.983 100.856 144.905 100 145.151 98.3911C145.444 99.9619 146.264 100.924 147.887 101.188C146.265 101.507 145.336 102.41 145.136 104C144.932 102.458 144.029 101.483 142.514 101.172Z" fill="#375DFB"/>
<path d="M147.797 83.5603C146.289 83.8717 145.368 84.7494 145.135 86.343C144.864 84.8088 144.055 83.8271 142.5 83.5443C143.973 83.2277 144.903 82.3769 145.149 80.7581C145.44 82.3289 146.265 83.2946 147.797 83.5603Z" fill="#375DFB"/>
<path d="M161.166 79.8365C162.945 79.4508 163.662 78.3617 163.822 77C164.03 78.2959 164.632 79.4793 166.5 79.8547C164.985 80.1696 164.052 81.017 163.811 82.6346C163.52 81.0695 162.702 80.0959 161.167 79.8365H161.166Z" fill="#375DFB"/>
</g>
</g>
<defs>
<clipPath id="clip0_509_28482">
<rect width="175" height="175" fill="white" transform="translate(87.5)"/>
</clipPath>
<clipPath id="clip1_509_28482">
<rect width="24" height="27" fill="white" transform="translate(142.5 77)"/>
</clipPath>
</defs>
</svg>
