<svg width="390" height="146" viewBox="0 0 390 146" fill="none" xmlns="http://www.w3.org/2000/svg">
<path fill-rule="evenodd" clip-rule="evenodd" d="M34 137.684C32.2282 137.684 30.5392 138.011 29 138.604V132.064C31.9127 131.623 34.1351 129.286 34.1351 126.47C34.1351 123.654 31.9127 121.317 29 120.876V117.891C31.9127 117.45 34.1351 115.113 34.1351 112.297C34.1351 109.481 31.9127 107.144 29 106.703V103.718C31.9127 103.277 34.1351 100.94 34.1351 98.1239C34.1351 95.3075 31.9127 92.9708 29 92.5295V89.545C31.9127 89.1038 34.1351 86.7671 34.1351 83.9508C34.1351 81.1345 31.9127 78.7978 29 78.3565V75.3719C31.9127 74.9307 34.1351 72.594 34.1351 69.7777C34.1351 66.9614 31.9127 64.6247 29 64.1834V61.1989C31.9127 60.7576 34.1351 58.4209 34.1351 55.6046C34.1351 52.7883 31.9127 50.4516 29 50.0103V47.0258C31.9127 46.5845 34.1351 44.2478 34.1351 41.4315C34.1351 38.6152 31.9127 36.2785 29 35.8372V32.8527C31.9127 32.4114 34.1351 30.0747 34.1351 27.2584C34.1351 24.4421 31.9127 22.1054 29 21.6641V13.8608C36.1797 13.8608 42 8.4825 42 1.8481C42 1.21964 41.9478 0.602404 41.8471 0H85.0379C85.5234 5.89768 90.6176 10.605 97 11.0536V12.4087H98V11.0886C104.843 11.0886 110.451 6.20266 110.962 0H343.038C343.549 6.20266 349.157 11.0886 356 11.0886C358.164 11.0886 360.205 10.5999 362 9.73541L362 17.893C358.612 17.893 355.865 20.4312 355.865 23.5622C355.865 26.6932 358.612 29.2314 362 29.2314L362 32.0661C358.612 32.0661 355.865 34.6042 355.865 37.7353C355.865 40.8663 358.612 43.4045 362 43.4045L362 46.2391C358.612 46.2391 355.865 48.7773 355.865 51.9084C355.865 55.0394 358.612 57.5776 362 57.5776L362 60.4122C358.612 60.4122 355.865 62.9504 355.865 66.0815C355.865 69.2125 358.612 71.7507 362 71.7507L362 74.5853C358.612 74.5853 355.865 77.1235 355.865 80.2546C355.865 83.3856 358.612 85.9238 362 85.9238L362 88.7584C358.612 88.7584 355.865 91.2966 355.865 94.4277C355.865 97.5587 358.612 100.097 362 100.097L362 102.931C358.612 102.931 355.865 105.47 355.865 108.601C355.865 111.732 358.612 114.27 362 114.27L362 117.105C358.612 117.105 355.865 119.643 355.865 122.774C355.865 125.905 358.612 128.443 362 128.443V135.233C361.037 135.023 360.033 134.911 359 134.911C352.157 134.911 346.549 139.797 346.038 146H109.373C107.686 141.174 102.784 137.684 97 137.684C91.2159 137.684 86.3141 141.174 84.627 146H46.373C44.6859 141.174 39.7841 137.684 34 137.684ZM97 14.4152V16.4217H98V14.4152H97ZM97 18.4282V20.4347H98V18.4282H97ZM97 22.4412V24.4477H98V22.4412H97ZM97 26.4542V28.4608H98V26.4542H97ZM97 30.4673V32.4738H98V30.4673H97ZM97 34.4803V36.4868H98V34.4803H97ZM97 38.4933V40.4998H98V38.4933H97ZM97 42.5063V44.5128H98V42.5063H97ZM97 46.5194V48.5259H98V46.5194H97ZM97 50.5324V52.5389H98V50.5324H97ZM97 54.5454V56.5519H98V54.5454H97ZM97 58.5584V60.5649H98V58.5584H97ZM97 62.5714V64.578H98V62.5714H97ZM97 66.5845V68.591H98V66.5845H97ZM97 70.5975V72.604H98V70.5975H97ZM97 74.6105V76.617H98V74.6105H97ZM97 78.6235V80.63H98V78.6235H97ZM97 82.6365V84.6431H98V82.6365H97ZM97 86.6496V88.6561H98V86.6496H97ZM97 90.6626V92.6691H98V90.6626H97ZM97 94.6756V96.6821H98V94.6756H97ZM97 98.6886V100.695H98V98.6886H97ZM97 102.702V104.708H98V102.702H97ZM97 106.715V108.721H98V106.715H97ZM97 110.728V112.734H98V110.728H97ZM97 114.741V116.747H98V114.741H97ZM97 118.754V120.76H98V118.754H97ZM97 122.767V124.773H98V122.767H97ZM97 126.78V128.786H98V126.78H97ZM97 130.793V132.799H98V130.793H97ZM97 134.806V136.812H98V134.806H97Z" fill="#AE3691"/>
<path d="M84.0184 139.75H47.9816C46.7066 136.169 43.6064 133.403 39.75 132.464V16.2613C44.9102 15.4049 48.9282 11.3246 49.44 6.25H82.56C83.0719 11.3246 87.0898 15.4049 92.25 16.2613V132.464C88.3936 133.403 85.2934 136.169 84.0184 139.75Z" stroke="white" stroke-width="0.5"/>
<path d="M342.018 139.75H112.982C111.707 136.169 108.606 133.403 104.75 132.464V16.2613C109.91 15.4049 113.928 11.3246 114.44 6.25H340.56C341.072 11.3246 345.09 15.4049 350.25 16.2613V132.464C346.394 133.403 343.293 136.169 342.018 139.75Z" stroke="white" stroke-width="0.5"/>
<mask id="mask0_1532_6176" style="mask-type:alpha" maskUnits="userSpaceOnUse" x="29" y="0" width="333" height="146">
<path fill-rule="evenodd" clip-rule="evenodd" d="M34 137.684C32.2282 137.684 30.5392 138.011 29 138.604V132.064C31.9127 131.623 34.1351 129.286 34.1351 126.47C34.1351 123.654 31.9127 121.317 29 120.876V117.891C31.9127 117.45 34.1351 115.113 34.1351 112.297C34.1351 109.481 31.9127 107.144 29 106.703V103.718C31.9127 103.277 34.1351 100.94 34.1351 98.1239C34.1351 95.3075 31.9127 92.9708 29 92.5295V89.545C31.9127 89.1038 34.1351 86.7671 34.1351 83.9508C34.1351 81.1345 31.9127 78.7978 29 78.3565V75.3719C31.9127 74.9307 34.1351 72.594 34.1351 69.7777C34.1351 66.9614 31.9127 64.6247 29 64.1834V61.1989C31.9127 60.7576 34.1351 58.4209 34.1351 55.6046C34.1351 52.7883 31.9127 50.4516 29 50.0103V47.0258C31.9127 46.5845 34.1351 44.2478 34.1351 41.4315C34.1351 38.6152 31.9127 36.2785 29 35.8372V32.8527C31.9127 32.4114 34.1351 30.0747 34.1351 27.2584C34.1351 24.4421 31.9127 22.1054 29 21.6641V13.8608C36.1797 13.8608 42 8.4825 42 1.8481C42 1.21964 41.9478 0.602404 41.8471 0H85.0379C85.5234 5.89768 90.6176 10.605 97 11.0536V12.0127H98V11.0886C104.843 11.0886 110.451 6.20266 110.962 0H343.038C343.549 6.20266 349.157 11.0886 356 11.0886C358.164 11.0886 360.205 10.5999 362 9.73541L362 17.893C358.612 17.893 355.865 20.4312 355.865 23.5622C355.865 26.6932 358.612 29.2314 362 29.2314L362 32.0661C358.612 32.0661 355.865 34.6042 355.865 37.7353C355.865 40.8663 358.612 43.4045 362 43.4045L362 46.2391C358.612 46.2391 355.865 48.7773 355.865 51.9084C355.865 55.0394 358.612 57.5776 362 57.5776L362 60.4122C358.612 60.4122 355.865 62.9504 355.865 66.0815C355.865 69.2125 358.612 71.7507 362 71.7507L362 74.5853C358.612 74.5853 355.865 77.1235 355.865 80.2546C355.865 83.3856 358.612 85.9238 362 85.9238L362 88.7584C358.612 88.7584 355.865 91.2966 355.865 94.4277C355.865 97.5587 358.612 100.097 362 100.097L362 102.931C358.612 102.931 355.865 105.47 355.865 108.601C355.865 111.732 358.612 114.27 362 114.27L362 117.105C358.612 117.105 355.865 119.643 355.865 122.774C355.865 125.905 358.612 128.443 362 128.443V135.233C361.037 135.023 360.033 134.911 359 134.911C352.157 134.911 346.549 139.797 346.038 146H109.373C107.686 141.174 102.784 137.684 97 137.684H98V135.835H97V137.684C91.2159 137.684 86.3141 141.174 84.627 146H46.373C44.6859 141.174 39.7841 137.684 34 137.684ZM97 13.8608V15.7089H98V13.8608H97ZM97 17.557V19.4051H98V17.557H97ZM97 21.2532V23.1013H98V21.2532H97ZM97 24.9494V26.7975H98V24.9494H97ZM97 28.6456V30.4937H98V28.6456H97ZM97 32.3418V34.1899H98V32.3418H97ZM97 36.038V37.8861H98V36.038H97ZM97 39.7342V41.5823H98V39.7342H97ZM97 43.4304V45.2785H98V43.4304H97ZM97 47.1266V48.9747H98V47.1266H97ZM97 50.8228V52.6709H98V50.8228H97ZM97 54.519V56.3671H98V54.519H97ZM97 58.2152V60.0633H98V58.2152H97ZM97 61.9114V63.7595H98V61.9114H97ZM97 65.6076V67.4557H98V65.6076H97ZM97 69.3038V71.1519H98V69.3038H97ZM97 73V74.8481H98V73H97ZM97 76.6962V78.5443H98V76.6962H97ZM97 80.3924V82.2405H98V80.3924H97ZM97 84.0886V85.9367H98V84.0886H97ZM97 87.7848V89.6329H98V87.7848H97ZM97 91.481V93.3291H98V91.481H97ZM97 95.1772V97.0253H98V95.1772H97ZM97 98.8734V100.722H98V98.8734H97ZM97 102.57V104.418H98V102.57H97ZM97 106.266V108.114H98V106.266H97ZM97 109.962V111.81H98V109.962H97ZM97 113.658V115.506H98V113.658H97ZM97 117.354V119.203H98V117.354H97ZM97 121.051V122.899H98V121.051H97ZM97 124.747V126.595H98V124.747H97ZM97 128.443V130.291H98V128.443H97ZM97 132.139V133.987H98V132.139H97Z" fill="#375DFB"/>
</mask>
<g mask="url(#mask0_1532_6176)">
<path opacity="0.08" d="M53.7046 -17.6499C21.3421 -7.57938 3.18458 27.0097 13.2296 59.4559L28.4515 108.624C38.4963 141.07 72.9977 159.273 105.36 149.203L154.403 133.942C186.765 123.871 204.922 89.2817 194.877 56.836L188.121 35.0138L166.819 58.6846L168.762 64.9624C174.337 82.9709 164.259 102.17 146.297 107.759L97.2544 123.02C79.2916 128.61 60.1422 118.506 54.5669 100.498L39.345 51.3294C33.7696 33.3203 43.8475 14.1217 61.8102 8.5321L110.853 -6.72883C122.665 -10.4045 135.711 -7.23422 144.61 1.31977L100.939 50.7451L78.2955 30.6353L73.6162 35.9312C73.622 35.9366 73.6282 35.9406 73.6341 35.9461C76.2452 38.2981 76.4035 42.389 73.9889 45.0832C71.5902 47.7586 67.5569 48.0464 64.9444 45.7463L60.1642 51.1563L103.276 89.4444L178.515 4.28984L178.072 3.16735C175.169 -4.17452 170.949 -10.7603 165.548 -16.4573L165.579 -16.4925L162.794 -19.2604L162.77 -19.2343C146.642 -34.228 123.839 -39.4742 102.747 -32.9108L53.7046 -17.6499Z" fill="white"/>
<path opacity="0.08" d="M85.6333 164.01C53.2708 174.081 35.1133 208.67 45.1583 241.116L60.3802 290.284C70.425 322.73 104.926 340.933 137.289 330.863L186.331 315.602C218.694 305.531 236.851 270.942 226.806 238.496L220.05 216.674L198.747 240.345L200.691 246.623C206.266 264.631 196.188 283.83 178.226 289.419L129.183 304.68C111.22 310.27 92.0709 300.166 86.4956 282.158L71.2737 232.99C65.6984 214.981 75.7762 195.782 93.739 190.192L142.781 174.931C154.593 171.256 167.639 174.426 176.539 182.98L132.868 232.405L110.224 212.295L105.545 217.591C105.551 217.597 105.557 217.601 105.563 217.606C108.174 219.958 108.332 224.049 105.918 226.743C103.519 229.419 99.4857 229.707 96.8731 227.406L92.0929 232.816L135.204 271.105L210.444 185.95L210.001 184.828C207.098 177.486 202.878 170.9 197.477 165.203L197.508 165.168L194.722 162.4L194.698 162.426C178.571 147.432 155.768 142.186 134.676 148.749L85.6333 164.01Z" fill="white"/>
<path opacity="0.08" d="M212.457 -90.4439C184.107 -79.1623 170.197 -46.8607 181.45 -18.4374L198.502 24.6346C209.755 53.0575 241.975 67.0027 270.325 55.7212L313.286 38.625C341.636 27.3434 355.546 -4.9585 344.293 -33.3814L336.725 -52.4979L319.239 -29.7772L321.416 -24.2777C327.662 -8.50201 319.941 9.42699 304.206 15.6886L261.244 32.7848C245.508 39.0466 227.625 31.3065 221.38 15.5308L204.327 -27.5412C198.081 -43.3174 205.802 -61.2463 221.537 -67.5081L264.499 -84.6043C274.847 -88.722 286.774 -86.7811 295.351 -79.7211L259.566 -32.3356L237.857 -48.8139L234.023 -43.7366C234.028 -43.7321 234.034 -43.7289 234.04 -43.7244C236.545 -41.7945 236.97 -38.1341 234.988 -35.5487C233.02 -32.9813 229.42 -32.4434 226.917 -34.3266L223 -29.1399L264.332 2.23417L325.985 -79.406L325.51 -80.3827C322.398 -86.7706 318.156 -92.3887 312.916 -97.1271L312.942 -97.1609L310.251 -99.4519L310.231 -99.4268C294.722 -111.765 273.896 -114.893 255.419 -107.54L212.457 -90.4439Z" fill="white"/>
<path opacity="0.08" d="M233.908 80.5652C206.494 94.1763 195.235 127.61 208.812 155.095L229.386 196.746C242.962 224.231 276.311 235.517 303.725 221.906L345.269 201.28C372.684 187.669 383.942 154.235 370.365 126.75L361.234 108.264L345.616 132.415L348.243 137.733C355.779 152.988 349.53 171.546 334.314 179.1L292.77 199.727C277.553 207.282 259.044 201.017 251.508 185.762L230.935 144.112C223.399 128.856 229.648 110.299 244.864 102.744L286.408 82.1175C296.414 77.1496 308.495 78.1076 317.647 84.4586L285.759 134.771L262.708 120.087L259.291 125.478C259.297 125.482 259.303 125.485 259.309 125.489C261.972 127.211 262.696 130.835 260.927 133.583C259.17 136.311 255.616 137.145 252.959 135.469L249.469 140.976L293.354 168.934L348.294 82.2513L347.739 81.3142C344.106 75.1851 339.406 69.9185 333.779 65.6134L333.802 65.5776L330.925 63.5091L330.907 63.5358C314.394 52.4793 293.32 51.0677 275.452 59.9387L233.908 80.5652Z" fill="white"/>
</g>
</svg>
